<?xml version="1.0" encoding="UTF-8" standalone="no"?>
<!-- Created with Inkscape (http://www.inkscape.org/) -->

<svg
   version="1.1"
   id="svg74760"
   xml:space="preserve"
   viewBox="0 0 935.75063 682.41464"
   width="935.75067"
   height="682.41467"
   xmlns="http://www.w3.org/2000/svg"
   xmlns:svg="http://www.w3.org/2000/svg"
   xmlns:rdf="http://www.w3.org/1999/02/22-rdf-syntax-ns#"
   xmlns:cc="http://creativecommons.org/ns#"
   xmlns:dc="http://purl.org/dc/elements/1.1/"><defs
     id="defs1" /><metadata
     id="metadata74766"><rdf:RDF><cc:Work
         rdf:about=""><dc:format>image/svg+xml</dc:format><dc:type
           rdf:resource="http://purl.org/dc/dcmitype/StillImage" /></cc:Work></rdf:RDF></metadata><g
     id="g74768"
     transform="matrix(1.3333333,0,0,-1.3333333,-53.630665,879.05331)"><path
       d="m 127.241,210.515 56.639,-3.09 56.637,29.868 31.987,17.281 45.389,-17.402 9.625,-11.961 34.518,11.049 29.865,24.716 247.875,-107.724 95.054,33.575 7.206,79.299 -99.89,48.4 6.178,67.967 -70.028,52.521 -160.65,-7.21 z"
       style="fill:#a3a37a;fill-opacity:1;fill-rule:evenodd;stroke:none"
       id="path74780" /><path
       d="m 403.547,659.29 98.86,-55.61 4.12,-70.027 32.956,-41.193 4.117,-84.445 39.134,-70.028 9.266,-79.294 -140.051,-21.629 -130.271,14.421 -98.348,6.179 -81.356,22.655 -24.716,113.28 21.729,71.776 44.18,60.04 20.596,82.384 98.861,47.373 z"
       style="fill:#cccccc;fill-opacity:1;fill-rule:evenodd;stroke:none"
       id="path74782" /><path
       d="m 502.407,603.68 -53.548,-30.893 -5.149,-51.492 -57.668,-14.417 -20.6,-45.312 -81.356,-11.326 -25.745,24.713 -39.707,-6.057 -35.467,56.519 20.596,82.384 98.861,47.373 100.923,4.118 z"
       style="fill:#ededed;fill-opacity:1;fill-rule:evenodd;stroke:none"
       id="path74784" /><path
       d="m 218.634,468.896 -19.507,-18.144 -4.633,-56.123 -26.778,-33.985 23.687,-53.035 31.41,-16.476 0.517,-33.469 -81.356,22.655 -24.716,113.28 21.729,71.776 44.18,60.04 z"
       style="fill:#cccccc;fill-opacity:1;fill-rule:evenodd;stroke:none"
       id="path74786" /><path
       d="m 284.086,450.24 -8.75,-31.929 14.932,-26.259 6.691,-26.775 -13.386,-36.045 18.535,-25.23 19.57,-52.517 -98.348,6.179 -0.517,33.469 -31.41,16.476 -23.687,53.035 26.778,33.985 4.633,56.123 19.507,18.144 39.707,6.057 z"
       style="fill:#b3b3b3;fill-opacity:1;fill-rule:evenodd;stroke:none"
       id="path74788" /><path
       d="m 296.959,365.277 65.908,1.541 35.014,-29.865 47.371,-7.209 28.836,-39.132 45.312,3.089 72.6,-35.008 -140.051,-21.629 -130.271,14.421 -19.57,52.517 -18.535,25.23 z"
       style="fill:#999999;fill-opacity:1;fill-rule:evenodd;stroke:none"
       id="path74790" /><path
       d="m 362.867,366.818 19.051,14.932 24.716,-1.546 38.102,12.872 30.894,-12.358 22.145,10.814 23.166,-0.513 22.659,16.996 39.134,-70.028 9.266,-79.294 -72.6,35.008 -45.312,-3.089 -28.836,39.132 -47.371,7.209 z"
       style="fill:#b3b3b3;fill-opacity:1;fill-rule:evenodd;stroke:none"
       id="path74792" /><path
       d="m 443.71,521.295 -3.607,-50.984 30.894,-53.549 4.633,-36.044 -30.894,12.358 -38.102,-12.872 -24.716,1.546 -19.051,-14.932 -65.908,-1.541 -6.691,26.775 -14.932,26.259 8.75,31.929 81.356,11.326 20.6,45.312 z"
       style="fill:#dbdbdb;fill-opacity:1;fill-rule:evenodd;stroke:none"
       id="path74794" /><path
       d="m 490.678,596.913 -44.917,-21.394 -5.953,-50.346 -57.89,-14.185 -19.564,-43.768 -75.694,-10.811 -26.771,23.683 -38.108,-4.117 -33.764,41.71 30.617,-48.789 39.707,6.057 25.745,-24.713 81.356,11.326 20.6,45.312 57.668,14.417 5.149,51.492 z"
       style="fill:#ffffff;fill-opacity:1;fill-rule:evenodd;stroke:none"
       id="path74796" /><path
       d="m 277.952,413.707 10.13,-23.596 6.181,-25.487 -14.159,-37.33 22.004,-23.292 -18.535,25.23 14.803,34.111 53.291,3.213 -52.771,1.414 -8.628,24.082 z"
       style="fill:#ffffff;fill-opacity:1;fill-rule:evenodd;stroke:none"
       id="path74798" /><path
       d="m 440.103,470.311 27.039,-58.449 3.604,-24.715 -26.171,10.943 -34.387,-16.686 34.548,11.672 30.894,-12.358 22.145,10.814 23.166,-0.513 -23.679,5.011 -19.878,-7.866 -6.387,28.598 z"
       style="fill:#ffffff;fill-opacity:1;fill-rule:evenodd;stroke:none"
       id="path74800" /><path
       d="m 198.155,438.954 -3.661,-44.325 -26.778,-33.985 23.687,-53.035 -19.037,52.505 26.516,33.469 z"
       style="fill:#ffffff;fill-opacity:1;fill-rule:evenodd;stroke:none"
       id="path74802" /><path
       d="m 463.827,284.548 -7.7,55.44 72.381,35.424 32.344,20.022 52.361,-23.101 16.942,-33.883 52.363,-12.322 33.88,-61.602 -23.824,-28.823 -34.696,-14.3 -93.946,10.781 -24.643,32.342 z"
       style="fill:#ededed;fill-opacity:1;fill-rule:evenodd;stroke:none"
       id="path74804" /><path
       d="M 456.127,339.988 413,289.936 l 5.391,-63.913 29.261,-54.672 40.813,-10.782 -19.251,43.12 5.39,40.046 -10.777,40.813 z"
       style="fill:#cccccc;fill-opacity:1;fill-rule:evenodd;stroke:none"
       id="path74806" /><path
       d="m 463.827,284.548 75.462,-20.022 24.643,-32.342 -11.555,-29.261 16.17,-27.721 -2.309,-27.723 -77.773,13.09 -19.251,43.12 5.39,40.046 z"
       style="fill:#b3b3b3;fill-opacity:1;fill-rule:evenodd;stroke:none"
       id="path74808" /><path
       d="m 657.878,221.403 -1.546,-34.652 -16.556,-33.499 -73.538,-5.773 2.309,27.723 -16.17,27.721 11.555,29.261 z"
       style="fill:#999999;fill-opacity:1;fill-rule:evenodd;stroke:none"
       id="path74810" /><path
       d="m 639.776,153.252 53.518,35.42 23.101,39.271 0.003,36.583 -23.824,-28.823 -34.696,-14.3 -1.546,-34.652 z"
       style="fill:#858585;fill-opacity:1;fill-rule:evenodd;stroke:none"
       id="path74812" /><path
       d="m 656.332,186.751 32.833,15.617 27.23,25.575 0.003,36.583 -23.824,-28.823 -34.696,-14.3 z"
       style="fill:#b3b3b3;fill-opacity:1;fill-rule:evenodd;stroke:none"
       id="path74814" /><path
       d="m 457.819,327.789 9.46,-39.785 74.705,-20.205 22.704,-31.002 90.092,-11.553 35.069,9.334 -31.971,-13.175 -93.946,10.781 -24.643,32.342 -75.462,20.022 z"
       style="fill:#ffffff;fill-opacity:1;fill-rule:evenodd;stroke:none"
       id="path74816" /><path
       d="m 463.827,284.548 10.777,-40.813 -4.19,-31.129 7.452,30.54 -11.257,40.661 0.67,4.197 z"
       style="fill:#ffffff;fill-opacity:1;fill-rule:evenodd;stroke:none"
       id="path74818" /><path
       d="m 561.826,226.847 -9.449,-23.924 16.17,-27.721 -1.649,-19.802 4.141,21.526 -15.401,25.796 z"
       style="fill:#ffffff;fill-opacity:1;fill-rule:evenodd;stroke:none"
       id="path74820" /><path
       d="m 657.653,216.382 -1.321,-29.631 -10.686,-21.622 11.927,20.076 22.893,13.027 -22.36,-10.64 z"
       style="fill:#ffffff;fill-opacity:1;fill-rule:evenodd;stroke:none"
       id="path74822" /><path
       d="m 184.906,361.897 -59.726,3.089 -47.371,-29.864 -18.538,-33.983 31.927,-32.952 60.756,1.026 64.879,29.867 7.208,38.103 z"
       style="fill:#ededed;fill-opacity:1;fill-rule:evenodd;stroke:none"
       id="path74824" /><path
       d="m 59.271,301.139 -19.048,-26.778 13.386,-31.406 24.2,-16.993 12.36,11.844 -5.153,20.595 6.182,9.786 z"
       style="fill:#cccccc;fill-opacity:1;fill-rule:evenodd;stroke:none"
       id="path74826" /><path
       d="m 151.954,269.213 10.814,-9.782 -5.665,-22.142 5.665,-18.018 -35.527,-8.756 -49.432,15.447 12.36,11.844 -5.153,20.595 6.182,9.786 z"
       style="fill:#b3b3b3;fill-opacity:1;fill-rule:evenodd;stroke:none"
       id="path74828" /><path
       d="m 151.954,269.213 64.879,29.867 7.208,38.103 9.785,-25.746 -0.513,-20.082 -7.211,-12.872 3.604,-21.627 -20.596,-22.138 -46.342,-15.447 -5.665,18.018 5.665,22.142 z"
       style="fill:#999999;fill-opacity:1;fill-rule:evenodd;stroke:none"
       id="path74830" /><path
       d="m 157.103,237.289 25.232,8.754 13.902,18.537 19.567,4.12 10.298,9.783 7.211,12.872 0.513,20.082 -9.785,25.746 -7.208,-38.103 -64.879,-29.867 10.814,-9.782 z"
       style="fill:#cccccc;fill-opacity:1;fill-rule:evenodd;stroke:none"
       id="path74832" /><path
       d="m 63.327,296.95 28.38,-26.195 58.186,1.033 64.426,29.155 7.113,22.437 -4.599,-24.3 -64.879,-29.867 -60.756,-1.026 z"
       style="fill:#ffffff;fill-opacity:1;fill-rule:evenodd;stroke:none"
       id="path74834" /><path
       d="m 90.182,269.229 -6.775,-10.508 5.021,-21.113 -4.438,-5.725 6.179,5.923 -5.153,20.595 7.338,9.806 0.449,1.455 z"
       style="fill:#ffffff;fill-opacity:1;fill-rule:evenodd;stroke:none"
       id="path74836" /><path
       d="m 162.231,257.325 -6.348,-20.226 6.262,-15.833 -4.271,15.121 25.554,8.884 7.271,11.924 -8.364,-11.152 -24.652,-7.852 z"
       style="fill:#ffffff;fill-opacity:1;fill-rule:evenodd;stroke:none"
       id="path74838" /><path
       d="m 327.242,261.234 -15.949,0.826 -12.648,-7.979 -4.951,-9.071 8.524,-8.803 16.225,0.277 17.328,7.975 1.924,10.175 z"
       style="fill:#ededed;fill-opacity:1;fill-rule:evenodd;stroke:none"
       id="path74840" /><path
       d="m 293.694,245.01 -5.086,-7.152 3.577,-8.385 6.46,-4.536 3.302,3.16 -1.378,5.501 1.649,2.609 z"
       style="fill:#cccccc;fill-opacity:1;fill-rule:evenodd;stroke:none"
       id="path74842" /><path
       d="m 318.443,236.484 2.886,-2.611 -1.508,-5.914 1.508,-4.813 -9.487,-2.336 -13.197,4.127 3.302,3.16 -1.378,5.501 1.649,2.609 z"
       style="fill:#b3b3b3;fill-opacity:1;fill-rule:evenodd;stroke:none"
       id="path74844" /><path
       d="m 318.443,236.484 17.328,7.975 1.924,10.175 2.612,-6.876 -0.138,-5.363 -1.924,-3.436 0.962,-5.776 -5.501,-5.911 -12.377,-4.126 -1.508,4.813 1.508,5.914 z"
       style="fill:#999999;fill-opacity:1;fill-rule:evenodd;stroke:none"
       id="path74846" /><path
       d="m 319.821,227.959 6.734,2.338 3.711,4.951 5.226,1.099 2.753,2.612 1.924,3.436 0.138,5.363 -2.612,6.876 -1.924,-10.175 -17.328,-7.975 2.886,-2.611 z"
       style="fill:#cccccc;fill-opacity:1;fill-rule:evenodd;stroke:none"
       id="path74848" /><path
       d="m 294.78,243.89 7.575,-6.993 15.538,0.275 17.204,7.784 1.901,5.993 -1.227,-6.49 -17.328,-7.975 -16.225,-0.277 z"
       style="fill:#ffffff;fill-opacity:1;fill-rule:evenodd;stroke:none"
       id="path74850" /><path
       d="m 301.947,236.488 -1.807,-2.805 1.341,-5.639 -1.187,-1.529 1.653,1.582 -1.378,5.501 1.961,2.615 0.121,0.39 z"
       style="fill:#ffffff;fill-opacity:1;fill-rule:evenodd;stroke:none"
       id="path74852" /><path
       d="m 321.188,233.31 -1.696,-5.404 1.67,-4.226 -1.14,4.038 6.825,2.374 1.945,3.184 -2.237,-2.979 -6.58,-2.096 z"
       style="fill:#ffffff;fill-opacity:1;fill-rule:evenodd;stroke:none"
       id="path74854" /></g></svg>
