<?xml version="1.0" encoding="UTF-8" standalone="no"?>
<!-- Created with Inkscape (http://www.inkscape.org/) -->

<svg
   id="svg2"
   xml:space="preserve"
   viewBox="0 0 26.077998 34.342998"
   version="1.1"
   inkscape:version="0.91 r13725"
   sodipodi:docname="med.svg"
   width="26.077999"
   height="34.342999"
   xmlns:inkscape="http://www.inkscape.org/namespaces/inkscape"
   xmlns:sodipodi="http://sodipodi.sourceforge.net/DTD/sodipodi-0.dtd"
   xmlns="http://www.w3.org/2000/svg"
   xmlns:svg="http://www.w3.org/2000/svg"
   xmlns:rdf="http://www.w3.org/1999/02/22-rdf-syntax-ns#"
   xmlns:cc="http://creativecommons.org/ns#"
   xmlns:dc="http://purl.org/dc/elements/1.1/"><sodipodi:namedview
   id="namedview1"
   pagecolor="#ffffff"
   bordercolor="#000000"
   borderopacity="0.25"
   inkscape:showpageshadow="2"
   inkscape:pageopacity="0.0"
   inkscape:pagecheckerboard="0"
   inkscape:deskcolor="#d1d1d1" />&#10;  <defs
   id="defs6"><clipPath
     id="clipPath18">&#10;      <path
   id="path20"
   d="m 0,0.36 h 26 v 9 H 0 Z"
   inkscape:connector-curvature="0" />&#10;    </clipPath><mask
     id="mask22">&#10;      <g
   id="g24">&#10;        <g
   id="g26"
   clip-path="url(#clipPath18)">&#10;          <path
   id="path28"
   style="fill:#000000;fill-opacity:0.1406"
   d="m 0,0.36 h 26 v 9 H 0 Z"
   inkscape:connector-curvature="0" />&#10;        </g>&#10;      </g>&#10;    </mask><clipPath
     id="clipPath34">&#10;      <path
   id="path36"
   d="m 0,0.36 h 26 v 9 H 0 Z"
   inkscape:connector-curvature="0" />&#10;    </clipPath><clipPath
     id="clipPath38">&#10;      <path
   id="path40"
   d="m 0,1 h 26 v 9 H 0 Z"
   inkscape:connector-curvature="0" />&#10;    </clipPath><radialGradient
     id="radialGradient68"
     gradientUnits="userSpaceOnUse"
     cy="27.528999"
     cx="15.475"
     gradientTransform="matrix(0.8,0,0,0.68256,0,-3.4544)"
     r="15.097">&#10;      <stop
   id="stop70"
   style="stop-color:#b4ccdb"
   offset="0" />&#10;      <stop
   id="stop72"
   style="stop-color:#99bcd1"
   offset="1" />&#10;    </radialGradient><clipPath
     id="clipPath84">&#10;      <path
   id="path86"
   d="m 1,-0.64 h 23 v 38 H 1 Z"
   inkscape:connector-curvature="0" />&#10;    </clipPath><mask
     id="mask88">&#10;      <g
   id="g90">&#10;        <g
   id="g92"
   clip-path="url(#clipPath84)">&#10;          <path
   id="path94"
   style="fill:#000000;fill-opacity:0.4805"
   d="m 1,-0.64 h 23 v 38 H 1 Z"
   inkscape:connector-curvature="0" />&#10;        </g>&#10;      </g>&#10;    </mask><clipPath
     id="clipPath100">&#10;      <path
   id="path102"
   d="m 1,-0.64 h 23 v 38 H 1 Z"
   inkscape:connector-curvature="0" />&#10;    </clipPath><clipPath
     id="clipPath104">&#10;      <path
   id="path106"
   d="M 1,0 H 24 V 38 H 1 Z"
   inkscape:connector-curvature="0" />&#10;    </clipPath><clipPath
     id="clipPath108">&#10;      <path
   id="path110"
   d="m 23.602,19.32 c 0,-5.148 -1.11,-9.547 -3.321,-13.199 -2.215,-3.652 -4.867,-5.48 -7.961,-5.48 -3.121,0 -5.773,1.828 -7.961,5.48 -2.214,3.625 -3.32,8.024 -3.32,13.199 0,5.172 1.106,9.575 3.32,13.2 2.188,3.652 4.84,5.48 7.961,5.48 3.094,0 5.746,-1.828 7.961,-5.48 2.211,-3.653 3.321,-8.055 3.321,-13.2 z"
   inkscape:connector-curvature="0" />&#10;    </clipPath><clipPath
     id="clipPath112">&#10;      <path
   id="path114"
   d="m -0.0498,-37.766 h 28.75 v 29.325 h -28.75 z"
   inkscape:connector-curvature="0" />&#10;    </clipPath><radialGradient
     id="radialGradient116"
     gradientUnits="userSpaceOnUse"
     cy="-23.35"
     cx="14.1"
     r="13.25">&#10;      <stop
   id="stop118"
   style="stop-color:#ffffff"
   offset="0" />&#10;      <stop
   id="stop120"
   style="stop-color:#ffffff;stop-opacity:0"
   offset="1" />&#10;    </radialGradient><mask
     id="mask122">&#10;      <g
   id="g124">&#10;        <g
   id="g126"
   clip-path="url(#clipPath112)">&#10;          <path
   id="path128"
   style="fill:url(#radialGradient116)"
   d="m -0.0498,-37.766 h 28.75 v 29.325 h -28.75 z"
   inkscape:connector-curvature="0" />&#10;        </g>&#10;      </g>&#10;    </mask><radialGradient
     id="radialGradient130"
     gradientUnits="userSpaceOnUse"
     cy="-23.35"
     cx="14.1"
     r="13.25">&#10;      <stop
   id="stop132"
   style="stop-color:#ffffff"
   offset="0" />&#10;      <stop
   id="stop134"
   style="stop-color:#ffffff"
   offset="1" />&#10;    </radialGradient></defs>&#10;  <g
   id="g10"
   transform="matrix(1.25,0,0,-1.25,-2.4642214,36.262603)">&#10;    <g
   id="g12">&#10;      <g
   id="g14">&#10;        <g
   id="g30"
   mask="url(#mask22)">&#10;          <g
   id="g42">&#10;            <g
   id="g44"
   clip-path="url(#clipPath34)">&#10;              <g
   id="g46"
   transform="translate(0,-0.64)">&#10;                <g
   id="g50">&#10;                  <g
   id="g52"
   clip-path="url(#clipPath38)">&#10;                    <g
   id="g54">&#10;                      <path
   id="path56"
   style="fill:#000000;fill-rule:evenodd"
   d="m 24.199,5.48 c 0,0.106 -0.027,0.094 -0.078,-0.039 C 23.746,4.535 23.215,3.867 22.52,3.441 22.121,3.227 21.695,3.094 21.238,3.039 H 20.641 C 20.027,3.039 19.145,2.961 18,2.801 17.414,2.695 17.105,2.641 17.078,2.641 17.027,2.559 16.668,2.426 16,2.238 15.172,2.027 14.398,1.922 13.68,1.922 12.988,1.973 12.508,2 12.238,2 12.055,2 11.812,1.961 11.52,1.879 11.305,1.801 10.973,1.785 10.52,1.84 9.426,1.973 8.492,2.332 7.719,2.922 7.375,3.16 6.973,3.281 6.52,3.281 6.094,3.281 5.828,3.332 5.719,3.441 5.559,3.602 5.332,3.762 5.039,3.922 l -0.398,0.199 -2,0.52 C 1.762,4.879 1.188,5.105 0.922,5.32 0.625,5.668 0.32,6.027 0,6.398 c 0.348,0.883 0.746,1.547 1.199,2 0.426,0.43 1,0.641 1.723,0.641 H 3.84 c 0.64,0 1.574,0.094 2.801,0.281 0.906,0.078 2.371,0.121 4.398,0.121 0.453,0 1.336,0.012 2.641,0.039 C 14.961,9.508 16,9.492 16.801,9.441 17.734,9.387 18.613,9.266 19.441,9.078 20.055,8.922 21.305,8.559 23.199,8 24.613,7.547 25.238,7.145 25.078,6.801 24.973,6.613 24.695,6.293 24.238,5.84 Z"
   inkscape:connector-curvature="0" />&#10;                    </g>&#10;                  </g>&#10;                </g>&#10;              </g>&#10;            </g>&#10;          </g>&#10;        </g>&#10;      </g>&#10;      <g
   id="g58">&#10;        <g
   id="g60">&#10;          <g
   id="g66">&#10;            <path
   id="path74"
   style="fill:url(#radialGradient68);fill-rule:evenodd"
   d="m 18.238,18.399 c 0.43,-0.824 1.149,-2.199 2.16,-4.117 1.336,-2.774 2,-4.949 2,-6.524 0,-0.718 0.082,-1.878 0.243,-3.476 C 22.426,4.067 22.039,3.825 21.48,3.559 20.414,3.028 19.066,2.641 17.441,2.399 15.199,2.051 13.68,1.84 12.879,1.758 11.629,1.653 10.613,1.735 9.84,2.001 9.254,2.239 8.535,2.653 7.68,3.239 6.906,3.774 6.348,4.079 6,4.161 5.281,4.321 3.988,5.294 2.121,7.079 c 1.332,2.32 2.094,3.883 2.277,4.679 0.481,2.43 0.747,3.707 0.801,3.84 0.055,0.215 0.375,0.641 0.961,1.282 0.559,0.613 0.906,1.175 1.039,1.679 0.16,0.508 0.254,1.203 0.281,2.082 0.051,1.012 0.094,1.598 0.122,1.758 L 8.52,27.2 c 0.718,-0.078 1.695,0.148 2.921,0.68 1.25,0.535 2.239,0.894 2.957,1.082 0.961,-2.055 1.707,-4.188 2.243,-6.403 0.32,-1.359 0.851,-2.746 1.597,-4.16 z"
   inkscape:connector-curvature="0" />&#10;          </g>&#10;        </g>&#10;      </g>&#10;      <path
   id="path76"
   style="fill:#91aebd;fill-rule:evenodd"
   d="m 16.641,22.559 c 0.32,-1.359 0.851,-2.746 1.597,-4.16 0.43,-0.824 1.149,-2.199 2.16,-4.117 1.336,-2.774 2,-4.949 2,-6.524 0,-0.718 0.082,-1.878 0.243,-3.476 C 22.426,4.067 22.039,3.825 21.48,3.559 20.414,3.028 19.066,2.641 17.441,2.399 15.199,2.051 13.68,1.84 12.879,1.758 11.629,1.653 10.613,1.735 9.84,2.001 9.254,2.239 8.535,2.653 7.68,3.239 6.906,3.774 6.348,4.079 6,4.161 5.492,4.266 4.559,4.907 3.199,6.079 3.625,5.946 4.039,5.895 4.441,5.919 4.68,5.946 5.145,6.028 5.84,6.161 6.48,6.294 7.012,6.52 7.441,6.84 7.707,7.055 8.066,7.094 8.52,6.962 8.973,6.825 9.441,6.626 9.922,6.36 c 0.316,-0.133 0.558,-0.066 0.719,0.199 0.265,0.375 0.453,0.668 0.558,0.879 0.188,0.402 0.321,0.949 0.403,1.645 0.132,1.757 0.171,3 0.117,3.718 l -0.117,1.598 c 2.343,1.867 3.41,3.52 3.199,4.961 -0.11,0.535 -0.176,0.813 -0.199,0.84 -0.11,0.238 -0.403,0.535 -0.883,0.879 -0.426,0.293 -0.824,0.695 -1.199,1.203 -0.375,0.476 -0.598,0.746 -0.68,0.797 -0.16,0.109 -0.293,0.359 -0.402,0.761 l -0.118,0.559 1.118,-0.117 c 0.855,0.023 1.507,0.293 1.96,0.797 0.348,0.426 0.762,0.707 1.243,0.84 0.398,-1.145 0.734,-2.266 1,-3.36 z"
   inkscape:connector-curvature="0" />&#10;      <path
   id="path78"
   style="fill:#cce0ed;fill-rule:evenodd"
   d="m 16.641,22.559 c 0.265,-1.094 0.597,-2.078 1,-2.961 -0.481,-0.476 -0.95,-0.824 -1.403,-1.039 l -1.316,1.723 c -0.16,0.211 -0.496,0.453 -1,0.719 -1.094,0.558 -1.734,0.894 -1.922,1 -0.664,0.398 -1.133,0.984 -1.398,1.757 l -0.204,1.043 -1.359,0.957 c 0,-0.453 -0.48,-1.57 -1.437,-3.359 L 8.52,27.2 c 0.718,-0.078 1.695,0.148 2.921,0.68 1.25,0.535 2.239,0.894 2.957,1.082 0.961,-2.055 1.707,-4.188 2.243,-6.403 z"
   inkscape:connector-curvature="0" />&#10;      <g
   id="g80">&#10;        <g
   id="g96"
   mask="url(#mask88)">&#10;          <g
   id="g136">&#10;            <g
   id="g138"
   clip-path="url(#clipPath100)">&#10;              <g
   id="g140"
   transform="translate(0,-0.64)">&#10;                <g
   id="g144">&#10;                  <g
   id="g146"
   clip-path="url(#clipPath104)">&#10;                    <g
   id="g148">&#10;                      <g
   id="g150">&#10;                        <g
   id="g152"
   clip-path="url(#clipPath108)">&#10;                          <g
   id="g154"
   transform="matrix(0.8,0,0,-1.2958,1.0398,-10.938)">&#10;                            <g
   id="g158"
   mask="url(#mask122)">&#10;                              <path
   id="path160"
   style="fill:url(#radialGradient130);fill-rule:evenodd"
   d="m 23.602,19.32 c 0,-5.148 -1.11,-9.547 -3.321,-13.199 -2.215,-3.652 -4.867,-5.48 -7.961,-5.48 -3.121,0 -5.773,1.828 -7.961,5.48 -2.214,3.625 -3.32,8.024 -3.32,13.199 0,5.172 1.106,9.575 3.32,13.2 2.188,3.652 4.84,5.48 7.961,5.48 3.094,0 5.746,-1.828 7.961,-5.48 2.211,-3.653 3.321,-8.055 3.321,-13.2 z"
   inkscape:connector-curvature="0" />&#10;                            </g>&#10;                          </g>&#10;                        </g>&#10;                      </g>&#10;                    </g>&#10;                  </g>&#10;                </g>&#10;              </g>&#10;            </g>&#10;          </g>&#10;        </g>&#10;      </g>&#10;    </g>&#10;  </g>&#10;<metadata
   id="metadata1"><rdf:RDF><cc:Work><dc:format>image/svg+xml</dc:format><dc:type
         rdf:resource="http://purl.org/dc/dcmitype/StillImage" /><cc:license
         rdf:resource="http://creativecommons.org/publicdomain/zero/1.0/" /><dc:publisher><cc:Agent
           rdf:about="http://openclipart.org/"><dc:title>Openclipart</dc:title></cc:Agent></dc:publisher></cc:Work><cc:License
       rdf:about="http://creativecommons.org/publicdomain/zero/1.0/"><cc:permits
         rdf:resource="http://creativecommons.org/ns#Reproduction" /><cc:permits
         rdf:resource="http://creativecommons.org/ns#Distribution" /><cc:permits
         rdf:resource="http://creativecommons.org/ns#DerivativeWorks" /></cc:License></rdf:RDF></metadata></svg>
