<?xml version="1.0" encoding="UTF-8" standalone="no"?>
<svg
   version="1.1"
   viewBox="0 0 126.96676 137.80547"
   id="svg57"
   sodipodi:docname="1.svg"
   width="126.96676"
   height="137.80547"
   xmlns:inkscape="http://www.inkscape.org/namespaces/inkscape"
   xmlns:sodipodi="http://sodipodi.sourceforge.net/DTD/sodipodi-0.dtd"
   xmlns="http://www.w3.org/2000/svg"
   xmlns:svg="http://www.w3.org/2000/svg">
  <defs
     id="defs57" />
  <sodipodi:namedview
     id="namedview57"
     pagecolor="#005d4d"
     bordercolor="#000000"
     borderopacity="0.25"
     inkscape:showpageshadow="2"
     inkscape:pageopacity="0.0"
     inkscape:pagecheckerboard="0"
     inkscape:deskcolor="#d1d1d1" />
  <g
     id="g39"
     transform="translate(-20.96646,-11.029892)">
    <path
       fill="#413520"
       d="m 23.35,106.3 q -3.22,-6.17 -2.09,-13.8 0.56,-3.85 2.91,-6.09 c 4.1,-2.86 6.25,0.14 7.95,3.71 3.19,6.69 5.31,12.99 11.74,17.61 a 0.67,0.67 0 0 0 1.06,-0.54 q 0.07,-4.58 0.11,-9.44 c 0.04,-4.6 3.68,-5.61 7.79,-6 q 7.64,-0.72 15.06,-1.04 2.04,-0.09 0.15,-0.87 -14.77,-6.04 -20.94,-20.73 -0.2,-0.48 -0.72,-0.42 -5.99,0.63 -11.86,0.32 -1,-0.05 -0.98,-0.89 a 0.66,0.65 4.8 0 1 0.74,-0.62 q 5.94,0.75 11.88,-0.1 a 0.58,0.58 0 0 0 0.5,-0.62 l -0.33,-5.37 q -0.04,-0.6 -0.56,-0.88 -6.23,-3.37 -12.9,-5.58 -0.5,-0.17 -0.67,-0.43 -0.14,-0.23 -0.11,-0.48 0.08,-0.57 0.64,-0.42 6.62,1.84 12.57,5.27 1.09,0.63 1.3,-0.61 1.62,-9.56 7.4,-17.35 a 1.33,1.29 60.7 0 0 0.24,-0.9 L 51.32,14.28 a 0.64,0.63 13.5 0 1 0.98,-0.6 l 17.56,11.35 a 1.06,1.05 -38 0 0 0.94,0.11 q 9.46,-3.35 19.33,-2.29 c 4.49,0.49 12.19,-8.63 15.3,-11.65 a 0.59,0.59 0 0 1 0.99,0.29 l 3.51,14.71 a 3.71,3.71 0 0 0 1.32,2.06 c 8.32,6.55 13.56,12.26 15.12,22.93 a 2.29,2.29 0 0 0 1.42,1.8 q 4.62,1.84 7.84,5.62 a 0.91,0.9 65.2 0 0 0.79,0.3 q 5.73,-0.85 10.3,-4.24 1.08,-0.8 1.21,0.42 a 0.73,0.72 69.9 0 1 -0.3,0.66 q -4.64,3.28 -10.23,4.45 a 0.47,0.47 0 0 0 -0.33,0.66 q 1.66,3.43 1.11,7.32 -0.24,1.72 1.5,1.77 l 6.39,0.2 a 0.7,0.7 0 0 1 0.67,0.55 q 0.1,0.47 -0.2,0.73 -0.2,0.18 -0.62,0.19 -3.88,0.16 -7.72,-0.37 a 0.68,0.68 0 0 0 -0.72,0.43 c -2.94,7.52 -7.46,11.3 -13.73,15.01 q -0.52,0.3 -0.23,0.83 3.48,6.22 -3.15,9.84 -7.1,3.87 -14.2,7.83 c -3,1.67 -9.64,0.07 -13.07,-0.38 q -0.58,-0.08 -0.79,0.46 -2.43,6.23 -6.85,11.22 a 0.53,0.53 0 0 0 0.08,0.78 c 3.54,2.53 7.08,3.27 9.27,7.44 q 2.52,4.82 4.98,9.51 a 0.82,0.82 0 0 0 1,0.39 q 5.5,-2.02 11.15,-3.84 c 9.33,-3 13.17,8.94 3.06,12.44 q -7.74,2.67 -15.52,5.23 c -9.66,3.17 -11.07,-13.63 -17.19,-18.08 q -4.47,-3.25 -9.44,-5.65 -0.45,-0.22 -0.86,0.07 -4.06,2.86 -8.19,5.46 c -4.46,2.81 -9.14,3.53 -14.17,4.33 q -0.88,0.14 -0.22,0.75 c 4.96,4.54 3.13,11.29 -3.67,11.5 q -7.37,0.22 -10,-0.13 c -5.16,-0.69 -6,-6.44 -7.21,-11.1 -1.68,-6.42 -0.34,-9.38 6.07,-10.73 q 10.64,-2.25 21.28,-4.46 1.1,-0.22 1.68,-1.63 0.28,-0.69 -0.39,-0.36 c -0.69,0.34 -0.98,0.68 -1.77,0.77 -11.8,1.4 -25.08,-2.47 -32.05,-12.88 z m 59.1,-14.62 q 20.19,3.33 38.47,-5.24 c 7.33,-3.44 11.91,-7.84 15.1,-14.98 a 0.75,0.75 0 0 0 -0.51,-1.04 l -2.92,-0.72 a 0.4,0.39 -83.7 0 1 -0.3,-0.39 q 0,-0.16 -0.02,-0.33 a 0.44,0.44 0 0 1 0.52,-0.46 l 3.22,0.66 a 0.5,0.49 -79.1 0 0 0.58,-0.4 q 0.7,-4.2 -1.22,-7.95 a 0.71,0.71 0 0 0 -0.88,-0.34 L 132,61.38 q -0.34,0.12 -0.45,-0.22 l -0.1,-0.32 a 0.42,0.41 69 0 1 0.21,-0.49 l 1.93,-0.92 a 0.59,0.59 0 0 0 0.14,-0.97 Q 130.7,55.75 127,54.34 c -1.87,-0.71 -2.79,-1.69 -3,-3.59 0.86,-6.89 -4.59,-14.29 -9.58,-18.19 -2.42,-1.9 -5.02,-3.42 -5.92,-6.59 q -1.67,-5.87 -2.74,-11.74 a 0.62,0.62 0 0 0 -1.04,-0.34 l -10.47,9.86 q -0.26,0.24 0.06,0.4 l 2.61,1.25 a 0.44119157,0.44119157 0 0 1 -0.35,0.81 Q 84.53,21.79 72.33,26.13 a 0.38,0.38 0 0 0 -0.13,0.64 q 1.15,1.03 2.18,2.17 0.14,0.16 0.02,0.34 l -0.15,0.23 q -0.13,0.19 -0.33,0.06 L 54.21,16.54 q -1.27,-0.85 -1.11,0.67 1.09,10.1 2.57,20.91 0.34,2.48 -0.45,3.58 -5.79,7.97 -7.47,17.73 -0.11,0.6 0.38,0.97 l 1.29,0.99 a 0.45,0.45 0 0 1 -0.23,0.81 l -0.7,0.07 q -0.63,0.07 -0.72,0.7 -0.33,2.14 0.71,3.93 0.27,0.45 0.29,0.98 0.13,3.11 1.88,5.73 11.28,16.98 31.8,18.07 z m -56.11,16.41 q 2.01,2.96 5.15,4.76 13.13,7.52 28.48,4.12 a 1.09,1.09 0 0 0 0.71,-1.59 l -2.45,-4.44 a 1.12,1.11 -58.6 0 0 -2.09,0.51 q -0.11,3.61 -2.95,5.39 -2.23,1.4 -4.57,0.38 -2.48,-1.08 -3.45,-3.83 c -0.36,-1.01 -0.1,-2.31 -0.36,-3.49 q -0.1,-0.47 -0.52,-0.7 -5.01,-2.83 -7.78,-7.03 -3.4,-6.77 -6.08,-12.65 C 29.32,87.08 27,85.26 24.67,87.91 20,93.2 22.05,102.78 26.34,108.09 Z M 93.37,95.8 c 0.98,2.92 0.19,4.2 -0.41,6.96 a 0.6,0.6 0 0 0 0.51,0.72 q 4.01,0.5 8.04,0.97 2.07,0.24 5.27,-1.44 6.71,-3.52 13.32,-7.27 c 3.08,-1.74 4.43,-4.32 2.01,-7.32 q -0.31,-0.39 -0.78,-0.24 -9.91,3.04 -19.16,7.64 a 1.14,1.08 33.2 0 1 -0.6,0.11 L 94.03,95 a 0.61,0.61 0 0 0 -0.66,0.8 z m -10.34,21.55 q 0.09,-0.94 -0.22,-0.38 5.62,-5.08 7.63,-11.51 c 1.83,-2.87 4.63,-11.09 -1.45,-11.39 Q 81.25,93.68 72.82,91.83 a 0.52,0.52 0 0 0 -0.51,0.84 q 2.52,3.07 0.87,5.99 c -2.01,3.56 -6.9,3.89 -10.63,3.46 a 0.88,0.88 0 0 0 -0.77,0.31 c -3.79,4.51 -2.7,9.78 0.93,13.8 q 1.82,2 6.09,4.4 7.25,4.07 14.22,8.27 a 7.62,7.55 2.4 0 1 2.85,3.07 q 3.13,6.14 6.99,12.94 2.05,3.62 5.89,2.35 3.59,-1.18 16.72,-5.83 c 4.61,-1.63 6.01,-7.27 1.28,-9.26 -3.3,-1.38 -11.91,2.58 -15.55,3.92 a 1.98,1.97 -24.2 0 1 -2.42,-0.91 q -2.63,-4.83 -5.28,-9.86 c -1.95,-3.69 -7.19,-5.63 -10.47,-7.97 z M 54.97,102.58 a 1.73,1.72 -87.4 0 1 1.69,-1.55 q 5.21,-0.05 10.55,-0.46 c 3.43,-0.27 6.9,-2.8 4.25,-6.58 -1.66,-2.38 -2.6,-1.84 -5.1,-1.67 q -7.91,0.56 -15.56,1.06 a 4.39,4.39 0 0 0 -4.1,4.21 q -0.26,6.71 -0.38,13.47 -0.04,2.52 1.05,3.78 c 1.74,2 4.69,2.1 6.41,-0.09 1.72,-2.18 0.89,-9.31 1.19,-12.17 z m 48.4949,-8.9846 a 2.15,0.62 -6.8 0 0 -2.2083,-0.361 2.15,0.62 -6.8 0 0 -2.0615,0.8702 2.15,0.62 -6.8 0 0 2.2083,0.361 2.15,0.62 -6.8 0 0 2.0615,-0.8702 z M 58.33,106.7 q 0.55,-1.79 1.21,-3.66 a 0.62,0.62 0 0 0 -0.75,-0.81 l -1.93,0.53 q -0.62,0.17 -0.63,0.81 l -0.07,5.38 a 0.63,0.63 0 0 0 0.95,0.54 c 1.07,-0.64 0.96,-1.94 1.22,-2.79 z m -12.78,28.98 a 0.81,0.81 0 0 1 -0.15,-1.6 c 5.38,-1.19 11.87,-1.75 16.64,-4.49 q 4.39,-2.52 8.4,-5.5 a 0.63,0.62 -46.4 0 0 -0.02,-1.02 l -7.58,-5.17 a 1.09,1.09 0 0 0 -1.31,0.04 c -2.43,1.9 -4.52,3.61 -7.69,4.29 q -9.87,2.11 -19.71,4.31 c -2.8,0.63 -5.5,2.41 -4.85,5.46 q 1.18,5.54 2.79,10.23 a 4.37,4.36 81.9 0 0 3.92,2.95 q 4.46,0.2 9.02,0.25 c 8.06,0.09 7.35,-9.59 0.54,-9.75 z"
       id="path39" />
  </g>
  <g
     id="g53"
     transform="translate(-20.96646,-11.029892)">
    <path
       fill="#f9a520"
       d="m 124,50.75 q -0.52,-1.15 -1.49,-0.85 -1.33,-10.88 -10.03,-17 c -8.81,-6.2 -14.3,2.62 -11.44,10.6 q 2.33,6.49 7.64,10.65 -0.92,0.05 -0.87,1.87 -8.6,-0.28 -11.43,0.11 -2.28,0.31 -1.71,2.82 l -6.65,-2.22 q 1.8,-10.26 -5.41,-16.74 -3.56,-3.2 -7.36,-3.89 c -7.83,-1.42 -11.82,7.07 -9.7,13.65 q 2.43,7.58 9.18,11.6 -3.01,0.59 -6.48,2.46 c -7.23,3.87 -3.94,13.71 0.43,18.79 Q 72.46,87 82.45,91.68 61.93,90.59 50.65,73.61 48.9,70.99 48.77,67.88 48.75,67.35 48.48,66.9 q -1.04,-1.79 -0.71,-3.93 0.09,-0.63 0.72,-0.7 l 0.7,-0.07 a 0.45,0.45 0 0 0 0.23,-0.81 L 48.13,60.4 q -0.49,-0.37 -0.38,-0.97 1.68,-9.76 7.47,-17.73 0.79,-1.1 0.45,-3.58 -1.48,-10.81 -2.57,-20.91 -0.16,-1.52 1.11,-0.67 l 19.71,13.03 q 0.2,0.13 0.33,-0.06 L 74.4,29.28 Q 74.52,29.1 74.38,28.94 73.35,27.8 72.2,26.77 a 0.38,0.38 0 0 1 0.13,-0.64 q 12.2,-4.34 24.24,0.08 a 0.44119157,0.44119157 0 0 0 0.35,-0.81 l -2.61,-1.25 q -0.32,-0.16 -0.06,-0.4 l 10.47,-9.86 a 0.62,0.62 0 0 1 1.04,0.34 q 1.07,5.87 2.74,11.74 c 0.9,3.17 3.5,4.69 5.92,6.59 4.99,3.9 10.44,11.3 9.58,18.19 z"
       id="path40" />
    <path
       fill="#6c502e"
       d="m 122.51,49.9 q -3.84,10.63 -13.83,4.25 -5.31,-4.16 -7.64,-10.65 c -2.86,-7.98 2.63,-16.8 11.44,-10.6 q 8.7,6.12 10.03,17 z m -4.3172,4.6809 a 12.75,7.71 56.9 0 0 -0.504,-14.8913 12.75,7.71 56.9 0 0 -13.4216,-6.4705 12.75,7.71 56.9 0 0 0.504,14.8913 12.75,7.71 56.9 0 0 13.4216,6.4705 z"
       id="path41" />
    <path
       fill="#6c502e"
       d="m 88.02,56.73 q -4.2,7.68 -13.29,4.62 -6.75,-4.02 -9.18,-11.6 c -2.12,-6.58 1.87,-15.07 9.7,-13.65 q 3.8,0.69 7.36,3.89 7.21,6.48 5.41,16.74 z m -4.3268,3.3355 a 12.85,9.25 57.4 0 0 0.8695,-15.8091 12.85,9.25 57.4 0 0 -14.7159,-5.8419 12.85,9.25 57.4 0 0 -0.8695,15.8091 12.85,9.25 57.4 0 0 14.7159,5.8419 z"
       id="path42" />
    <path
       fill="#ffffff"
       d="m 122.51,49.9 q 0.97,-0.3 1.49,0.85 c 0.21,1.9 1.13,2.88 3,3.59 q 3.7,1.41 6.73,4.12 a 0.59,0.59 0 0 1 -0.14,0.97 l -1.93,0.92 a 0.42,0.41 69 0 0 -0.21,0.49 l 0.1,0.32 q 0.11,0.34 0.45,0.22 l 2.49,-0.89 a 0.71,0.71 0 0 1 0.88,0.34 q 1.92,3.75 1.22,7.95 a 0.5,0.49 -79.1 0 1 -0.58,0.4 l -3.22,-0.66 a 0.44,0.44 0 0 0 -0.52,0.46 q 0.02,0.17 0.02,0.33 a 0.4,0.39 -83.7 0 0 0.3,0.39 l 2.92,0.72 a 0.75,0.75 0 0 1 0.51,1.04 C 132.83,78.6 128.25,83 120.92,86.44 Q 102.64,95.01 82.45,91.68 72.46,87 68.68,82.6 C 64.31,77.52 61.02,67.68 68.25,63.81 q 3.47,-1.87 6.48,-2.46 9.09,3.06 13.29,-4.62 l 6.65,2.22 c 1.85,1.99 8.2,7.39 11.17,4.05 1.44,-1.63 3.94,-5.15 1.97,-6.98 q -0.05,-1.82 0.87,-1.87 9.99,6.38 13.83,-4.25 z m -39.7,17.29 q -1.58,5.05 -0.38,9.23 c 1.97,6.89 10.63,10.36 17.27,9.89 7.32,-0.52 14.27,-5.47 18.87,-11.21 a 0.73,0.73 0 0 0 -0.49,-1.18 Q 100.9,71.89 84.5,66.32 a 1.33,1.32 -72.1 0 0 -1.69,0.87 z"
       id="path43" />
    <path
       fill="#4e4038"
       d="m 107.81,56.02 c 1.97,1.83 -0.53,5.35 -1.97,6.98 -2.97,3.34 -9.32,-2.06 -11.17,-4.05 q -0.57,-2.51 1.71,-2.82 2.83,-0.39 11.43,-0.11 z"
       id="path44" />
    <path
       fill="#ffffff"
       d="m 36.51,102.17 q -4.3,-1.29 -6.79,-0.61 -3.29,0.9 -3.38,6.53 C 22.05,102.78 20,93.2 24.67,87.91 27,85.26 29.32,87.08 30.43,89.52 q 2.68,5.88 6.08,12.65 z"
       id="path45" />
    <path
       fill="#f9a520"
       d="m 92.96,102.76 c 0.6,-2.76 1.39,-4.04 0.41,-6.96 A 0.61,0.61 0 0 1 94.03,95 l 7.54,0.93 a 1.14,1.08 33.2 0 0 0.6,-0.11 q 9.25,-4.6 19.16,-7.64 0.47,-0.15 0.78,0.24 c 2.42,3 1.07,5.58 -2.01,7.32 q -6.61,3.75 -13.32,7.27 -3.2,1.68 -5.27,1.44 -4.03,-0.47 -8.04,-0.97 a 0.6,0.6 0 0 1 -0.51,-0.72 z"
       id="path46" />
    <path
       fill="#f9a520"
       d="M 90.44,105.46 C 85.56,99.32 77.12,97.15 72.62,105.4 a 1.01,1 -47.4 0 0 0.04,1.05 l 3.1,4.73 q 1.5,4.16 7.27,6.17 c 3.28,2.34 8.52,4.28 10.47,7.97 q 2.65,5.03 5.28,9.86 a 1.98,1.97 -24.2 0 0 2.42,0.91 c 3.64,-1.34 12.25,-5.3 15.55,-3.92 4.73,1.99 3.33,7.63 -1.28,9.26 q -13.13,4.65 -16.72,5.83 -3.84,1.27 -5.89,-2.35 -3.86,-6.8 -6.99,-12.94 a 7.62,7.55 2.4 0 0 -2.85,-3.07 q -6.97,-4.2 -14.22,-8.27 -4.27,-2.4 -6.09,-4.4 c -3.63,-4.02 -4.72,-9.29 -0.93,-13.8 a 0.88,0.88 0 0 1 0.77,-0.31 c 3.73,0.43 8.62,0.1 10.63,-3.46 q 1.65,-2.92 -0.87,-5.99 a 0.52,0.52 0 0 1 0.51,-0.84 q 8.43,1.85 16.17,2.24 c 6.08,0.3 3.28,8.52 1.45,11.39 z"
       id="path47" />
    <path
       fill="#f9a520"
       d="m 54.97,102.58 c -0.3,2.86 0.53,9.99 -1.19,12.17 -1.72,2.19 -4.67,2.09 -6.41,0.09 q -1.09,-1.26 -1.05,-3.78 0.12,-6.76 0.38,-13.47 a 4.39,4.39 0 0 1 4.1,-4.21 q 7.65,-0.5 15.56,-1.06 c 2.5,-0.17 3.44,-0.71 5.1,1.67 2.65,3.78 -0.82,6.31 -4.25,6.58 q -5.34,0.41 -10.55,0.46 a 1.73,1.72 -87.4 0 0 -1.69,1.55 z"
       id="path48" />
    <path
       fill="#ffffff"
       d="m 90.44,105.46 q -2.01,6.43 -7.63,11.51 -2.9,-3.37 -7.05,-5.79 l -3.1,-4.73 a 1.01,1 -47.4 0 1 -0.04,-1.05 c 4.5,-8.25 12.94,-6.08 17.82,0.06 z"
       id="path49" />
    <path
       fill="#f9a520"
       d="m 36.51,102.17 q 2.77,4.2 7.78,7.03 0.42,0.23 0.52,0.7 c 0.26,1.18 0,2.48 0.36,3.49 q 0.97,2.75 3.45,3.83 2.34,1.02 4.57,-0.38 2.84,-1.78 2.95,-5.39 a 1.12,1.11 -58.6 0 1 2.09,-0.51 l 2.45,4.44 a 1.09,1.09 0 0 1 -0.71,1.59 q -15.35,3.4 -28.48,-4.12 -3.14,-1.8 -5.15,-4.76 0.09,-5.63 3.38,-6.53 2.49,-0.68 6.79,0.61 z"
       id="path50" />
    <path
       fill="#4e4038"
       d="m 75.76,111.18 q 4.15,2.42 7.05,5.79 0.31,-0.56 0.22,0.38 -5.77,-2.01 -7.27,-6.17 z"
       id="path52" />
    <path
       fill="#f9a520"
       d="m 45.55,135.68 c 6.81,0.16 7.52,9.84 -0.54,9.75 q -4.56,-0.05 -9.02,-0.25 a 4.37,4.36 81.9 0 1 -3.92,-2.95 Q 30.46,137.54 29.28,132 c -0.65,-3.05 2.05,-4.83 4.85,-5.46 q 9.84,-2.2 19.71,-4.31 c 3.17,-0.68 5.26,-2.39 7.69,-4.29 a 1.09,1.09 0 0 1 1.31,-0.04 l 7.58,5.17 a 0.63,0.62 -46.4 0 1 0.02,1.02 q -4.01,2.98 -8.4,5.5 c -4.77,2.74 -11.26,3.3 -16.64,4.49 a 0.81,0.81 0 0 0 0.15,1.6 z"
       id="path53" />
  </g>
  <g
     id="g56"
     transform="translate(-20.96646,-11.029892)">
    <path
       fill="#ffffff"
       d="m 118.1928,54.5809 a 12.75,7.71 56.9 0 1 -13.4216,-6.4705 12.75,7.71 56.9 0 1 -0.504,-14.8913 12.75,7.71 56.9 0 1 13.4216,6.4705 12.75,7.71 56.9 0 1 0.504,14.8913 z M 117.3,49.14 a 2.62,2.62 0 0 0 -2.62,-2.62 2.62,2.62 0 0 0 -2.62,2.62 2.62,2.62 0 0 0 2.62,2.62 2.62,2.62 0 0 0 2.62,-2.62 z"
       id="path54" />
    <path
       fill="#ffffff"
       d="M 83.6932,60.0655 A 12.85,9.25 57.4 0 1 68.9773,54.2236 12.85,9.25 57.4 0 1 69.8468,38.4145 12.85,9.25 57.4 0 1 84.5627,44.2564 12.85,9.25 57.4 0 1 83.6932,60.0655 Z M 82.7,51.96 a 2.59,2.59 0 0 0 -2.59,-2.59 2.59,2.59 0 0 0 -2.59,2.59 2.59,2.59 0 0 0 2.59,2.59 2.59,2.59 0 0 0 2.59,-2.59 z"
       id="path55" />
    <path
       fill="#4e4038"
       d="m 82.81,67.19 a 1.33,1.32 -72.1 0 1 1.69,-0.87 q 16.4,5.57 33.58,7.6 a 0.73,0.73 0 0 1 0.49,1.18 c -4.6,5.74 -11.55,10.69 -18.87,11.21 -6.64,0.47 -15.3,-3 -17.27,-9.89 q -1.2,-4.18 0.38,-9.23 z m 33.12,7.65 c -11,-0.93 -20.56,-4.13 -31.33,-7.01 a 0.62,0.62 0 0 0 -0.75,0.41 c -3.82,12.11 8.45,18.43 18.44,16.35 5.34,-1.11 10.08,-4.74 14.04,-8.64 q 1.01,-0.99 -0.4,-1.11 z"
       id="path56" />
  </g>
  <g
     id="g57"
     transform="translate(-20.96646,-11.029892)">
    <circle
       fill="#1d1714"
       cx="114.68"
       cy="49.139999"
       r="2.6199999"
       id="circle56" />
    <circle
       fill="#1d1714"
       cx="80.110001"
       cy="51.959999"
       r="2.5899999"
       id="circle57" />
    <path
       fill="#ffffff"
       d="m 84.6,67.83 c 10.77,2.88 20.33,6.08 31.33,7.01 q 1.41,0.12 0.4,1.11 c -3.96,3.9 -8.7,7.53 -14.04,8.64 C 92.3,86.67 80.03,80.35 83.85,68.24 a 0.62,0.62 0 0 1 0.75,-0.41 z"
       id="path57" />
  </g>
</svg>
