<?xml version="1.0" encoding="UTF-8" standalone="no"?>
<svg
   version="1.1"
   viewBox="0 0 124.20019 137.19421"
   id="svg60"
   sodipodi:docname="2.svg"
   width="124.20019"
   height="137.19421"
   inkscape:export-filename="2.svg"
   inkscape:export-xdpi="96"
   inkscape:export-ydpi="96"
   inkscape:version="1.3 (0e150ed6c4, 2023-07-21)"
   xmlns:inkscape="http://www.inkscape.org/namespaces/inkscape"
   xmlns:sodipodi="http://sodipodi.sourceforge.net/DTD/sodipodi-0.dtd"
   xmlns="http://www.w3.org/2000/svg"
   xmlns:svg="http://www.w3.org/2000/svg">
  <defs
     id="defs60" />
  <sodipodi:namedview
     id="namedview60"
     pagecolor="#c84545"
     bordercolor="#000000"
     borderopacity="0.25"
     inkscape:showpageshadow="2"
     inkscape:pageopacity="0.0"
     inkscape:pagecheckerboard="0"
     inkscape:deskcolor="#d1d1d1"
     inkscape:zoom="4.8867925"
     inkscape:cx="69.063707"
     inkscape:cy="75.611969"
     inkscape:window-width="1920"
     inkscape:window-height="991"
     inkscape:window-x="-9"
     inkscape:window-y="-9"
     inkscape:window-maximized="1"
     inkscape:current-layer="svg60" />
  <g
     stroke-width="2"
     fill="none"
     stroke-linecap="butt"
     id="g37"
     transform="translate(-11.549523,-15.037872)">
    <path
       stroke="#9d978e"
       vector-effect="non-scaling-stroke"
       d="M 70.59,95.78 Q 79.14,97.61 83,97.1 c 16.21,-2.14 32.59,-4.64 40.93,-21.09 q 0.55,-1.09 -0.62,-1.42 l -3.17,-0.91 a 0.49135018,0.49135018 0 0 1 0.21,-0.96 l 3.58,0.62 a 0.58,0.57 9.1 0 0 0.66,-0.47 q 0.72,-4.23 -1.38,-7.92 a 0.76,0.76 0 0 0 -0.92,-0.33 l -2.4,0.89 a 0.55,0.54 20.7 0 1 -0.45,-0.99 l 1.96,-1.04 a 0.66,0.66 0 0 0 0.11,-1.1 q -3.1,-2.51 -6.77,-4.02 c -1.77,-0.74 -2.6,-1.86 -2.93,-3.61"
       id="path5" />
    <path
       stroke="#9a6a1f"
       vector-effect="non-scaling-stroke"
       d="m 111.81,54.75 c 1.06,-5.16 -3.59,-12.51 -6.7,-15.87 q -1.99,-2.15 -7.85,-6.26 a 1.01,1.01 0 0 1 -0.41,-0.6 L 93.51,18.11 a 0.47,0.46 -28.1 0 0 -0.77,-0.23 l -10.57,9.95 q -0.42,0.4 0.15,0.53 0.57,0.12 1.44,0.33 0.99,0.23 0.94,1.13 -0.02,0.5 -0.5,0.33 Q 72.32,25.93 60.31,30.1 a 0.6,0.59 -42 0 0 -0.06,1.1 q 1.6,0.75 1.55,1.63 -0.05,0.85 -0.76,0.38 L 41.68,20.31 a 0.48,0.48 0 0 0 -0.75,0.45 q 1.13,11.15 2.32,22.51 0.2,1.88 -0.26,2.52 -5.82,8.11 -7.44,18.01 -0.1,0.61 0.41,0.96 l 0.95,0.67 q 0.46,0.31 -0.05,0.53 c -2.81,1.16 -0.45,4.71 -0.15,6.86 q 0.53,3.79 3.11,7.13 c 7.23,9.39 18.68,16.37 30.77,15.83"
       id="path6" />
    <path
       stroke="#fcd290"
       vector-effect="non-scaling-stroke"
       d="m 111.81,54.75 q -0.62,-0.52 -1.4,-0.48"
       id="path7" />
    <path
       stroke="#b17a27"
       vector-effect="non-scaling-stroke"
       d="M 110.41,54.27 Q 108.94,43.08 100.03,36.74 c -3.96,-2.81 -8.99,-2.52 -11.01,2.17 -2.84,6.6 2.27,15.03 7.45,19.28"
       id="path8" />
    <path
       stroke="#fcd290"
       vector-effect="non-scaling-stroke"
       d="m 96.47,58.19 q -1.18,0.9 -0.81,1.96"
       id="path9" />
    <path
       stroke="#9a6a1f"
       vector-effect="non-scaling-stroke"
       d="M 95.66,60.15 Q 90.47,60.04 85.25,60.02 82.27,60.01 82.54,62.89"
       id="path10" />
    <path
       stroke="#fcd290"
       vector-effect="non-scaling-stroke"
       d="M 82.54,62.89 Q 79,62.84 76.07,60.51"
       id="path11" />
    <path
       stroke="#b17a27"
       vector-effect="non-scaling-stroke"
       d="M 76.07,60.51 Q 77.55,48.43 67.99,42.24 c -9.36,-6.06 -17.67,1.8 -14.51,11.63 1.72,5.34 4.47,7.55 8.22,11.41"
       id="path12" />
    <path
       stroke="#fcd290"
       vector-effect="non-scaling-stroke"
       d="m 61.7,65.28 c -3,1.56 -7.27,2.69 -8.91,5.85 -2.98,5.72 1.63,14.27 6.04,17.8 q 4.59,3.68 11.76,6.85"
       id="path13" />
    <path
       stroke="#b4a796"
       vector-effect="non-scaling-stroke"
       d="m 76.07,60.51 c -2.47,4.75 -6.09,6.64 -11.08,5.47 q -1.73,-0.41 -3.29,-0.7"
       id="path14" />
    <path
       stroke="#b4a796"
       vector-effect="non-scaling-stroke"
       d="m 110.41,54.27 q -0.78,1.49 -1.61,2.99 c -2.79,5.04 -8.45,3.48 -12.33,0.93"
       id="path15" />
    <path
       stroke="#9d978e"
       vector-effect="non-scaling-stroke"
       d="m 82.54,62.89 c 1.95,2.23 8.31,7.4 11.07,4.49 1.34,-1.4 3.85,-5.13 2.05,-7.23"
       id="path16" />
    <path
       stroke="#9a6a1f"
       vector-effect="non-scaling-stroke"
       d="m 14.94,105.52 q 2.58,5.79 9.13,9.78 a 0.47,0.46 10.2 0 0 0.7,-0.48 c -0.74,-3.88 1.67,-5.43 3.4,-8.39 a 0.97,0.95 46.8 0 0 0.02,-0.9 l -2.06,-3.97"
       id="path17" />
    <path
       stroke="#9d978e"
       vector-effect="non-scaling-stroke"
       d="M 26.13,101.56 Q 24.25,94.47 22.9,87.95 22.52,86.08 20.69,84.92 20.28,84.65 19.8,84.71 q -2.2,0.25 -3.32,1.61 -6.47,7.89 -1.54,19.2"
       id="path18" />
    <path
       stroke="#fcd290"
       vector-effect="non-scaling-stroke"
       d="m 26.13,101.56 q -1.13,-0.07 -4.38,-1.42 -4.61,-1.91 -6.81,5.38"
       id="path19" />
    <path
       stroke="#9a6a1f"
       vector-effect="non-scaling-stroke"
       d="m 99.23,96.5 c -6.39,3.09 -8.76,7.59 -16.53,2.95 a 0.81,0.81 0 0 0 -1.21,0.8 q 0.5,3.71 -0.79,7.2 a 0.54,0.54 0 0 0 0.36,0.7 q 4.04,1.24 8.24,1.95 c 4.17,0.71 12.46,-5.23 16.17,-7.34 q 4.24,-2.4 1.76,-6.44 c -1.91,-3.1 -5.23,-1.17 -8,0.18"
       id="path20" />
    <path
       stroke="#9d978e"
       vector-effect="non-scaling-stroke"
       d="m 70.88,121.16 q 5.34,-5.12 7.67,-11.56"
       id="path21" />
    <path
       stroke="#9a6a1f"
       vector-effect="non-scaling-stroke"
       d="m 78.55,109.6 q 2.74,-4.45 1.76,-9.48 A 1.16,1.15 11.8 0 0 79.82,99.38 Q 78.2,98.27 77.26,98.23 69.01,97.88 60.72,95.93 a 0.53,0.53 0 0 0 -0.57,0.79 q 3.29,5.23 -1.02,8.26 c -2.47,1.72 -6.53,1.17 -9.62,1.78 a 1.08,1.08 0 0 0 -0.76,0.57 q -3.81,7.39 1.88,13.31 2.75,2.87 3.85,3.36 6.8,3.02 13.87,7.05 a 0.91,0.9 22.6 0 1 0.43,1.03 q -1.51,5.57 -3.32,11.34 c -1.72,5.49 1.41,7.25 6.35,7.29 q 7.69,0.07 15.39,0.01 c 8.05,-0.05 7.85,-9.88 0.8,-9.8 q -5.34,0.07 -9.34,0.05 -2.64,-0.02 -1.65,-2.45 c 1.16,-2.86 3.21,-7.82 2.82,-10.71 -0.39,-2.83 -6.45,-5.32 -8.95,-6.65"
       id="path22" />
    <path
       stroke="#fcd290"
       vector-effect="non-scaling-stroke"
       d="m 78.55,109.6 c -4.91,-4.57 -11.25,-8.38 -16.84,-2.17 -2.48,2.77 -0.08,5.77 2.09,8.21"
       id="path23" />
    <path
       stroke="#b17a27"
       vector-effect="non-scaling-stroke"
       d="m 63.8,115.64 q 0.84,3.26 5.43,4.52"
       id="path24" />
    <path
       stroke="#fcd290"
       vector-effect="non-scaling-stroke"
       d="m 69.23,120.16 q 0.76,1.43 1.65,1"
       id="path25" />
    <path
       stroke="#b4a796"
       vector-effect="non-scaling-stroke"
       d="m 69.23,120.16 q -1.82,-3.12 -5.43,-4.52"
       id="path26" />
    <path
       stroke="#9a6a1f"
       vector-effect="non-scaling-stroke"
       d="m 31.54,117.55 c 3.73,-3.02 5.86,-7.6 9.53,-11.48 a 1.38,1.38 0 0 1 0.85,-0.41 q 4.17,-0.33 13.59,-0.74 c 4.98,-0.22 6.2,-5.25 2.46,-8.33 q -0.42,-0.34 -0.95,-0.31 l -18.84,1.39 a 3.8,3.77 15.4 0 0 -2.82,1.59 q -4.01,5.63 -8.25,10.86 -1.25,1.55 -1.31,4.27 -0.01,0.53 0.35,0.93 1.83,2.04 4.56,2.45 a 1.09,1.07 -59.4 0 0 0.83,-0.22"
       id="path27" />
    <path
       stroke="#9a6a1f"
       vector-effect="non-scaling-stroke"
       d="m 32.39,119.59 c 4.72,1.48 11.19,2.55 15.68,0.91 a 0.62,0.62 0 0 0 0.34,-0.86 l -2.19,-4.36 Q 46,114.84 45.51,114.8 l -5.97,-0.51 q -0.6,-0.05 -1.09,-0.37 -1.25,-0.82 -2.11,0.42 -1.77,2.56 -4.11,4.17 a 0.61,0.61 0 0 0 0.16,1.08"
       id="path30" />
    <path
       stroke="#9a6a1f"
       vector-effect="non-scaling-stroke"
       d="m 42.97,135.72 a 0.41,0.41 0 0 1 0.31,-0.66 c 3.41,-0.05 11.03,0.47 13.63,-1.32 q 2.47,-1.7 1.93,-5.58 -0.06,-0.48 -0.46,-0.75 l -6.85,-4.55 q -0.37,-0.25 -0.6,-0.64 -0.62,-1.06 -1.85,-1.15 a 0.62,0.62 0 0 0 -0.65,0.65 l 0.12,2.03 a 1.19,1.19 0 0 1 -1.16,1.26 q -8.24,0.2 -16.18,0.59 c -5.85,0.29 -8.2,4.13 -4.22,9.01 2.27,2.78 10.93,12.18 14.79,10.67 5.04,-1.98 4.05,-6.01 1.19,-9.56"
       id="path31" />
    <path
       stroke="#b4a796"
       vector-effect="non-scaling-stroke"
       d="m 106.0768,58.7434 a 12.81,7.7 57 0 0 -0.519,-14.9371 12.81,7.7 57 0 0 -13.4346,-6.5497 12.81,7.7 57 0 0 0.519,14.9371 12.81,7.7 57 0 0 13.4346,6.5497"
       id="path32" />
    <path
       stroke="#9d978e"
       vector-effect="non-scaling-stroke"
       d="m 105.25,53.28 a 2.69,2.69 0 0 0 -2.69,-2.69 2.69,2.69 0 0 0 -2.69,2.69 2.69,2.69 0 0 0 2.69,2.69 2.69,2.69 0 0 0 2.69,-2.69"
       id="path33" />
    <path
       stroke="#b4a796"
       vector-effect="non-scaling-stroke"
       d="M 71.5011,64.1932 A 12.84,9.28 57.7 0 0 72.484,48.3812 12.84,9.28 57.7 0 0 57.7789,42.4868 12.84,9.28 57.7 0 0 56.796,58.2988 12.84,9.28 57.7 0 0 71.5011,64.1932"
       id="path34" />
    <path
       stroke="#9d978e"
       vector-effect="non-scaling-stroke"
       d="m 70.61,56.1 a 2.65,2.65 0 0 0 -2.65,-2.65 2.65,2.65 0 0 0 -2.65,2.65 2.65,2.65 0 0 0 2.65,2.65 2.65,2.65 0 0 0 2.65,-2.65"
       id="path35" />
    <path
       stroke="#9d978e"
       vector-effect="non-scaling-stroke"
       d="m 106.3,79.42 q 1,-1.15 -0.52,-1.32 -16.97,-1.91 -33.11,-7.53 -1.6,-0.56 -2.09,1.07 c -1.83,6.14 -0.78,11.46 4.65,15.3 11.33,8 23.09,1.64 31.07,-7.52"
       id="path36" />
    <path
       stroke="#9d978e"
       vector-effect="non-scaling-stroke"
       d="m 87.56,89.25 c 6.72,-0.5 11.95,-4.32 16.64,-9.18 q 0.78,-0.81 -0.34,-0.95 Q 87.93,77.18 72.8,71.89 a 0.81,0.81 0 0 0 -1.04,0.5 c -3.72,10.84 6.36,17.56 15.8,16.86"
       id="path37" />
  </g>
  <g
     id="g40"
     transform="translate(-11.549523,-15.037872)">
    <path
       fill="#3b2e1d"
       d="m 56.48,94.81 a 0.31,0.31 0 0 0 0.09,-0.6 Q 41.42,88.45 35.09,73.49 34.89,73.03 34.38,73.04 28.86,73.1 23.25,73.28 22.04,73.32 21.44,72.6 a 0.59,0.59 0 0 1 0.52,-0.97 q 6.03,0.7 12.06,-0.04 0.63,-0.08 0.59,-0.71 l -0.37,-5.69 a 0.76,0.75 -80.6 0 0 -0.46,-0.65 l -13.62,-5.9 q -0.1,-0.04 -0.09,-0.15 l 0.03,-0.27 q 0.06,-0.48 0.53,-0.36 6.83,1.66 12.82,5.33 a 0.67,0.67 0 0 0 1.01,-0.48 Q 35.9,52.99 41.74,45.09 A 1.38,1.36 60.6 0 0 42,44.12 L 39.15,18.23 q -0.13,-1.21 0.89,-0.55 l 17.75,11.43 q 0.37,0.23 0.78,0.08 9.8,-3.54 20.16,-2.14 a 1.78,1.73 36.5 0 0 0.9,-0.12 c 5.33,-2.27 9.6,-7.89 13.88,-11.78 a 0.44,0.44 0 0 1 0.72,0.22 q 1.64,6.26 2.99,12.34 c 1,4.48 2.73,5.27 6.07,8 q 9.55,7.82 10.95,19.97 a 1.49,1.49 0 0 0 0.95,1.21 q 4.92,1.85 8.37,5.81 a 1.05,1.03 64 0 0 0.96,0.34 q 5.72,-0.98 10.43,-4.35 a 0.5,0.5 0 0 1 0.77,0.57 q -0.16,0.5 -0.8,0.91 -4.47,2.94 -9.69,4.23 a 0.49,0.48 -20.5 0 0 -0.32,0.68 q 1.92,3.87 1.08,8.15 a 0.58,0.58 0 0 0 0.46,0.68 c 1,0.2 7.71,0.44 7.92,0.61 q 0.26,0.22 0.29,0.53 0.05,0.57 -0.53,0.56 l -7.93,-0.15 q -0.5,-0.01 -0.7,0.45 -5.48,12.41 -18.27,17.05 a 0.67,0.66 -35.5 0 0 -0.2,1.15 c 5.43,4.36 2.13,8.3 -2.52,10.92 q -4.56,2.56 -9.11,5.09 c -2.51,1.4 -3.57,2.06 -6.6,1.4 q -4.07,-0.89 -7.86,-2.03 a 0.94,0.94 0 0 0 -1.17,0.59 q -2.08,5.73 -6.21,10.24 a 0.51,0.51 0 0 0 0.11,0.78 c 4.36,2.62 8.89,3.53 7.19,9.88 q -1.08,4.04 -2.32,7.72 a 0.61,0.6 -82 0 0 0.6,0.8 c 4.96,-0.24 16.07,-1.62 15.42,6.74 q -0.44,5.65 -6.56,5.73 -8.62,0.11 -17.24,0.26 c -11.88,0.2 -5.33,-14.01 -3.59,-19.49 a 0.82,0.82 0 0 0 -0.38,-0.97 l -5.65,-3.16 a 0.48,0.47 16.5 0 0 -0.71,0.38 c -0.52,8.94 -7.94,6.93 -14.18,7.35 q -0.58,0.03 -0.36,0.57 c 1.58,3.91 0.85,8.1 -3.46,9.55 -3.33,1.12 -5.63,-0.75 -8.09,-2.81 -3.75,-3.16 -10.86,-8.7 -10.74,-13.64 0.09,-4.21 3.48,-5.76 7.43,-5.93 q 7.5,-0.32 15,-0.44 0.65,-0.01 0.88,-0.27 0.21,-0.25 0.1,-0.63 -0.14,-0.48 -0.63,-0.44 -10.67,0.92 -19.69,-3.94 c -7.12,-3.84 -13.3,-9.61 -14.76,-17.59 q -1.67,-9.14 3.99,-15.56 2.06,-2.33 4.59,-1.68 c 4.29,1.11 4.58,9.1 5.46,12.34 q 1.18,4.32 2.56,8.34 a 0.71,0.71 0 0 0 1.24,0.19 c 3.08,-4.23 4.25,-7.74 10.11,-8.28 q 8.37,-0.78 16.6,-1.31 z m 14.11,0.97 Q 79.14,97.61 83,97.1 c 16.21,-2.14 32.59,-4.64 40.93,-21.09 q 0.55,-1.09 -0.62,-1.42 l -3.17,-0.91 a 0.49135018,0.49135018 0 0 1 0.21,-0.96 l 3.58,0.62 a 0.58,0.57 9.1 0 0 0.66,-0.47 q 0.72,-4.23 -1.38,-7.92 a 0.76,0.76 0 0 0 -0.92,-0.33 l -2.4,0.89 a 0.55,0.54 20.7 0 1 -0.45,-0.99 l 1.96,-1.04 a 0.66,0.66 0 0 0 0.11,-1.1 q -3.1,-2.51 -6.77,-4.02 c -1.77,-0.74 -2.6,-1.86 -2.93,-3.61 1.06,-5.16 -3.59,-12.51 -6.7,-15.87 q -1.99,-2.15 -7.85,-6.26 a 1.01,1.01 0 0 1 -0.41,-0.6 L 93.51,18.11 a 0.47,0.46 -28.1 0 0 -0.77,-0.23 l -10.57,9.95 q -0.42,0.4 0.15,0.53 0.57,0.12 1.44,0.33 0.99,0.23 0.94,1.13 -0.02,0.5 -0.5,0.33 Q 72.32,25.93 60.31,30.1 a 0.6,0.59 -42 0 0 -0.06,1.1 q 1.6,0.75 1.55,1.63 -0.05,0.85 -0.76,0.38 L 41.68,20.31 a 0.48,0.48 0 0 0 -0.75,0.45 q 1.13,11.15 2.32,22.51 0.2,1.88 -0.26,2.52 -5.82,8.11 -7.44,18.01 -0.1,0.61 0.41,0.96 l 0.95,0.67 q 0.46,0.31 -0.05,0.53 c -2.81,1.16 -0.45,4.71 -0.15,6.86 q 0.53,3.79 3.11,7.13 c 7.23,9.39 18.68,16.37 30.77,15.83 z m -55.65,9.74 q 2.58,5.79 9.13,9.78 a 0.47,0.46 10.2 0 0 0.7,-0.48 c -0.74,-3.88 1.67,-5.43 3.4,-8.39 a 0.97,0.95 46.8 0 0 0.02,-0.9 l -2.06,-3.97 Q 24.25,94.47 22.9,87.95 22.52,86.08 20.69,84.92 20.28,84.65 19.8,84.71 q -2.2,0.25 -3.32,1.61 -6.47,7.89 -1.54,19.2 z M 99.23,96.5 c -6.39,3.09 -8.76,7.59 -16.53,2.95 a 0.81,0.81 0 0 0 -1.21,0.8 q 0.5,3.71 -0.79,7.2 a 0.54,0.54 0 0 0 0.36,0.7 q 4.04,1.24 8.24,1.95 c 4.17,0.71 12.46,-5.23 16.17,-7.34 q 4.24,-2.4 1.76,-6.44 c -1.91,-3.1 -5.23,-1.17 -8,0.18 z m -28.35,24.66 q 5.34,-5.12 7.67,-11.56 2.74,-4.45 1.76,-9.48 A 1.16,1.15 11.8 0 0 79.82,99.38 Q 78.2,98.27 77.26,98.23 69.01,97.88 60.72,95.93 a 0.53,0.53 0 0 0 -0.57,0.79 q 3.29,5.23 -1.02,8.26 c -2.47,1.72 -6.53,1.17 -9.62,1.78 a 1.08,1.08 0 0 0 -0.76,0.57 q -3.81,7.39 1.88,13.31 2.75,2.87 3.85,3.36 6.8,3.02 13.87,7.05 a 0.91,0.9 22.6 0 1 0.43,1.03 q -1.51,5.57 -3.32,11.34 c -1.72,5.49 1.41,7.25 6.35,7.29 q 7.69,0.07 15.39,0.01 c 8.05,-0.05 7.85,-9.88 0.8,-9.8 q -5.34,0.07 -9.34,0.05 -2.64,-0.02 -1.65,-2.45 c 1.16,-2.86 3.21,-7.82 2.82,-10.71 -0.39,-2.83 -6.45,-5.32 -8.95,-6.65 z m -39.34,-3.61 c 3.73,-3.02 5.86,-7.6 9.53,-11.48 a 1.38,1.38 0 0 1 0.85,-0.41 q 4.17,-0.33 13.59,-0.74 c 4.98,-0.22 6.2,-5.25 2.46,-8.33 q -0.42,-0.34 -0.95,-0.31 l -18.84,1.39 a 3.8,3.77 15.4 0 0 -2.82,1.59 q -4.01,5.63 -8.25,10.86 -1.25,1.55 -1.31,4.27 -0.01,0.53 0.35,0.93 1.83,2.04 4.56,2.45 a 1.09,1.07 -59.4 0 0 0.83,-0.22 z M 94.99,96.73 84.72,98.28 a 0.36,0.35 51.9 0 0 -0.08,0.68 q 5.93,2.53 10.59,-1.74 0.68,-0.63 -0.24,-0.49 z m -53.2,10.52 a 0.35,0.35 0 0 0 -0.24,0.13 l -3.7,4.84 a 0.35,0.35 0 0 0 0.24,0.56 l 6.95,0.79 a 0.35,0.35 0 0 0 0.38,-0.26 l 1.67,-6.05 a 0.35,0.35 0 0 0 -0.37,-0.44 z m -9.4,12.34 c 4.72,1.48 11.19,2.55 15.68,0.91 a 0.62,0.62 0 0 0 0.34,-0.86 l -2.19,-4.36 Q 46,114.84 45.51,114.8 l -5.97,-0.51 q -0.6,-0.05 -1.09,-0.37 -1.25,-0.82 -2.11,0.42 -1.77,2.56 -4.11,4.17 a 0.61,0.61 0 0 0 0.16,1.08 z m 10.58,16.13 a 0.41,0.41 0 0 1 0.31,-0.66 c 3.41,-0.05 11.03,0.47 13.63,-1.32 q 2.47,-1.7 1.93,-5.58 -0.06,-0.48 -0.46,-0.75 l -6.85,-4.55 q -0.37,-0.25 -0.6,-0.64 -0.62,-1.06 -1.85,-1.15 a 0.62,0.62 0 0 0 -0.65,0.65 l 0.12,2.03 a 1.19,1.19 0 0 1 -1.16,1.26 q -8.24,0.2 -16.18,0.59 c -5.85,0.29 -8.2,4.13 -4.22,9.01 2.27,2.78 10.93,12.18 14.79,10.67 5.04,-1.98 4.05,-6.01 1.19,-9.56 z"
       id="path40" />
  </g>
  <g
     id="g56"
     transform="translate(-11.549523,-15.037872)">
    <path
       fill="#f9a520"
       d="m 111.81,54.75 q -0.62,-0.52 -1.4,-0.48 -1.47,-11.19 -10.38,-17.53 c -3.96,-2.81 -8.99,-2.52 -11.01,2.17 -2.84,6.6 2.27,15.03 7.45,19.28 q -1.18,0.9 -0.81,1.96 Q 90.47,60.04 85.25,60.02 82.27,60.01 82.54,62.89 79,62.84 76.07,60.51 77.55,48.43 67.99,42.24 c -9.36,-6.06 -17.67,1.8 -14.51,11.63 1.72,5.34 4.47,7.55 8.22,11.41 -3,1.56 -7.27,2.69 -8.91,5.85 -2.98,5.72 1.63,14.27 6.04,17.8 q 4.59,3.68 11.76,6.85 C 58.5,96.32 47.05,89.34 39.82,79.95 q -2.58,-3.34 -3.11,-7.13 c -0.3,-2.15 -2.66,-5.7 0.15,-6.86 q 0.51,-0.22 0.05,-0.53 l -0.95,-0.67 q -0.51,-0.35 -0.41,-0.96 1.62,-9.9 7.44,-18.01 0.46,-0.64 0.26,-2.52 -1.19,-11.36 -2.32,-22.51 a 0.48,0.48 0 0 1 0.75,-0.45 l 19.36,12.9 q 0.71,0.47 0.76,-0.38 0.05,-0.88 -1.55,-1.63 a 0.6,0.59 -42 0 1 0.06,-1.1 q 12.01,-4.17 23.89,0.05 0.48,0.17 0.5,-0.33 0.05,-0.9 -0.94,-1.13 -0.87,-0.21 -1.44,-0.33 -0.57,-0.13 -0.15,-0.53 l 10.57,-9.95 a 0.47,0.46 -28.1 0 1 0.77,0.23 l 3.34,13.91 a 1.01,1.01 0 0 0 0.41,0.6 q 5.86,4.11 7.85,6.26 c 3.11,3.36 7.76,10.71 6.7,15.87 z"
       id="path41" />
    <path
       fill="#684f2d"
       d="m 110.41,54.27 q -0.78,1.49 -1.61,2.99 c -2.79,5.04 -8.45,3.48 -12.33,0.93 -5.18,-4.25 -10.29,-12.68 -7.45,-19.28 2.02,-4.69 7.05,-4.98 11.01,-2.17 q 8.91,6.34 10.38,17.53 z m -4.3332,4.4734 a 12.81,7.7 57 0 0 -0.519,-14.9371 12.81,7.7 57 0 0 -13.4346,-6.5497 12.81,7.7 57 0 0 0.519,14.9371 12.81,7.7 57 0 0 13.4346,6.5497 z"
       id="path42" />
    <path
       fill="#684f2d"
       d="m 76.07,60.51 c -2.47,4.75 -6.09,6.64 -11.08,5.47 Q 63.26,65.57 61.7,65.28 C 57.95,61.42 55.2,59.21 53.48,53.87 50.32,44.04 58.63,36.18 67.99,42.24 q 9.56,6.19 8.08,18.27 z m -4.5689,3.6832 a 12.84,9.28 57.7 0 0 0.9829,-15.812 12.84,9.28 57.7 0 0 -14.7051,-5.8944 12.84,9.28 57.7 0 0 -0.9829,15.812 12.84,9.28 57.7 0 0 14.7051,5.8944 z"
       id="path43" />
    <path
       fill="#ffffff"
       d="m 110.41,54.27 q 0.78,-0.04 1.4,0.48 c 0.33,1.75 1.16,2.87 2.93,3.61 q 3.67,1.51 6.77,4.02 a 0.66,0.66 0 0 1 -0.11,1.1 l -1.96,1.04 a 0.55,0.54 20.7 0 0 0.45,0.99 l 2.4,-0.89 a 0.76,0.76 0 0 1 0.92,0.33 q 2.1,3.69 1.38,7.92 a 0.58,0.57 9.1 0 1 -0.66,0.47 l -3.58,-0.62 a 0.49135018,0.49135018 0 0 0 -0.21,0.96 l 3.17,0.91 q 1.17,0.33 0.62,1.42 C 115.59,92.46 99.21,94.96 83,97.1 Q 79.14,97.61 70.59,95.78 63.42,92.61 58.83,88.93 C 54.42,85.4 49.81,76.85 52.79,71.13 54.43,67.97 58.7,66.84 61.7,65.28 q 1.56,0.29 3.29,0.7 c 4.99,1.17 8.61,-0.72 11.08,-5.47 q 2.93,2.33 6.47,2.38 c 1.95,2.23 8.31,7.4 11.07,4.49 1.34,-1.4 3.85,-5.13 2.05,-7.23 q -0.37,-1.06 0.81,-1.96 c 3.88,2.55 9.54,4.11 12.33,-0.93 q 0.83,-1.5 1.61,-2.99 z m -4.11,25.15 q 1,-1.15 -0.52,-1.32 -16.97,-1.91 -33.11,-7.53 -1.6,-0.56 -2.09,1.07 c -1.83,6.14 -0.78,11.46 4.65,15.3 11.33,8 23.09,1.64 31.07,-7.52 z"
       id="path44" />
    <path
       fill="#3b2e1d"
       d="m 95.66,60.15 c 1.8,2.1 -0.71,5.83 -2.05,7.23 -2.76,2.91 -9.12,-2.26 -11.07,-4.49 q -0.27,-2.88 2.71,-2.87 5.22,0.02 10.41,0.13 z"
       id="path45" />
    <path
       fill="#ffffff"
       d="m 26.13,101.56 q -1.13,-0.07 -4.38,-1.42 -4.61,-1.91 -6.81,5.38 -4.93,-11.31 1.54,-19.2 1.12,-1.36 3.32,-1.61 0.48,-0.06 0.89,0.21 1.83,1.16 2.21,3.03 1.35,6.52 3.23,13.61 z"
       id="path46" />
    <path
       fill="#f9a520"
       d="m 82.7,99.45 c 7.77,4.64 10.14,0.14 16.53,-2.95 2.77,-1.35 6.09,-3.28 8,-0.18 q 2.48,4.04 -1.76,6.44 c -3.71,2.11 -12,8.05 -16.17,7.34 q -4.2,-0.71 -8.24,-1.95 a 0.54,0.54 0 0 1 -0.36,-0.7 q 1.29,-3.49 0.79,-7.2 a 0.81,0.81 0 0 1 1.21,-0.8 z"
       id="path47" />
    <path
       fill="#f9a520"
       d="m 78.55,109.6 c -4.91,-4.57 -11.25,-8.38 -16.84,-2.17 -2.48,2.77 -0.08,5.77 2.09,8.21 q 0.84,3.26 5.43,4.52 0.76,1.43 1.65,1 c 2.5,1.33 8.56,3.82 8.95,6.65 0.39,2.89 -1.66,7.85 -2.82,10.71 q -0.99,2.43 1.65,2.45 4,0.02 9.34,-0.05 c 7.05,-0.08 7.25,9.75 -0.8,9.8 q -7.7,0.06 -15.39,-0.01 c -4.94,-0.04 -8.07,-1.8 -6.35,-7.29 q 1.81,-5.77 3.32,-11.34 a 0.91,0.9 22.6 0 0 -0.43,-1.03 q -7.07,-4.03 -13.87,-7.05 -1.1,-0.49 -3.85,-3.36 -5.69,-5.92 -1.88,-13.31 a 1.08,1.08 0 0 1 0.76,-0.57 c 3.09,-0.61 7.15,-0.06 9.62,-1.78 q 4.31,-3.03 1.02,-8.26 a 0.53,0.53 0 0 1 0.57,-0.79 q 8.29,1.95 16.54,2.3 0.94,0.04 2.56,1.15 a 1.16,1.15 11.8 0 1 0.49,0.74 q 0.98,5.03 -1.76,9.48 z"
       id="path48" />
    <path
       fill="#f9a520"
       d="m 41.07,106.07 c -3.67,3.88 -5.8,8.46 -9.53,11.48 a 1.09,1.07 -59.4 0 1 -0.83,0.22 q -2.73,-0.41 -4.56,-2.45 -0.36,-0.4 -0.35,-0.93 0.06,-2.72 1.31,-4.27 4.24,-5.23 8.25,-10.86 a 3.8,3.77 15.4 0 1 2.82,-1.59 l 18.84,-1.39 q 0.53,-0.03 0.95,0.31 c 3.74,3.08 2.52,8.11 -2.46,8.33 q -9.42,0.41 -13.59,0.74 a 1.38,1.38 0 0 0 -0.85,0.41 z"
       id="path49" />
    <path
       fill="#f9a520"
       d="m 26.13,101.56 2.06,3.97 a 0.97,0.95 46.8 0 1 -0.02,0.9 c -1.73,2.96 -4.14,4.51 -3.4,8.39 a 0.47,0.46 10.2 0 1 -0.7,0.48 q -6.55,-3.99 -9.13,-9.78 2.2,-7.29 6.81,-5.38 3.25,1.35 4.38,1.42 z"
       id="path51" />
    <path
       fill="#ffffff"
       d="m 78.55,109.6 q -2.33,6.44 -7.67,11.56 -0.89,0.43 -1.65,-1 -1.82,-3.12 -5.43,-4.52 c -2.17,-2.44 -4.57,-5.44 -2.09,-8.21 5.59,-6.21 11.93,-2.4 16.84,2.17 z"
       id="path52" />
    <path
       fill="#f9a520"
       d="m 48.07,120.5 c -4.49,1.64 -10.96,0.57 -15.68,-0.91 a 0.61,0.61 0 0 1 -0.16,-1.08 q 2.34,-1.61 4.11,-4.17 0.86,-1.24 2.11,-0.42 0.49,0.32 1.09,0.37 l 5.97,0.51 q 0.49,0.04 0.71,0.48 l 2.19,4.36 a 0.62,0.62 0 0 1 -0.34,0.86 z"
       id="path54" />
    <path
       fill="#684f2d"
       d="m 63.8,115.64 q 3.61,1.4 5.43,4.52 -4.59,-1.26 -5.43,-4.52 z"
       id="path55" />
    <path
       fill="#f9a520"
       d="m 42.97,135.72 c 2.86,3.55 3.85,7.58 -1.19,9.56 -3.86,1.51 -12.52,-7.89 -14.79,-10.67 -3.98,-4.88 -1.63,-8.72 4.22,-9.01 q 7.94,-0.39 16.18,-0.59 a 1.19,1.19 0 0 0 1.16,-1.26 l -0.12,-2.03 a 0.62,0.62 0 0 1 0.65,-0.65 q 1.23,0.09 1.85,1.15 0.23,0.39 0.6,0.64 l 6.85,4.55 q 0.4,0.27 0.46,0.75 0.54,3.88 -1.93,5.58 c -2.6,1.79 -10.22,1.27 -13.63,1.32 a 0.41,0.41 0 0 0 -0.31,0.66 z"
       id="path56" />
  </g>
  <g
     id="g59"
     transform="translate(-11.549523,-15.037872)">
    <path
       fill="#ffffff"
       d="m 106.0768,58.7434 a 12.81,7.7 57 0 1 -13.4346,-6.5497 12.81,7.7 57 0 1 -0.519,-14.9371 12.81,7.7 57 0 1 13.4346,6.5497 12.81,7.7 57 0 1 0.519,14.9371 z M 105.25,53.28 a 2.69,2.69 0 0 0 -2.69,-2.69 2.69,2.69 0 0 0 -2.69,2.69 2.69,2.69 0 0 0 2.69,2.69 2.69,2.69 0 0 0 2.69,-2.69 z"
       id="path57" />
    <path
       fill="#ffffff"
       d="M 71.5011,64.1932 A 12.84,9.28 57.7 0 1 56.796,58.2988 12.84,9.28 57.7 0 1 57.7789,42.4868 12.84,9.28 57.7 0 1 72.484,48.3812 12.84,9.28 57.7 0 1 71.5011,64.1932 Z M 70.61,56.1 a 2.65,2.65 0 0 0 -2.65,-2.65 2.65,2.65 0 0 0 -2.65,2.65 2.65,2.65 0 0 0 2.65,2.65 2.65,2.65 0 0 0 2.65,-2.65 z"
       id="path58" />
    <path
       fill="#3b2e1d"
       d="M 106.3,79.42 C 98.32,88.58 86.56,94.94 75.23,86.94 69.8,83.1 68.75,77.78 70.58,71.64 q 0.49,-1.63 2.09,-1.07 16.14,5.62 33.11,7.53 1.52,0.17 0.52,1.32 z m -18.74,9.83 c 6.72,-0.5 11.95,-4.32 16.64,-9.18 q 0.78,-0.81 -0.34,-0.95 Q 87.93,77.18 72.8,71.89 a 0.81,0.81 0 0 0 -1.04,0.5 c -3.72,10.84 6.36,17.56 15.8,16.86 z"
       id="path59" />
  </g>
  <g
     id="g60"
     transform="translate(-11.549523,-15.037872)">
    <circle
       fill="#3b2e1d"
       cx="102.56"
       cy="53.279999"
       r="2.6900001"
       id="circle59" />
    <circle
       fill="#3b2e1d"
       cx="67.959999"
       cy="56.099998"
       r="2.6500001"
       id="circle60" />
    <path
       fill="#ffffff"
       d="m 87.56,89.25 c -9.44,0.7 -19.52,-6.02 -15.8,-16.86 a 0.81,0.81 0 0 1 1.04,-0.5 q 15.13,5.29 31.06,7.23 1.12,0.14 0.34,0.95 c -4.69,4.86 -9.92,8.68 -16.64,9.18 z"
       id="path60" />
  </g>
</svg>
