<?xml version="1.0" encoding="UTF-8" standalone="no"?>
<svg
   version="1.1"
   viewBox="0 0 127.76528 141.47166"
   id="svg63"
   width="127.76527"
   height="141.47166"
   sodipodi:docname="3.svg"
   inkscape:export-filename="3.svg"
   inkscape:export-xdpi="96"
   inkscape:export-ydpi="96"
   inkscape:version="1.3 (0e150ed6c4, 2023-07-21)"
   xmlns:inkscape="http://www.inkscape.org/namespaces/inkscape"
   xmlns:sodipodi="http://sodipodi.sourceforge.net/DTD/sodipodi-0.dtd"
   xmlns="http://www.w3.org/2000/svg"
   xmlns:svg="http://www.w3.org/2000/svg">
  <sodipodi:namedview
     id="namedview1"
     pagecolor="#ffffff"
     bordercolor="#000000"
     borderopacity="0.25"
     inkscape:showpageshadow="2"
     inkscape:pageopacity="0.0"
     inkscape:pagecheckerboard="0"
     inkscape:deskcolor="#d1d1d1"
     inkscape:zoom="5.4537149"
     inkscape:cx="63.901397"
     inkscape:cy="71.235847"
     inkscape:window-width="1920"
     inkscape:window-height="991"
     inkscape:window-x="-9"
     inkscape:window-y="-9"
     inkscape:window-maximized="1"
     inkscape:current-layer="svg63" />
  <defs
     id="defs63" />
  <g
     stroke-width="2"
     fill="none"
     stroke-linecap="butt"
     id="g40"
     transform="translate(-6.3242502,-2.8428988)">
    <path
       stroke="#a29a8d"
       vector-effect="non-scaling-stroke"
       d="m 71.1,83.85 q 10.88,1.64 21.71,-0.63 c 12.81,-2.69 23.24,-7.23 29.54,-19.47 a 1.08,1.07 21 0 0 -0.69,-1.53 q -0.95,-0.24 -2.46,-0.71 -0.74,-0.23 -0.67,-0.84 0.07,-0.65 0.7,-0.46 l 3.02,0.92 q 0.58,0.17 0.68,-0.43 0.7,-4.71 -0.76,-7.36 -0.99,-1.8 -2.43,-0.39 -0.39,0.38 -0.91,0.25 l -0.73,-0.19 a 0.58,0.58 0 0 1 -0.02,-1.11 l 1.54,-0.45 a 0.9,0.9 0 0 0 0.24,-1.61 q -3.77,-2.48 -6.95,-3.91 c -1.74,-0.79 -2.38,-1.96 -2.65,-3.72"
       id="path8" />
    <path
       stroke="#9f6d1e"
       vector-effect="non-scaling-stroke"
       d="M 110.26,42.21 Q 110.49,40.8 110.23,39.55 107.91,28.59 98.87,22.54 C 95.28,20.14 95.14,18.92 94.2,15 Q 93.05,10.21 92.17,5.93 91.96,4.92 91.21,5.63 l -10.36,9.69 q -0.43,0.4 0.11,0.62 L 83,16.77 q 0.41,0.17 0.5,0.61 0.03,0.17 0.07,0.35 0.17,0.66 -0.49,0.47 C 81.63,17.76 80.43,16.82 79,16.55 Q 68.71,14.62 59.05,17.73 a 0.75,0.74 50.7 0 0 -0.13,1.36 q 1.75,0.99 1.65,1.69 -0.1,0.68 -0.67,0.29 L 40.28,7.82 a 0.46,0.46 0 0 0 -0.71,0.43 c 0.77,7.25 1.37,14.78 2.61,22.08 q 0.37,2.19 -0.56,3.48 -5.7,7.83 -7.17,17.42 -0.07,0.46 0.26,0.79 l 0.99,0.99 a 0.59,0.59 0 0 1 -0.11,0.91 c -2.51,1.53 -0.31,4.53 -0.05,6.71 0.63,5.33 5.63,10.82 9.71,14.11 q 11.41,9.21 25.85,9.11"
       id="path9" />
    <path
       stroke="#fdd290"
       vector-effect="non-scaling-stroke"
       d="m 110.26,42.21 q -0.14,-0.27 -0.3,-0.43 -0.16,-0.16 -0.47,-0.14 -0.4,0.03 -0.63,0.08"
       id="path10" />
    <path
       stroke="#ae7623"
       vector-effect="non-scaling-stroke"
       d="M 108.86,41.72 Q 108,32.45 100.43,26.24 C 98.79,24.89 97,23.03 94.72,22.78 q -4.7,-0.52 -6.68,2.92 c -4.13,7.17 2.05,14.84 6.36,19.98"
       id="path11" />
    <path
       stroke="#fdd290"
       vector-effect="non-scaling-stroke"
       d="m 94.4,45.68 q -0.88,0.89 -0.81,1.94"
       id="path12" />
    <path
       stroke="#9f6d1e"
       vector-effect="non-scaling-stroke"
       d="m 93.59,47.62 q -5.33,0.4 -8.84,0.26 -3.77,-0.16 -3.53,2.98"
       id="path13" />
    <path
       stroke="#fdd290"
       vector-effect="non-scaling-stroke"
       d="M 81.22,50.86 74.55,48.4"
       id="path14" />
    <path
       stroke="#ae7623"
       vector-effect="non-scaling-stroke"
       d="m 74.55,48.4 q 1.76,-12.52 -8.4,-18.72 c -9.32,-5.67 -16.6,2.54 -14.16,11.84 q 1.84,7.01 9.05,11.57"
       id="path15" />
    <path
       stroke="#fdd290"
       vector-effect="non-scaling-stroke"
       d="m 61.04,53.09 c -3.97,1.44 -9.18,3.1 -9.98,6.69 -2.7,12.2 9.27,20.82 20.04,24.07"
       id="path16" />
    <path
       stroke="#a29a8d"
       vector-effect="non-scaling-stroke"
       d="m 81.22,50.86 q 2.66,2.91 6.81,4.54 c 3.82,1.49 5.45,-1.64 6.71,-4.53 0.59,-1.35 0.22,-2.72 -1.15,-3.25"
       id="path17" />
    <path
       stroke="#b1a393"
       vector-effect="non-scaling-stroke"
       d="m 74.55,48.4 q -4.41,8.27 -13.51,4.69"
       id="path18" />
    <path
       stroke="#b1a393"
       vector-effect="non-scaling-stroke"
       d="m 108.86,41.72 c -2.65,8.44 -8.44,7.43 -14.46,3.96"
       id="path19" />
    <path
       stroke="#9f6d1e"
       vector-effect="non-scaling-stroke"
       d="m 60.15,93.13 c 1.12,-2.95 2.87,-7.73 -1.79,-8.78 -2.88,-0.64 -4.78,1.7 -5.53,4.18 q -2.43,8.05 -5.32,15.51 a 4.91,4.91 0 0 0 1.12,5.27 q 4.32,4.27 9.19,8.92 1.84,1.76 3.55,1.86 2.72,0.15 3.92,-2.37 c 1.89,-3.96 -5.49,-9.26 -7.93,-11.63 a 2.87,2.86 31.2 0 1 -0.73,-2.95 q 1.78,-5.37 3.52,-10.01"
       id="path20" />
    <path
       stroke="#a29a8d"
       vector-effect="non-scaling-stroke"
       d="m 62.24,92.86 -2.68,6.76"
       id="path21" />
    <path
       stroke="#9f6d1e"
       vector-effect="non-scaling-stroke"
       d="m 59.56,99.62 -1.68,4.57 q -0.2,0.52 0.22,0.9 l 4.86,4.41 q 0.43,0.39 1,0.31 l 5.59,-0.72"
       id="path22" />
    <path
       stroke="#a29a8d"
       vector-effect="non-scaling-stroke"
       d="m 69.55,109.09 q 4.95,-5.12 7.43,-11.2"
       id="path23" />
    <path
       stroke="#9f6d1e"
       vector-effect="non-scaling-stroke"
       d="m 76.98,97.89 c 1.81,-3.2 4.5,-12.15 -1.74,-11.91 Q 68.78,86.22 62.65,84.1 a 0.85,0.85 0 0 0 -0.98,1.28 c 1.95,2.83 0.38,4.6 0.57,7.48"
       id="path24" />
    <path
       stroke="#fdd290"
       vector-effect="non-scaling-stroke"
       d="M 76.98,97.89 Q 71.55,89.92 62.24,92.86"
       id="path25" />
    <path
       stroke="#fdd290"
       vector-effect="non-scaling-stroke"
       d="M 69.55,109.09 59.56,99.62"
       id="path26" />
    <path
       stroke="#9f6d1e"
       vector-effect="non-scaling-stroke"
       d="m 14.06,107.44 q 3.5,3.29 9.96,5.05 10.66,2.9 20.72,-0.59 a 1.58,1.57 78.8 0 0 1.05,-1.58 l -0.34,-5.37 q -0.03,-0.41 -0.42,-0.26 -12.33,4.9 -21.84,-4.85"
       id="path27" />
    <path
       stroke="#a29a8d"
       vector-effect="non-scaling-stroke"
       d="m 23.19,99.84 q -3.52,-4.57 -8.48,-12.04 -1,-1.49 -3.21,-1.89 -0.52,-0.09 -0.92,0.24 c -6.72,5.48 -1.62,16.58 3.48,21.29"
       id="path28" />
    <path
       stroke="#fdd290"
       vector-effect="non-scaling-stroke"
       d="m 23.19,99.84 q -10.79,-1.82 -9.13,7.6"
       id="path29" />
    <path
       stroke="#9f6d1e"
       vector-effect="non-scaling-stroke"
       d="m 46.67,102.56 3.12,-9.24 a 0.04,0.04 0 0 0 -0.02,-0.05 l -0.05,-0.02 a 4.79,1.79 -71.3 0 0 -3.23,3.97 l -0.08,0.24 a 4.79,1.79 -71.3 0 0 0.16,5.11 l 0.05,0.02 a 0.04,0.04 0 0 0 0.05,-0.03"
       id="path30" />
    <path
       stroke="#9f6d1e"
       vector-effect="non-scaling-stroke"
       d="m 62.73,125.88 q 4.52,-0.08 9.2,0.3 c 3.19,0.26 6.16,-0.83 6.55,-4.17 0.39,-3.32 -4.33,-9.13 -6.26,-12.07 a 0.93,0.93 0 0 0 -1.3,-0.26 q -2.45,1.7 -5.37,0.84 a 0.62,0.62 0 0 0 -0.62,1.02 c 4.59,4.73 1.01,10.89 -5.4,9.73 q -0.57,-0.11 -0.62,0.47 -0.46,5.13 -4.17,8.73 a 0.73,0.73 0 0 0 0.5,1.25 l 6.27,0.04 a 1.04,1.03 -22.8 0 1 0.72,0.29 q 0.73,0.67 1.61,0.55 a 0.69,0.68 -4.2 0 0 0.6,-0.69 q -0.01,-3.01 -2.11,-5.03 a 0.58,0.58 0 0 1 0.4,-1"
       id="path31" />
    <path
       stroke="#9f6d1e"
       vector-effect="non-scaling-stroke"
       d="m 52.78,133.1 a 0.64,0.64 0 0 1 -0.48,-0.99 l 4.87,-7.29 a 4.67,4.66 -51.1 0 0 -0.63,-5.95 l -8.17,-7.93 a 0.64,0.64 0 0 0 -1.09,0.49 l 0.36,9.31 a 1.37,1.35 61.1 0 1 -0.23,0.82 q -3.82,5.92 -7.87,11.68 c -3.1,4.4 -3.44,9.52 3.57,9.55 q 8.47,0.05 16.96,-0.04 2.69,-0.03 4,-1.23 c 2.31,-2.13 1.69,-5.93 -0.84,-7.57 -2.21,-1.43 -7.75,-0.62 -10.45,-0.85"
       id="path32" />
    <path
       stroke="#9f6d1e"
       vector-effect="non-scaling-stroke"
       d="m 44.6276,122.3636 a 2.54,1.03 102.1 0 0 1.5395,-2.2677 2.54,1.03 102.1 0 0 -0.4747,-2.6995 2.54,1.03 102.1 0 0 -1.5395,2.2677 2.54,1.03 102.1 0 0 0.4747,2.6995"
       id="path33" />
    <path
       stroke="#b1a393"
       vector-effect="non-scaling-stroke"
       d="M 104.5004,46.5629 A 12.88,7.72 57.5 0 0 104.091,31.552 12.88,7.72 57.5 0 0 90.6596,24.8371 12.88,7.72 57.5 0 0 91.069,39.848 a 12.88,7.72 57.5 0 0 13.4314,6.7149"
       id="path34" />
    <path
       stroke="#928f8d"
       vector-effect="non-scaling-stroke"
       d="m 103.72,41.06 a 2.61,2.61 0 0 0 -2.61,-2.61 2.61,2.61 0 0 0 -2.61,2.61 2.61,2.61 0 0 0 2.61,2.61 2.61,2.61 0 0 0 2.61,-2.61"
       id="path35" />
    <path
       stroke="#b1a393"
       vector-effect="non-scaling-stroke"
       d="m 70.1778,51.9754 a 12.89,9.27 57.7 0 0 0.9478,-15.8488 12.89,9.27 57.7 0 0 -14.7234,-5.942 12.89,9.27 57.7 0 0 -0.9478,15.8488 12.89,9.27 57.7 0 0 14.7234,5.942"
       id="path36" />
    <path
       stroke="#928f8d"
       vector-effect="non-scaling-stroke"
       d="m 66.5605,46.5899 a 2.8,2.49 90.4 0 0 2.5094,-2.7825 2.8,2.49 90.4 0 0 -2.4704,-2.8173 2.8,2.49 90.4 0 0 -2.5094,2.7825 2.8,2.49 90.4 0 0 2.4704,2.8173"
       id="path37" />
    <path
       stroke="#928f8d"
       vector-effect="non-scaling-stroke"
       d="M 103.89,65.74 Q 87.05,63.7 71.16,58.39 a 1.54,1.53 16.8 0 0 -1.97,1.05 c -1.84,6.84 -0.46,12.06 5.69,15.89 11.23,7 22.73,0.46 30.27,-8.42 a 0.57,0.57 0 0 0 -0.2,-0.89 q -0.44,-0.2 -1.06,-0.28"
       id="path38" />
    <path
       stroke="#928f8d"
       vector-effect="non-scaling-stroke"
       d="M 102.7,66.89 C 91.93,65.58 81.68,62.99 71.41,59.7 a 1,0.99 -74.6 0 0 -1.28,0.73 c -1.56,6.84 0.51,11.62 6.76,14.82 9.3,4.75 19.71,-0.13 26,-7.9 q 0.31,-0.39 -0.19,-0.46"
       id="path39" />
  </g>
  <g
     id="g45"
     transform="translate(-6.3242502,-2.8428988)">
    <path
       fill="#44341b"
       d="m 64.8,143.31 q -10.79,1.49 -23.15,0.77 -6.09,-1 -5.67,-6.04 c 0.34,-4.17 5.12,-9.54 7.58,-13.42 q 0.26,-0.42 0.04,-0.87 -2.67,-5.34 2.04,-8.68 a 0.98,0.98 0 0 0 -0.86,-1.73 C 29.16,118.33 3.27,111.97 6.62,90.18 q 0.74,-4.78 5.17,-5.65 a 1.32,1.29 -34.6 0 1 0.93,0.16 q 3.5,2.13 4.68,4.46 c 5.17,10.24 14.66,19.87 26.8,14.22 a 0.66,0.65 74.1 0 0 0.37,-0.68 c -0.9,-6.87 4.27,-10.93 7.53,-16.46 0.91,-1.54 1.86,-2.44 3.37,-3.17 a 0.42,0.42 0 0 0 -0.03,-0.77 q -15.06,-6.15 -21.68,-21 -0.17,-0.38 -0.58,-0.38 l -12.13,0.07 q -0.56,0.01 -0.76,-0.53 -0.1,-0.27 -0.07,-0.57 a 0.61,0.6 6.6 0 1 0.7,-0.55 q 5.95,0.96 11.87,-0.06 a 0.45,0.44 83.9 0 0 0.36,-0.45 L 32.91,53.23 A 0.77,0.75 -76.4 0 0 32.52,52.58 Q 26.18,48.95 19.23,46.79 a 0.64,0.64 0 0 1 0.21,-1.25 c 3.19,0.09 9.95,3.81 13.03,5.29 q 0.57,0.28 0.67,-0.36 1.45,-9.48 7.08,-17.23 A 2.05,2.05 0 0 0 40.6,32.26 Q 40.8,30.29 40.7,29.61 39.04,17.62 37.87,5.83 a 0.51,0.51 0 0 1 0.78,-0.48 l 17.68,11.43 q 0.51,0.33 1.07,0.1 c 5.98,-2.47 12.51,-2.42 18.76,-2.2 3.2,0.11 5.15,-1.19 7.19,-3.32 q 4.12,-4.3 8.49,-8.35 a 0.62,0.61 -28.5 0 1 1.02,0.3 l 3.61,14.86 a 3.52,3.5 11 0 0 1.38,2.03 c 8.67,6.14 13.46,13.11 14.97,23.46 a 1.03,1.02 6.9 0 0 0.65,0.82 q 5.01,1.92 8.56,5.93 a 1.03,1.01 -25 0 0 0.93,0.33 q 5.77,-0.96 10.5,-4.34 a 0.4,0.39 -21 0 1 0.62,0.27 q 0.11,0.98 -1.05,1.65 -4.35,2.49 -9.23,3.75 a 0.51,0.5 -20.5 0 0 -0.33,0.71 q 1.95,3.9 0.99,8.19 a 0.66,0.65 -81.2 0 0 0.58,0.8 l 7.6,0.58 a 0.4,0.4 0 0 1 0.35,0.28 q 0.05,0.18 0.03,0.37 a 0.53,0.53 0 0 1 -0.56,0.47 l -7.58,-0.36 q -0.57,-0.03 -0.81,0.49 C 116.26,80.5 96.85,85.69 79.86,86.07 q -0.58,0.01 -0.35,0.54 c 2.86,6.53 -2.75,15.77 -6.7,21.07 q -0.32,0.44 -0.01,0.88 c 2.29,3.21 7.39,9.34 7.12,13.24 -0.52,7.62 -9.63,5.65 -14.57,5.49 a 0.49,0.49 0 0 0 -0.42,0.76 q 1.55,2.35 0.55,4.95 a 1.14,1.12 43 0 0 0.04,0.91 c 1.69,3.34 1.85,5.78 -0.72,9.4 z m 6.3,-59.46 q 10.88,1.64 21.71,-0.63 c 12.81,-2.69 23.24,-7.23 29.54,-19.47 a 1.08,1.07 21 0 0 -0.69,-1.53 q -0.95,-0.24 -2.46,-0.71 -0.74,-0.23 -0.67,-0.84 0.07,-0.65 0.7,-0.46 l 3.02,0.92 q 0.58,0.17 0.68,-0.43 0.7,-4.71 -0.76,-7.36 -0.99,-1.8 -2.43,-0.39 -0.39,0.38 -0.91,0.25 l -0.73,-0.19 a 0.58,0.58 0 0 1 -0.02,-1.11 l 1.54,-0.45 a 0.9,0.9 0 0 0 0.24,-1.61 q -3.77,-2.48 -6.95,-3.91 c -1.74,-0.79 -2.38,-1.96 -2.65,-3.72 Q 110.49,40.8 110.23,39.55 107.91,28.59 98.87,22.54 C 95.28,20.14 95.14,18.92 94.2,15 Q 93.05,10.21 92.17,5.93 91.96,4.92 91.21,5.63 l -10.36,9.69 q -0.43,0.4 0.11,0.62 L 83,16.77 q 0.41,0.17 0.5,0.61 0.03,0.17 0.07,0.35 0.17,0.66 -0.49,0.47 C 81.63,17.76 80.43,16.82 79,16.55 Q 68.71,14.62 59.05,17.73 a 0.75,0.74 50.7 0 0 -0.13,1.36 q 1.75,0.99 1.65,1.69 -0.1,0.68 -0.67,0.29 L 40.28,7.82 a 0.46,0.46 0 0 0 -0.71,0.43 c 0.77,7.25 1.37,14.78 2.61,22.08 q 0.37,2.19 -0.56,3.48 -5.7,7.83 -7.17,17.42 -0.07,0.46 0.26,0.79 l 0.99,0.99 a 0.59,0.59 0 0 1 -0.11,0.91 c -2.51,1.53 -0.31,4.53 -0.05,6.71 0.63,5.33 5.63,10.82 9.71,14.11 q 11.41,9.21 25.85,9.11 z m -10.95,9.28 c 1.12,-2.95 2.87,-7.73 -1.79,-8.78 -2.88,-0.64 -4.78,1.7 -5.53,4.18 q -2.43,8.05 -5.32,15.51 a 4.91,4.91 0 0 0 1.12,5.27 q 4.32,4.27 9.19,8.92 1.84,1.76 3.55,1.86 2.72,0.15 3.92,-2.37 c 1.89,-3.96 -5.49,-9.26 -7.93,-11.63 a 2.87,2.86 31.2 0 1 -0.73,-2.95 q 1.78,-5.37 3.52,-10.01 z m 2.09,-0.27 -2.68,6.76 -1.68,4.57 q -0.2,0.52 0.22,0.9 l 4.86,4.41 q 0.43,0.39 1,0.31 l 5.59,-0.72 q 4.95,-5.12 7.43,-11.2 c 1.81,-3.2 4.5,-12.15 -1.74,-11.91 Q 68.78,86.22 62.65,84.1 a 0.85,0.85 0 0 0 -0.98,1.28 c 1.95,2.83 0.38,4.6 0.57,7.48 z m -48.18,14.58 q 3.5,3.29 9.96,5.05 10.66,2.9 20.72,-0.59 a 1.58,1.57 78.8 0 0 1.05,-1.58 l -0.34,-5.37 q -0.03,-0.41 -0.42,-0.26 -12.33,4.9 -21.84,-4.85 -3.52,-4.57 -8.48,-12.04 -1,-1.49 -3.21,-1.89 -0.52,-0.09 -0.92,0.24 c -6.72,5.48 -1.62,16.58 3.48,21.29 z m 32.61,-4.88 3.12,-9.24 a 0.04,0.04 0 0 0 -0.02,-0.05 l -0.05,-0.02 a 4.79,1.79 -71.3 0 0 -3.23,3.97 l -0.08,0.24 a 4.79,1.79 -71.3 0 0 0.16,5.11 l 0.05,0.02 a 0.04,0.04 0 0 0 0.05,-0.03 z m 16.06,23.32 q 4.52,-0.08 9.2,0.3 c 3.19,0.26 6.16,-0.83 6.55,-4.17 0.39,-3.32 -4.33,-9.13 -6.26,-12.07 a 0.93,0.93 0 0 0 -1.3,-0.26 q -2.45,1.7 -5.37,0.84 a 0.62,0.62 0 0 0 -0.62,1.02 c 4.59,4.73 1.01,10.89 -5.4,9.73 q -0.57,-0.11 -0.62,0.47 -0.46,5.13 -4.17,8.73 a 0.73,0.73 0 0 0 0.5,1.25 l 6.27,0.04 a 1.04,1.03 -22.8 0 1 0.72,0.29 q 0.73,0.67 1.61,0.55 a 0.69,0.68 -4.2 0 0 0.6,-0.69 q -0.01,-3.01 -2.11,-5.03 a 0.58,0.58 0 0 1 0.4,-1 z m -9.95,7.22 a 0.64,0.64 0 0 1 -0.48,-0.99 l 4.87,-7.29 a 4.67,4.66 -51.1 0 0 -0.63,-5.95 l -8.17,-7.93 a 0.64,0.64 0 0 0 -1.09,0.49 l 0.36,9.31 a 1.37,1.35 61.1 0 1 -0.23,0.82 q -3.82,5.92 -7.87,11.68 c -3.1,4.4 -3.44,9.52 3.57,9.55 q 8.47,0.05 16.96,-0.04 2.69,-0.03 4,-1.23 c 2.31,-2.13 1.69,-5.93 -0.84,-7.57 -2.21,-1.43 -7.75,-0.62 -10.45,-0.85 z m -8.1524,-10.7364 a 2.54,1.03 102.1 0 0 1.5395,-2.2677 2.54,1.03 102.1 0 0 -0.4747,-2.6995 2.54,1.03 102.1 0 0 -1.5395,2.2677 2.54,1.03 102.1 0 0 0.4747,2.6995 z"
       id="path42" />
  </g>
  <g
     id="g59"
     transform="translate(-6.3242502,-2.8428988)">
    <path
       fill="#faa520"
       d="m 110.26,42.21 q -0.14,-0.27 -0.3,-0.43 -0.16,-0.16 -0.47,-0.14 -0.4,0.03 -0.63,0.08 Q 108,32.45 100.43,26.24 C 98.79,24.89 97,23.03 94.72,22.78 q -4.7,-0.52 -6.68,2.92 c -4.13,7.17 2.05,14.84 6.36,19.98 q -0.88,0.89 -0.81,1.94 -5.33,0.4 -8.84,0.26 -3.77,-0.16 -3.53,2.98 L 74.55,48.4 q 1.76,-12.52 -8.4,-18.72 c -9.32,-5.67 -16.6,2.54 -14.16,11.84 q 1.84,7.01 9.05,11.57 c -3.97,1.44 -9.18,3.1 -9.98,6.69 -2.7,12.2 9.27,20.82 20.04,24.07 q -14.44,0.1 -25.85,-9.11 c -4.08,-3.29 -9.08,-8.78 -9.71,-14.11 -0.26,-2.18 -2.46,-5.18 0.05,-6.71 a 0.59,0.59 0 0 0 0.11,-0.91 l -0.99,-0.99 q -0.33,-0.33 -0.26,-0.79 1.47,-9.59 7.17,-17.42 0.93,-1.29 0.56,-3.48 C 40.94,23.03 40.34,15.5 39.57,8.25 A 0.46,0.46 0 0 1 40.28,7.82 L 59.9,21.07 q 0.57,0.39 0.67,-0.29 0.1,-0.7 -1.65,-1.69 a 0.75,0.74 50.7 0 1 0.13,-1.36 Q 68.71,14.62 79,16.55 c 1.43,0.27 2.63,1.21 4.08,1.65 q 0.66,0.19 0.49,-0.47 Q 83.53,17.55 83.5,17.38 83.41,16.94 83,16.77 L 80.96,15.94 Q 80.42,15.72 80.85,15.32 L 91.21,5.63 q 0.75,-0.71 0.96,0.3 0.88,4.28 2.03,9.07 c 0.94,3.92 1.08,5.14 4.67,7.54 q 9.04,6.05 11.36,17.01 0.26,1.25 0.03,2.66 z"
       id="path46" />
    <path
       fill="#624726"
       d="m 108.86,41.72 c -2.65,8.44 -8.44,7.43 -14.46,3.96 C 90.09,40.54 83.91,32.87 88.04,25.7 q 1.98,-3.44 6.68,-2.92 c 2.28,0.25 4.07,2.11 5.71,3.46 q 7.57,6.21 8.43,15.48 z m -4.3596,4.8429 A 12.88,7.72 57.5 0 0 104.091,31.552 12.88,7.72 57.5 0 0 90.6596,24.8371 12.88,7.72 57.5 0 0 91.069,39.848 a 12.88,7.72 57.5 0 0 13.4314,6.7149 z"
       id="path47" />
    <path
       fill="#624726"
       d="m 74.55,48.4 q -4.41,8.27 -13.51,4.69 -7.21,-4.56 -9.05,-11.57 c -2.44,-9.3 4.84,-17.51 14.16,-11.84 q 10.16,6.2 8.4,18.72 z m -4.3722,3.5754 a 12.89,9.27 57.7 0 0 0.9478,-15.8488 12.89,9.27 57.7 0 0 -14.7234,-5.942 12.89,9.27 57.7 0 0 -0.9478,15.8488 12.89,9.27 57.7 0 0 14.7234,5.942 z"
       id="path48" />
    <path
       fill="#ffffff"
       d="m 110.26,42.21 c 0.27,1.76 0.91,2.93 2.65,3.72 q 3.18,1.43 6.95,3.91 a 0.9,0.9 0 0 1 -0.24,1.61 l -1.54,0.45 a 0.58,0.58 0 0 0 0.02,1.11 l 0.73,0.19 q 0.52,0.13 0.91,-0.25 1.44,-1.41 2.43,0.39 1.46,2.65 0.76,7.36 -0.1,0.6 -0.68,0.43 l -3.02,-0.92 q -0.63,-0.19 -0.7,0.46 -0.07,0.61 0.67,0.84 1.51,0.47 2.46,0.71 a 1.08,1.07 21 0 1 0.69,1.53 c -6.3,12.24 -16.73,16.78 -29.54,19.47 Q 81.98,85.49 71.1,83.85 C 60.33,80.6 48.36,71.98 51.06,59.78 c 0.8,-3.59 6.01,-5.25 9.98,-6.69 q 9.1,3.58 13.51,-4.69 l 6.67,2.46 q 2.66,2.91 6.81,4.54 c 3.82,1.49 5.45,-1.64 6.71,-4.53 0.59,-1.35 0.22,-2.72 -1.15,-3.25 q -0.07,-1.05 0.81,-1.94 c 6.02,3.47 11.81,4.48 14.46,-3.96 q 0.23,-0.05 0.63,-0.08 0.31,-0.02 0.47,0.14 0.16,0.16 0.3,0.43 z m -6.37,23.53 Q 87.05,63.7 71.16,58.39 a 1.54,1.53 16.8 0 0 -1.97,1.05 c -1.84,6.84 -0.46,12.06 5.69,15.89 11.23,7 22.73,0.46 30.27,-8.42 a 0.57,0.57 0 0 0 -0.2,-0.89 q -0.44,-0.2 -1.06,-0.28 z"
       id="path49" />
    <path
       fill="#44341b"
       d="m 93.59,47.62 c 1.37,0.53 1.74,1.9 1.15,3.25 -1.26,2.89 -2.89,6.02 -6.71,4.53 q -4.15,-1.63 -6.81,-4.54 -0.24,-3.14 3.53,-2.98 3.51,0.14 8.84,-0.26 z"
       id="path50" />
    <path
       fill="#faa520"
       d="m 60.15,93.13 q -1.74,4.64 -3.52,10.01 a 2.87,2.86 31.2 0 0 0.73,2.95 c 2.44,2.37 9.82,7.67 7.93,11.63 q -1.2,2.52 -3.92,2.37 -1.71,-0.1 -3.55,-1.86 -4.87,-4.65 -9.19,-8.92 a 4.91,4.91 0 0 1 -1.12,-5.27 q 2.89,-7.46 5.32,-15.51 c 0.75,-2.48 2.65,-4.82 5.53,-4.18 4.66,1.05 2.91,5.83 1.79,8.78 z"
       id="path51" />
    <path
       fill="#faa520"
       d="M 76.98,97.89 Q 71.55,89.92 62.24,92.86 c -0.19,-2.88 1.38,-4.65 -0.57,-7.48 a 0.85,0.85 0 0 1 0.98,-1.28 q 6.13,2.12 12.59,1.88 c 6.24,-0.24 3.55,8.71 1.74,11.91 z"
       id="path52" />
    <path
       fill="#ffffff"
       d="m 23.19,99.84 q -10.79,-1.82 -9.13,7.6 C 8.96,102.73 3.86,91.63 10.58,86.15 q 0.4,-0.33 0.92,-0.24 2.21,0.4 3.21,1.89 4.96,7.47 8.48,12.04 z"
       id="path53" />
    <path
       fill="#ffffff"
       d="m 76.98,97.89 q -2.48,6.08 -7.43,11.2 l -9.99,-9.47 2.68,-6.76 q 9.31,-2.94 14.74,5.03 z"
       id="path54" />
    <path
       fill="#faa520"
       d="m 46.67,102.56 a 0.04,0.04 0 0 1 -0.05,0.03 l -0.05,-0.02 a 4.79,1.79 -71.3 0 1 -0.16,-5.11 l 0.08,-0.24 a 4.79,1.79 -71.3 0 1 3.23,-3.97 l 0.05,0.02 a 0.04,0.04 0 0 1 0.02,0.05 z"
       id="path55" />
    <path
       fill="#faa520"
       d="m 59.56,99.62 9.99,9.47 -5.59,0.72 q -0.57,0.08 -1,-0.31 l -4.86,-4.41 q -0.42,-0.38 -0.22,-0.9 z"
       id="path56" />
    <path
       fill="#faa520"
       d="m 23.19,99.84 q 9.51,9.75 21.84,4.85 0.39,-0.15 0.42,0.26 l 0.34,5.37 a 1.58,1.57 78.8 0 1 -1.05,1.58 q -10.06,3.49 -20.72,0.59 -6.46,-1.76 -9.96,-5.05 -1.66,-9.42 9.13,-7.6 z"
       id="path57" />
    <path
       fill="#faa520"
       d="m 62.73,125.88 a 0.58,0.58 0 0 0 -0.4,1 q 2.1,2.02 2.11,5.03 a 0.69,0.68 -4.2 0 1 -0.6,0.69 q -0.88,0.12 -1.61,-0.55 a 1.04,1.03 -22.8 0 0 -0.72,-0.29 l -6.27,-0.04 a 0.73,0.73 0 0 1 -0.5,-1.25 q 3.71,-3.6 4.17,-8.73 0.05,-0.58 0.62,-0.47 c 6.41,1.16 9.99,-5 5.4,-9.73 a 0.62,0.62 0 0 1 0.62,-1.02 q 2.92,0.86 5.37,-0.84 a 0.93,0.93 0 0 1 1.3,0.26 c 1.93,2.94 6.65,8.75 6.26,12.07 -0.39,3.34 -3.36,4.43 -6.55,4.17 q -4.68,-0.38 -9.2,-0.3 z"
       id="path58" />
    <path
       fill="#faa520"
       d="m 52.78,133.1 c 2.7,0.23 8.24,-0.58 10.45,0.85 2.53,1.64 3.15,5.44 0.84,7.57 q -1.31,1.2 -4,1.23 -8.49,0.09 -16.96,0.04 c -7.01,-0.03 -6.67,-5.15 -3.57,-9.55 q 4.05,-5.76 7.87,-11.68 a 1.37,1.35 61.1 0 0 0.23,-0.82 l -0.36,-9.31 a 0.64,0.64 0 0 1 1.09,-0.49 l 8.17,7.93 a 4.67,4.66 -51.1 0 1 0.63,5.95 l -4.87,7.29 a 0.64,0.64 0 0 0 0.48,0.99 z"
       id="path59" />
    <ellipse
       fill="#faa520"
       cx="0"
       cy="0"
       transform="rotate(102.1,-25.871908,78.19232)"
       rx="2.54"
       ry="1.03"
       id="ellipse59" />
  </g>
  <g
     id="g62"
     transform="translate(-6.3242502,-2.8428988)">
    <path
       fill="#ffffff"
       d="M 104.5004,46.5629 A 12.88,7.72 57.5 0 1 91.069,39.848 12.88,7.72 57.5 0 1 90.6596,24.8371 12.88,7.72 57.5 0 1 104.091,31.552 12.88,7.72 57.5 0 1 104.5004,46.5629 Z M 103.72,41.06 a 2.61,2.61 0 0 0 -2.61,-2.61 2.61,2.61 0 0 0 -2.61,2.61 2.61,2.61 0 0 0 2.61,2.61 2.61,2.61 0 0 0 2.61,-2.61 z"
       id="path60" />
    <path
       fill="#ffffff"
       d="m 70.1778,51.9754 a 12.89,9.27 57.7 0 1 -14.7234,-5.942 12.89,9.27 57.7 0 1 0.9478,-15.8488 12.89,9.27 57.7 0 1 14.7234,5.942 12.89,9.27 57.7 0 1 -0.9478,15.8488 z m -3.6173,-5.3855 a 2.8,2.49 90.4 0 0 2.5094,-2.7825 2.8,2.49 90.4 0 0 -2.4704,-2.8173 2.8,2.49 90.4 0 0 -2.5094,2.7825 2.8,2.49 90.4 0 0 2.4704,2.8173 z"
       id="path61" />
    <path
       fill="#251e1b"
       d="m 103.89,65.74 q 0.62,0.08 1.06,0.28 a 0.57,0.57 0 0 1 0.2,0.89 C 97.61,75.79 86.11,82.33 74.88,75.33 68.73,71.5 67.35,66.28 69.19,59.44 a 1.54,1.53 16.8 0 1 1.97,-1.05 q 15.89,5.31 32.73,7.35 z m -1.19,1.15 C 91.93,65.58 81.68,62.99 71.41,59.7 a 1,0.99 -74.6 0 0 -1.28,0.73 c -1.56,6.84 0.51,11.62 6.76,14.82 9.3,4.75 19.71,-0.13 26,-7.9 q 0.31,-0.39 -0.19,-0.46 z"
       id="path62" />
  </g>
  <g
     id="g63"
     transform="translate(-6.3242502,-2.8428988)">
    <circle
       fill="#251e1b"
       cx="101.11"
       cy="41.060001"
       r="2.6099999"
       id="circle62" />
    <ellipse
       fill="#251e1b"
       cx="0"
       cy="0"
       transform="rotate(90.4,11.547325,54.953399)"
       rx="2.8"
       ry="2.49"
       id="ellipse62" />
    <path
       fill="#ffffff"
       d="m 71.41,59.7 c 10.27,3.29 20.52,5.88 31.29,7.19 q 0.5,0.07 0.19,0.46 c -6.29,7.77 -16.7,12.65 -26,7.9 -6.25,-3.2 -8.32,-7.98 -6.76,-14.82 a 1,0.99 -74.6 0 1 1.28,-0.73 z"
       id="path63" />
  </g>
</svg>
