<?xml version="1.0" encoding="UTF-8" standalone="no"?>
<svg
   version="1.1"
   viewBox="0 0 129.44554 142.73354"
   id="svg50"
   sodipodi:docname="4.svg"
   width="129.44554"
   height="142.73354"
   inkscape:version="1.3 (0e150ed6c4, 2023-07-21)"
   xmlns:inkscape="http://www.inkscape.org/namespaces/inkscape"
   xmlns:sodipodi="http://sodipodi.sourceforge.net/DTD/sodipodi-0.dtd"
   xmlns="http://www.w3.org/2000/svg"
   xmlns:svg="http://www.w3.org/2000/svg">
  <defs
     id="defs50" />
  <sodipodi:namedview
     id="namedview50"
     pagecolor="#758b4c"
     bordercolor="#000000"
     borderopacity="0.25"
     inkscape:showpageshadow="2"
     inkscape:pageopacity="0.0"
     inkscape:pagecheckerboard="0"
     inkscape:deskcolor="#d1d1d1"
     inkscape:zoom="5.1118421"
     inkscape:cx="66.023166"
     inkscape:cy="76"
     inkscape:window-width="1920"
     inkscape:window-height="991"
     inkscape:window-x="-9"
     inkscape:window-y="-9"
     inkscape:window-maximized="1"
     inkscape:current-layer="svg50" />
  <g
     stroke-width="2"
     fill="none"
     stroke-linecap="butt"
     id="g32"
     transform="translate(-1.3520129,-2.1244615)">
    <path
       stroke="#a9a092"
       vector-effect="non-scaling-stroke"
       d="m 65.42,82.24 q 4.4,1.11 8.31,1.18 c 9.11,0.17 20.62,-1.81 28.37,-5.07 q 10.21,-4.27 16.45,-14.46 a 2,2 0 0 0 -1.1,-2.95 l -1.49,-0.47 q -0.48,-0.15 -0.57,-0.64 -0.04,-0.21 0.02,-0.41 0.14,-0.53 0.65,-0.33 l 2.66,1.08 a 0.68,0.68 0 0 0 0.93,-0.51 q 0.74,-4.21 -1.32,-7.87 a 0.66,0.65 66.8 0 0 -0.76,-0.31 l -2.24,0.67 A 0.4605703,0.4605703 0 0 1 115,51.29 l 1.6,-0.78 a 0.78,0.77 -37.1 0 0 0.18,-1.28 q -2.66,-2.34 -7.56,-4.36 -1.44,-0.59 -1.9,-2.35"
       id="path5" />
    <path
       stroke="#a67322"
       vector-effect="non-scaling-stroke"
       d="m 107.32,42.52 q 0.2,-6.01 -2.53,-10.7 -4.21,-7.2 -12.16,-12 A 1.32,1.3 -81.6 0 1 92.04,19.01 L 88.82,5.78 A 0.76,0.76 0 0 0 87.56,5.4 l -9.89,9.18 a 0.43,0.43 0 0 0 0.15,0.72 l 1.98,0.71 a 0.64,0.61 0.5 0 1 0.36,0.35 q 0.05,0.14 0.12,0.26 0.47,0.91 -0.5,0.57 -11.92,-4.18 -23.95,-0.07 a 0.41,0.41 0 0 0 -0.15,0.69 l 1.79,1.69 a 0.6,0.59 -53.3 0 1 0.1,0.73 q -0.3,0.52 -0.79,0.18 Q 47.51,13.99 37.61,7.64 a 0.73,0.73 0 0 0 -1.12,0.7 q 1.28,10.62 2.35,21.61 c 0.12,1.22 -0.36,2.76 -1.07,3.8 q -5.12,7.4 -6.41,16.35 -0.08,0.53 0.23,0.97 l 0.77,1.09 q 0.28,0.39 -0.12,0.66 -1.68,1.15 -0.94,3.21 0.74,2.03 1,3.78 0.36,2.36 1.11,3.62 10.58,17.73 32.01,18.81"
       id="path6" />
    <path
       stroke="#fcd290"
       vector-effect="non-scaling-stroke"
       d="m 107.32,42.52 q -0.93,-1.27 -1.85,-1.67"
       id="path7" />
    <path
       stroke="#a67322"
       vector-effect="non-scaling-stroke"
       d="M 105.47,40.85 Q 104.33,29.87 95.4,23.78 c -4.95,-3.37 -10.55,-2.11 -11.66,4.27 -1.05,6 3.12,12.62 7.62,16.79"
       id="path8" />
    <path
       stroke="#fcd290"
       vector-effect="non-scaling-stroke"
       d="m 91.36,44.84 q -1.15,0.55 -0.38,2.14"
       id="path9" />
    <path
       stroke="#aa7730"
       vector-effect="non-scaling-stroke"
       d="M 90.98,46.98 Q 85.75,46.91 80.5,46.81 77.34,46.75 77.91,49.86"
       id="path10" />
    <path
       stroke="#fcd290"
       vector-effect="non-scaling-stroke"
       d="M 77.91,49.86 71.27,47.47"
       id="path11" />
    <path
       stroke="#a67322"
       vector-effect="non-scaling-stroke"
       d="m 71.27,47.47 q 1.79,-11.14 -6.45,-17.4 c -7.67,-5.84 -17.41,-2.81 -16.26,7.98 0.7,6.58 4.08,9.11 8.29,13.86"
       id="path12" />
    <path
       stroke="#fcd290"
       vector-effect="non-scaling-stroke"
       d="m 56.85,51.91 c -2.18,1.6 -5.09,2.22 -6.74,3.65 -6.74,5.88 -0.01,17.03 5.61,21.02 q 2.84,2.02 9.7,5.66"
       id="path13" />
    <path
       stroke="#a9a092"
       vector-effect="non-scaling-stroke"
       d="m 71.27,47.47 c -3.4,6.73 -8.2,6.05 -14.42,4.44"
       id="path14" />
    <path
       stroke="#a9a092"
       vector-effect="non-scaling-stroke"
       d="m 105.47,40.85 c -2.56,8.65 -8.01,7.14 -14.11,3.99"
       id="path15" />
    <path
       stroke="#ada49f"
       vector-effect="non-scaling-stroke"
       d="m 77.91,49.86 c 1.93,2.14 8.36,7.06 11.04,4.08 1.03,-1.15 4.07,-5.25 2.03,-6.96"
       id="path16" />
    <path
       stroke="#a9a092"
       vector-effect="non-scaling-stroke"
       d="m 20.83,110.73 q -7.17,-2.32 -14.11,-4.52 c -4.02,-1.27 -4.4,3.14 -3.18,5.78 q 4.13,8.96 14.47,10.12"
       id="path17" />
    <path
       stroke="#a67322"
       vector-effect="non-scaling-stroke"
       d="m 18.01,122.11 c 8.22,1.01 17.16,-4.02 23.17,-9.2 1.8,-1.55 1.16,-6.35 1.44,-8.7 q 0.06,-0.57 0.33,-0.06 c 1.75,3.29 1.39,8.43 1.49,12.36 a 2.77,2.77 0 0 1 -1.6,2.59 q -11.98,5.58 -23.91,11.34 c -4.38,2.11 -4.71,6.63 -0.52,9.01 q 3.04,1.72 6.21,3.17 2.56,1.17 5.49,1.22 4.2,0.06 8.41,-0.08 c 6.4,-0.21 6.64,-9.46 -0.7,-9.83 a 0.8,0.8 0 0 1 -0.33,-1.5 q 6.6,-3.45 13.46,-6.58 3.29,-1.5 3.11,-4.59 -0.3,-5.09 -0.48,-10.22 -0.05,-1.46 0.27,-2.09 0.59,-1.18 2.15,-1.04 5.23,0.47 8.97,-0.68"
       id="path18" />
    <path
       stroke="#a9a092"
       vector-effect="non-scaling-stroke"
       d="m 64.97,107.23 q 0.95,0.73 1.89,-0.16 c 1.31,-1.24 3.13,-2.47 1.84,-4.48 q -3.61,-5.63 -7,-12.09"
       id="path19" />
    <path
       stroke="#a67322"
       vector-effect="non-scaling-stroke"
       d="m 61.7,90.5 q 0.05,-1.75 0.82,-3.27 C 63,86.27 64.18,85.64 64.73,84.5 q 0.29,-0.62 -0.4,-0.62 -3.16,-0.02 -6.24,-0.7 c -5.95,-1.31 -6.19,0.71 -9.19,4.67 -2.98,3.96 -6.72,7.38 -6.27,13.01 q 0.04,0.51 -0.37,0.81 -1.93,1.42 -3.27,3.39 c -3.79,5.56 -11.99,6.8 -18.16,5.67"
       id="path20" />
    <path
       stroke="#fcd290"
       vector-effect="non-scaling-stroke"
       d="m 61.7,90.5 -5.29,4.68 q -0.38,0.33 -0.37,0.83 0.02,2.6 1.85,4.12 4.62,3.85 7.08,7.1"
       id="path21" />
    <path
       stroke="#fcd290"
       vector-effect="non-scaling-stroke"
       d="m 18.01,122.11 -2.14,-3.22 q -0.25,-0.38 -0.28,-0.83 c -0.21,-4.05 2.77,-5.19 5.24,-7.33"
       id="path22" />
    <path
       stroke="#a67322"
       vector-effect="non-scaling-stroke"
       d="m 42.97,93.66 q 2.53,-4.32 6.39,-8.17 a 0.6,0.6 0 0 0 -0.59,-1 c -2.54,0.7 -11.38,3.09 -11.27,6.76 q 0.16,5.38 0.69,11.37 a 0.62,0.61 60.5 0 0 1.11,0.31 c 2.16,-2.97 1.96,-6.34 3.67,-9.27"
       id="path23" />
    <path
       stroke="#a67322"
       vector-effect="non-scaling-stroke"
       d="m 71.95,84.58 a 0.6,0.6 0 0 0 -0.73,0.9 l 3.54,4.81 a 0.6,0.6 0 0 0 1.08,-0.44 l -0.46,-3.37 a 0.6,0.6 0 0 0 -0.34,-0.46 l -3.09,-1.44"
       id="path24" />
    <path
       stroke="#a67322"
       vector-effect="non-scaling-stroke"
       d="m 76.69,97.3 c -1.87,-3.37 -3.67,-7.04 -6.06,-10.05 -2.37,-2.97 -7.04,-1.23 -7.3,2.12 q -0.09,1.17 1.01,3.01 3.63,6.05 7.03,12.21 1.58,2.87 3.87,3 7.12,0.38 14.22,0.88 c 6.57,0.46 6.39,-7.57 1.55,-7.98 Q 85.64,100.04 80.24,99.73 77.96,99.59 76.69,97.3"
       id="path25" />
    <path
       stroke="#a67322"
       vector-effect="non-scaling-stroke"
       d="m 66.34,109.24 -2.31,0.25 a 0.47,0.46 -38.3 0 0 -0.11,0.9 l 5.36,1.86 a 0.87,0.87 0 0 1 0.05,1.62 c -3.4,1.42 -13.28,4.47 -10.11,10.08 1.76,3.11 10.94,5.66 14.38,6.99 8.85,3.4 11.03,-6.49 4.11,-8.75 a 0.84,0.84 0 0 1 -0.08,-1.56 q 4.45,-2.01 9.04,-4.46 2.19,-1.17 2.49,-4.39 a 1.7,1.7 0 0 0 -1.58,-1.85 c -4.69,-0.32 -13.67,0.42 -16.76,-3.63 a 0.83,0.83 0 0 0 -1.26,-0.06 l -2.4,2.59 q -0.33,0.36 -0.82,0.41"
       id="path26" />
    <path
       stroke="#a9a092"
       vector-effect="non-scaling-stroke"
       d="m 101.2374,45.5854 a 12.8,7.67 57.5 0 0 -0.4086,-14.9165 12.8,7.67 57.5 0 0 -13.3462,-6.6743 12.8,7.67 57.5 0 0 0.4086,14.9165 12.8,7.67 57.5 0 0 13.3462,6.6743"
       id="path27" />
    <path
       stroke="#8f8d8a"
       vector-effect="non-scaling-stroke"
       d="m 100.42,40.12 a 2.65,2.65 0 0 0 -2.65,-2.65 2.65,2.65 0 0 0 -2.65,2.65 2.65,2.65 0 0 0 2.65,2.65 2.65,2.65 0 0 0 2.65,-2.65"
       id="path28" />
    <path
       stroke="#a9a092"
       vector-effect="non-scaling-stroke"
       d="M 66.9097,50.8329 A 12.79,9.22 57.3 0 0 67.7587,35.089 12.79,9.22 57.3 0 0 53.0903,29.3071 12.79,9.22 57.3 0 0 52.2413,45.051 12.79,9.22 57.3 0 0 66.9097,50.8329"
       id="path29" />
    <path
       stroke="#8f8d8a"
       vector-effect="non-scaling-stroke"
       d="m 65.98,42.78 a 2.65,2.65 0 0 0 -2.65,-2.65 2.65,2.65 0 0 0 -2.65,2.65 2.65,2.65 0 0 0 2.65,2.65 2.65,2.65 0 0 0 2.65,-2.65"
       id="path30" />
    <path
       stroke="#ada49f"
       vector-effect="non-scaling-stroke"
       d="M 101.47,64.7 C 97.27,64.19 93.17,63.72 89.03,62.98 81.69,61.67 74.31,59.12 67.05,57.23 q -0.5,-0.13 -0.7,0.35 c -5.58,13.14 8.01,21.55 19.31,19.1 6.2,-1.34 12.08,-6.03 16.23,-10.91 a 0.65,0.65 0 0 0 -0.42,-1.07"
       id="path31" />
    <path
       stroke="#ada49f"
       vector-effect="non-scaling-stroke"
       d="m 68.1,58.59 q -0.7,-0.25 -0.95,0.46 c -1.94,5.44 -0.32,10.59 4.6,13.8 10.35,6.76 20,1.41 27.91,-6.22 a 0.47,0.47 0 0 0 -0.27,-0.8 Q 83.36,63.88 68.1,58.59"
       id="path32" />
  </g>
  <g
     id="g35"
     transform="translate(-1.3520129,-2.1244615)">
    <path
       fill="#524124"
       d="m 76.43,85.51 c 1.8,4.67 -1.31,8.2 2.55,12.01 a 1.52,1.51 70.3 0 0 0.88,0.42 q 4.47,0.56 8.91,0.86 c 3.84,0.26 7.44,1.49 7.45,5.71 q 0.01,4.6 -5.01,5.57 a 0.57,0.56 82.3 0 0 -0.46,0.61 c 0.64,7.05 -5.18,7.97 -10.04,10.26 a 0.58,0.58 0 0 0 -0.09,1 c 4.75,3.41 3.09,11.03 -2.92,11.6 -3.97,0.37 -12.7,-4.02 -16.6,-5.66 q -2.69,-1.12 -3.48,-3.92 c -1.93,-6.77 4.07,-8.35 8.62,-10.38 a 0.35,0.34 44.3 0 0 -0.01,-0.63 l -7.98,-3.39 a 2.06,2.05 -80 0 0 -2.85,2 q 0.19,3.72 0.29,8.42 c 0.08,3.78 -0.53,5.61 -4.12,7.4 q -5.31,2.64 -10.67,5.15 -0.67,0.31 0.02,0.58 c 6.15,2.37 5.36,11.22 -2,11.45 -4.82,0.15 -10.66,0.76 -15.16,-0.77 -3.76,-1.27 -8.75,-3.39 -9.75,-7.43 -0.94,-3.83 1.77,-6.2 5.14,-7.8 q 11.08,-5.25 22.08,-10.67 2.05,-1.01 1.41,-3.39 a 0.6,0.6 0 0 0 -0.97,-0.29 c -8.46,7.32 -20.76,12.9 -31.64,6.83 -3.88,-2.16 -10.39,-8.75 -8.26,-13.7 2.04,-4.76 6.94,-2.07 10.21,-1.03 8.57,2.72 13.35,5.23 22.45,1.16 1.5,-0.67 2.36,-1.47 2.21,-3.27 -0.29,-3.69 -1.62,-12.82 0.21,-15.85 1.54,-2.55 11.22,-5.31 14.56,-6.33 a 0.7,0.7 0 0 0 0.06,-1.31 q -14.68,-6.05 -21,-20.7 -0.21,-0.48 -0.73,-0.4 -5.93,0.83 -12,0.11 -0.69,-0.08 -0.83,-0.64 a 0.54,0.54 0 0 1 0.6,-0.67 q 6.15,0.91 12.26,-0.15 a 0.41,0.41 0 0 0 0.34,-0.44 L 29.72,52.15 A 0.79,0.79 0 0 0 29.34,51.53 Q 22.89,47.84 15.75,45.76 a 0.43,0.43 0 0 1 -0.17,-0.72 l 0.2,-0.19 q 0.27,-0.25 0.63,-0.16 6.56,1.66 12.39,5.04 a 0.82,0.81 19.5 0 0 1.22,-0.58 q 1.35,-8.95 6.74,-16.6 c 0.81,-1.16 0.9,-2.24 0.71,-3.55 Q 35.74,16.84 34.56,5.03 a 0.58,0.58 0 0 1 0.89,-0.54 l 17.51,11.32 q 0.46,0.3 0.99,0.13 9.32,-2.92 18.97,-2.18 c 2.49,0.19 4.05,-0.53 5.73,-2.11 q 4.84,-4.54 9.56,-9.2 0.47,-0.46 1.03,-0.27 a 0.61,0.61 0 0 1 0.39,0.43 l 3.63,14.84 a 3.31,3.27 -78.6 0 0 1.2,1.83 c 8.3,6.28 13.73,12.64 15.03,23.12 a 1.53,1.52 -82.9 0 0 0.96,1.24 q 4.66,1.84 7.95,5.63 0.41,0.48 1.03,0.4 5.84,-0.76 10.51,-4.28 a 0.53,0.52 57.6 0 1 0.78,0.18 q 0.27,0.53 -0.4,1 -4.54,3.23 -10,4.47 a 0.52,0.51 -20.1 0 0 -0.35,0.74 q 2.08,3.89 1.17,8.24 a 0.64,0.64 0 0 0 0.6,0.77 l 7.4,0.28 q 0.41,0.02 0.42,0.42 0.02,0.25 -0.12,0.48 -0.31,0.52 -0.91,0.49 l -7.33,-0.4 q -0.41,-0.02 -0.57,0.36 C 113.59,79.16 93.52,84.6 76.85,84.88 q -0.66,0.01 -0.42,0.63 z M 65.42,82.24 q 4.4,1.11 8.31,1.18 c 9.11,0.17 20.62,-1.81 28.37,-5.07 q 10.21,-4.27 16.45,-14.46 a 2,2 0 0 0 -1.1,-2.95 l -1.49,-0.47 q -0.48,-0.15 -0.57,-0.64 -0.04,-0.21 0.02,-0.41 0.14,-0.53 0.65,-0.33 l 2.66,1.08 a 0.68,0.68 0 0 0 0.93,-0.51 q 0.74,-4.21 -1.32,-7.87 a 0.66,0.65 66.8 0 0 -0.76,-0.31 l -2.24,0.67 A 0.4605703,0.4605703 0 0 1 115,51.29 l 1.6,-0.78 a 0.78,0.77 -37.1 0 0 0.18,-1.28 q -2.66,-2.34 -7.56,-4.36 -1.44,-0.59 -1.9,-2.35 0.2,-6.01 -2.53,-10.7 -4.21,-7.2 -12.16,-12 A 1.32,1.3 -81.6 0 1 92.04,19.01 L 88.82,5.78 A 0.76,0.76 0 0 0 87.56,5.4 l -9.89,9.18 a 0.43,0.43 0 0 0 0.15,0.72 l 1.98,0.71 a 0.64,0.61 0.5 0 1 0.36,0.35 q 0.05,0.14 0.12,0.26 0.47,0.91 -0.5,0.57 -11.92,-4.18 -23.95,-0.07 a 0.41,0.41 0 0 0 -0.15,0.69 l 1.79,1.69 a 0.6,0.59 -53.3 0 1 0.1,0.73 q -0.3,0.52 -0.79,0.18 Q 47.51,13.99 37.61,7.64 a 0.73,0.73 0 0 0 -1.12,0.7 q 1.28,10.62 2.35,21.61 c 0.12,1.22 -0.36,2.76 -1.07,3.8 q -5.12,7.4 -6.41,16.35 -0.08,0.53 0.23,0.97 l 0.77,1.09 q 0.28,0.39 -0.12,0.66 -1.68,1.15 -0.94,3.21 0.74,2.03 1,3.78 0.36,2.36 1.11,3.62 10.58,17.73 32.01,18.81 z m -44.59,28.49 q -7.17,-2.32 -14.11,-4.52 c -4.02,-1.27 -4.4,3.14 -3.18,5.78 q 4.13,8.96 14.47,10.12 c 8.22,1.01 17.16,-4.02 23.17,-9.2 1.8,-1.55 1.16,-6.35 1.44,-8.7 q 0.06,-0.57 0.33,-0.06 c 1.75,3.29 1.39,8.43 1.49,12.36 a 2.77,2.77 0 0 1 -1.6,2.59 q -11.98,5.58 -23.91,11.34 c -4.38,2.11 -4.71,6.63 -0.52,9.01 q 3.04,1.72 6.21,3.17 2.56,1.17 5.49,1.22 4.2,0.06 8.41,-0.08 c 6.4,-0.21 6.64,-9.46 -0.7,-9.83 a 0.8,0.8 0 0 1 -0.33,-1.5 q 6.6,-3.45 13.46,-6.58 3.29,-1.5 3.11,-4.59 -0.3,-5.09 -0.48,-10.22 -0.05,-1.46 0.27,-2.09 0.59,-1.18 2.15,-1.04 5.23,0.47 8.97,-0.68 0.95,0.73 1.89,-0.16 c 1.31,-1.24 3.13,-2.47 1.84,-4.48 q -3.61,-5.63 -7,-12.09 0.05,-1.75 0.82,-3.27 C 63,86.27 64.18,85.64 64.73,84.5 q 0.29,-0.62 -0.4,-0.62 -3.16,-0.02 -6.24,-0.7 c -5.95,-1.31 -6.19,0.71 -9.19,4.67 -2.98,3.96 -6.72,7.38 -6.27,13.01 q 0.04,0.51 -0.37,0.81 -1.93,1.42 -3.27,3.39 c -3.79,5.56 -11.99,6.8 -18.16,5.67 z M 42.97,93.66 q 2.53,-4.32 6.39,-8.17 a 0.6,0.6 0 0 0 -0.59,-1 c -2.54,0.7 -11.38,3.09 -11.27,6.76 q 0.16,5.38 0.69,11.37 a 0.62,0.61 60.5 0 0 1.11,0.31 c 2.16,-2.97 1.96,-6.34 3.67,-9.27 z m 28.98,-9.08 a 0.6,0.6 0 0 0 -0.73,0.9 l 3.54,4.81 a 0.6,0.6 0 0 0 1.08,-0.44 l -0.46,-3.37 a 0.6,0.6 0 0 0 -0.34,-0.46 z m 4.74,12.72 c -1.87,-3.37 -3.67,-7.04 -6.06,-10.05 -2.37,-2.97 -7.04,-1.23 -7.3,2.12 q -0.09,1.17 1.01,3.01 3.63,6.05 7.03,12.21 1.58,2.87 3.87,3 7.12,0.38 14.22,0.88 c 6.57,0.46 6.39,-7.57 1.55,-7.98 Q 85.64,100.04 80.24,99.73 77.96,99.59 76.69,97.3 Z m -10.35,11.94 -2.31,0.25 a 0.47,0.46 -38.3 0 0 -0.11,0.9 l 5.36,1.86 a 0.87,0.87 0 0 1 0.05,1.62 c -3.4,1.42 -13.28,4.47 -10.11,10.08 1.76,3.11 10.94,5.66 14.38,6.99 8.85,3.4 11.03,-6.49 4.11,-8.75 a 0.84,0.84 0 0 1 -0.08,-1.56 q 4.45,-2.01 9.04,-4.46 2.19,-1.17 2.49,-4.39 a 1.7,1.7 0 0 0 -1.58,-1.85 c -4.69,-0.32 -13.67,0.42 -16.76,-3.63 a 0.83,0.83 0 0 0 -1.26,-0.06 l -2.4,2.59 q -0.33,0.36 -0.82,0.41 z"
       id="path34" />
  </g>
  <g
     id="g46"
     transform="translate(-1.3520129,-2.1244615)">
    <path
       fill="#f9a520"
       d="M 107.32,42.52 Q 106.39,41.25 105.47,40.85 104.33,29.87 95.4,23.78 c -4.95,-3.37 -10.55,-2.11 -11.66,4.27 -1.05,6 3.12,12.62 7.62,16.79 q -1.15,0.55 -0.38,2.14 -5.23,-0.07 -10.48,-0.17 -3.16,-0.06 -2.59,3.05 l -6.64,-2.39 q 1.79,-11.14 -6.45,-17.4 c -7.67,-5.84 -17.41,-2.81 -16.26,7.98 0.7,6.58 4.08,9.11 8.29,13.86 -2.18,1.6 -5.09,2.22 -6.74,3.65 -6.74,5.88 -0.01,17.03 5.61,21.02 q 2.84,2.02 9.7,5.66 -21.43,-1.08 -32.01,-18.81 -0.75,-1.26 -1.11,-3.62 -0.26,-1.75 -1,-3.78 -0.74,-2.06 0.94,-3.21 0.4,-0.27 0.12,-0.66 l -0.77,-1.09 q -0.31,-0.44 -0.23,-0.97 1.29,-8.95 6.41,-16.35 c 0.71,-1.04 1.19,-2.58 1.07,-3.8 Q 37.77,18.96 36.49,8.34 a 0.73,0.73 0 0 1 1.12,-0.7 q 9.9,6.35 19.17,12.77 0.49,0.34 0.79,-0.18 a 0.6,0.59 -53.3 0 0 -0.1,-0.73 l -1.79,-1.69 a 0.41,0.41 0 0 1 0.15,-0.69 q 12.03,-4.11 23.95,0.07 0.97,0.34 0.5,-0.57 -0.07,-0.12 -0.12,-0.26 A 0.64,0.61 0.5 0 0 79.8,16.01 L 77.82,15.3 A 0.43,0.43 0 0 1 77.67,14.58 L 87.56,5.4 a 0.76,0.76 0 0 1 1.26,0.38 l 3.22,13.23 a 1.32,1.3 -81.6 0 0 0.59,0.81 q 7.95,4.8 12.16,12 2.73,4.69 2.53,10.7 z"
       id="path35" />
    <path
       fill="#524124"
       d="m 105.47,40.85 c -2.56,8.65 -8.01,7.14 -14.11,3.99 -4.5,-4.17 -8.67,-10.79 -7.62,-16.79 1.11,-6.38 6.71,-7.64 11.66,-4.27 q 8.93,6.09 10.07,17.07 z m -4.2326,4.7354 a 12.8,7.67 57.5 0 0 -0.4086,-14.9165 12.8,7.67 57.5 0 0 -13.3462,-6.6743 12.8,7.67 57.5 0 0 0.4086,14.9165 12.8,7.67 57.5 0 0 13.3462,6.6743 z"
       id="path36" />
    <path
       fill="#524124"
       d="m 71.27,47.47 c -3.4,6.73 -8.2,6.05 -14.42,4.44 -4.21,-4.75 -7.59,-7.28 -8.29,-13.86 -1.15,-10.79 8.59,-13.82 16.26,-7.98 q 8.24,6.26 6.45,17.4 z m -4.3603,3.3629 a 12.79,9.22 57.3 0 0 0.849,-15.7439 12.79,9.22 57.3 0 0 -14.6684,-5.7819 12.79,9.22 57.3 0 0 -0.849,15.7439 12.79,9.22 57.3 0 0 14.6684,5.7819 z"
       id="path37" />
    <path
       fill="#ffffff"
       d="m 105.47,40.85 q 0.92,0.4 1.85,1.67 0.46,1.76 1.9,2.35 4.9,2.02 7.56,4.36 a 0.78,0.77 -37.1 0 1 -0.18,1.28 l -1.6,0.78 a 0.4605703,0.4605703 0 0 0 0.33,0.86 l 2.24,-0.67 a 0.66,0.65 66.8 0 1 0.76,0.31 q 2.06,3.66 1.32,7.87 a 0.68,0.68 0 0 1 -0.93,0.51 l -2.66,-1.08 q -0.51,-0.2 -0.65,0.33 -0.06,0.2 -0.02,0.41 0.09,0.49 0.57,0.64 l 1.49,0.47 a 2,2 0 0 1 1.1,2.95 q -6.24,10.19 -16.45,14.46 c -7.75,3.26 -19.26,5.24 -28.37,5.07 Q 69.82,83.35 65.42,82.24 58.56,78.6 55.72,76.58 C 50.1,72.59 43.37,61.44 50.11,55.56 c 1.65,-1.43 4.56,-2.05 6.74,-3.65 6.22,1.61 11.02,2.29 14.42,-4.44 l 6.64,2.39 c 1.93,2.14 8.36,7.06 11.04,4.08 1.03,-1.15 4.07,-5.25 2.03,-6.96 q -0.77,-1.59 0.38,-2.14 c 6.1,3.15 11.55,4.66 14.11,-3.99 z m -4,23.85 C 97.27,64.19 93.17,63.72 89.03,62.98 81.69,61.67 74.31,59.12 67.05,57.23 q -0.5,-0.13 -0.7,0.35 c -5.58,13.14 8.01,21.55 19.31,19.1 6.2,-1.34 12.08,-6.03 16.23,-10.91 a 0.65,0.65 0 0 0 -0.42,-1.07 z"
       id="path38" />
    <path
       fill="#5a493f"
       d="m 90.98,46.98 c 2.04,1.71 -1,5.81 -2.03,6.96 C 86.27,56.92 79.84,52 77.91,49.86 q -0.57,-3.11 2.59,-3.05 5.25,0.1 10.48,0.17 z"
       id="path39" />
    <path
       fill="#f9a520"
       d="m 61.7,90.5 -5.29,4.68 q -0.38,0.33 -0.37,0.83 0.02,2.6 1.85,4.12 4.62,3.85 7.08,7.1 -3.74,1.15 -8.97,0.68 -1.56,-0.14 -2.15,1.04 -0.32,0.63 -0.27,2.09 0.18,5.13 0.48,10.22 0.18,3.09 -3.11,4.59 -6.86,3.13 -13.46,6.58 a 0.8,0.8 0 0 0 0.33,1.5 c 7.34,0.37 7.1,9.62 0.7,9.83 q -4.21,0.14 -8.41,0.08 -2.93,-0.05 -5.49,-1.22 -3.17,-1.45 -6.21,-3.17 c -4.19,-2.38 -3.86,-6.9 0.52,-9.01 q 11.93,-5.76 23.91,-11.34 a 2.77,2.77 0 0 0 1.6,-2.59 c -0.1,-3.93 0.26,-9.07 -1.49,-12.36 q -0.27,-0.51 -0.33,0.06 c -0.28,2.35 0.36,7.15 -1.44,8.7 -6.01,5.18 -14.95,10.21 -23.17,9.2 l -2.14,-3.22 q -0.25,-0.38 -0.28,-0.83 c -0.21,-4.05 2.77,-5.19 5.24,-7.33 6.17,1.13 14.37,-0.11 18.16,-5.67 q 1.34,-1.97 3.27,-3.39 0.41,-0.3 0.37,-0.81 c -0.45,-5.63 3.29,-9.05 6.27,-13.01 3,-3.96 3.24,-5.98 9.19,-4.67 q 3.08,0.68 6.24,0.7 0.69,0 0.4,0.62 c -0.55,1.14 -1.73,1.77 -2.21,2.73 q -0.77,1.52 -0.82,3.27 z"
       id="path40" />
    <path
       fill="#f9a520"
       d="m 42.97,93.66 c -1.71,2.93 -1.51,6.3 -3.67,9.27 a 0.62,0.61 60.5 0 1 -1.11,-0.31 Q 37.66,96.63 37.5,91.25 c -0.11,-3.67 8.73,-6.06 11.27,-6.76 a 0.6,0.6 0 0 1 0.59,1 q -3.86,3.85 -6.39,8.17 z"
       id="path41" />
    <path
       fill="#f9a520"
       d="m 71.95,84.58 3.09,1.44 a 0.6,0.6 0 0 1 0.34,0.46 l 0.46,3.37 a 0.6,0.6 0 0 1 -1.08,0.44 l -3.54,-4.81 a 0.6,0.6 0 0 1 0.73,-0.9 z"
       id="path42" />
    <path
       fill="#f9a520"
       d="m 70.63,87.25 c 2.39,3.01 4.19,6.68 6.06,10.05 q 1.27,2.29 3.55,2.43 5.4,0.31 10.77,0.76 c 4.84,0.41 5.02,8.44 -1.55,7.98 q -7.1,-0.5 -14.22,-0.88 -2.29,-0.13 -3.87,-3 -3.4,-6.16 -7.03,-12.21 -1.1,-1.84 -1.01,-3.01 c 0.26,-3.35 4.93,-5.09 7.3,-2.12 z"
       id="path43" />
    <path
       fill="#ffffff"
       d="m 61.7,90.5 q 3.39,6.46 7,12.09 c 1.29,2.01 -0.53,3.24 -1.84,4.48 q -0.94,0.89 -1.89,0.16 -2.46,-3.25 -7.08,-7.1 -1.83,-1.52 -1.85,-4.12 -0.01,-0.5 0.37,-0.83 z"
       id="path44" />
    <path
       fill="#ffffff"
       d="m 20.83,110.73 c -2.47,2.14 -5.45,3.28 -5.24,7.33 q 0.03,0.45 0.28,0.83 l 2.14,3.22 Q 7.67,120.95 3.54,111.99 c -1.22,-2.64 -0.84,-7.05 3.18,-5.78 q 6.94,2.2 14.11,4.52 z"
       id="path45" />
    <path
       fill="#f9a520"
       d="m 67.16,108.83 2.4,-2.59 a 0.83,0.83 0 0 1 1.26,0.06 c 3.09,4.05 12.07,3.31 16.76,3.63 a 1.7,1.7 0 0 1 1.58,1.85 q -0.3,3.22 -2.49,4.39 -4.59,2.45 -9.04,4.46 a 0.84,0.84 0 0 0 0.08,1.56 c 6.92,2.26 4.74,12.15 -4.11,8.75 -3.44,-1.33 -12.62,-3.88 -14.38,-6.99 -3.17,-5.61 6.71,-8.66 10.11,-10.08 a 0.87,0.87 0 0 0 -0.05,-1.62 l -5.36,-1.86 a 0.47,0.46 -38.3 0 1 0.11,-0.9 l 2.31,-0.25 q 0.49,-0.05 0.82,-0.41 z"
       id="path46" />
  </g>
  <g
     id="g49"
     transform="translate(-1.3520129,-2.1244615)">
    <path
       fill="#ffffff"
       d="m 101.2374,45.5854 a 12.8,7.67 57.5 0 1 -13.3462,-6.6743 12.8,7.67 57.5 0 1 -0.4086,-14.9165 12.8,7.67 57.5 0 1 13.3462,6.6743 12.8,7.67 57.5 0 1 0.4086,14.9165 z M 100.42,40.12 a 2.65,2.65 0 0 0 -2.65,-2.65 2.65,2.65 0 0 0 -2.65,2.65 2.65,2.65 0 0 0 2.65,2.65 2.65,2.65 0 0 0 2.65,-2.65 z"
       id="path47" />
    <path
       fill="#ffffff"
       d="M 66.9097,50.8329 A 12.79,9.22 57.3 0 1 52.2413,45.051 12.79,9.22 57.3 0 1 53.0903,29.3071 12.79,9.22 57.3 0 1 67.7587,35.089 12.79,9.22 57.3 0 1 66.9097,50.8329 Z M 65.98,42.78 a 2.65,2.65 0 0 0 -2.65,-2.65 2.65,2.65 0 0 0 -2.65,2.65 2.65,2.65 0 0 0 2.65,2.65 2.65,2.65 0 0 0 2.65,-2.65 z"
       id="path48" />
    <path
       fill="#5a493f"
       d="m 89.03,62.98 c 4.14,0.74 8.24,1.21 12.44,1.72 a 0.65,0.65 0 0 1 0.42,1.07 C 97.74,70.65 91.86,75.34 85.66,76.68 74.36,79.13 60.77,70.72 66.35,57.58 q 0.2,-0.48 0.7,-0.35 c 7.26,1.89 14.64,4.44 21.98,5.75 z M 68.1,58.59 q -0.7,-0.25 -0.95,0.46 c -1.94,5.44 -0.32,10.59 4.6,13.8 10.35,6.76 20,1.41 27.91,-6.22 a 0.47,0.47 0 0 0 -0.27,-0.8 Q 83.36,63.88 68.1,58.59 Z"
       id="path49" />
  </g>
  <g
     id="g50"
     transform="translate(-1.3520129,-2.1244615)">
    <circle
       fill="#1f1a15"
       cx="97.769997"
       cy="40.119999"
       r="2.6500001"
       id="circle49" />
    <circle
       fill="#1f1a15"
       cx="63.330002"
       cy="42.779999"
       r="2.6500001"
       id="circle50" />
    <path
       fill="#ffffff"
       d="m 68.1,58.59 q 15.26,5.29 31.29,7.24 a 0.47,0.47 0 0 1 0.27,0.8 c -7.91,7.63 -17.56,12.98 -27.91,6.22 -4.92,-3.21 -6.54,-8.36 -4.6,-13.8 q 0.25,-0.71 0.95,-0.46 z"
       id="path50" />
  </g>
</svg>
