<?xml version="1.0" encoding="UTF-8" standalone="no"?>
<svg
   version="1.1"
   viewBox="0 0 127.91116 136.49638"
   id="svg56"
   sodipodi:docname="5.svg"
   width="127.91116"
   height="136.49638"
   inkscape:export-filename="5.svg"
   inkscape:export-xdpi="96"
   inkscape:export-ydpi="96"
   inkscape:version="1.3 (0e150ed6c4, 2023-07-21)"
   xmlns:inkscape="http://www.inkscape.org/namespaces/inkscape"
   xmlns:sodipodi="http://sodipodi.sourceforge.net/DTD/sodipodi-0.dtd"
   xmlns="http://www.w3.org/2000/svg"
   xmlns:svg="http://www.w3.org/2000/svg">
  <defs
     id="defs56" />
  <sodipodi:namedview
     id="namedview56"
     pagecolor="#000000"
     bordercolor="#000000"
     borderopacity="0.25"
     inkscape:showpageshadow="2"
     inkscape:pageopacity="0.0"
     inkscape:pagecheckerboard="0"
     inkscape:deskcolor="#d1d1d1"
     inkscape:zoom="5.0129032"
     inkscape:cx="34.211712"
     inkscape:cy="71.914415"
     inkscape:window-width="1920"
     inkscape:window-height="991"
     inkscape:window-x="-9"
     inkscape:window-y="-9"
     inkscape:window-maximized="1"
     inkscape:current-layer="g34" />
  <g
     stroke-width="2"
     fill="none"
     stroke-linecap="butt"
     id="g34"
     transform="translate(-3.2036332,-10.95)">
    <path
       stroke="#a29c91"
       vector-effect="non-scaling-stroke"
       d="m 65.12,90.77 c 15.47,4.34 48.6,-1.41 54.24,-20.08 q 0.15,-0.49 -0.35,-0.65 l -3.09,-0.98 a 0.49,0.49 0 0 1 0.06,-0.95 l 0.72,-0.14 a 0.17,0.16 -32.8 0 1 0.11,0.02 q 1.25,0.72 2.67,0.82 a 0.64,0.63 5 0 0 0.69,-0.57 q 0.4,-3.7 -0.99,-7.12 a 1.43,1.42 -17.7 0 0 -1.65,-0.84 l -2.21,0.52 a 0.37,0.37 0 0 1 -0.24,-0.7 l 1.45,-0.7 a 1.18,1.17 48.6 0 0 0.12,-2.04 q -4.25,-2.73 -7.47,-3.98 -1.15,-0.45 -1.78,-2.67"
       id="path5" />
    <path
       stroke="#9f6f22"
       vector-effect="non-scaling-stroke"
       d="m 107.4,50.71 c 1.06,-5.33 -2.55,-11.37 -5.82,-15.3 Q 99.91,33.4 92.87,28.36 a 1.26,1.23 -79.8 0 1 -0.5,-0.74 L 89.04,13.8 a 0.42,0.41 -28.7 0 0 -0.69,-0.2 l -10.28,9.58 q -0.42,0.4 0.06,0.72 0.89,0.6 1.9,0.97 0.28,0.1 0.41,0.28 0.15,0.21 0.18,0.43 0.09,0.6 -0.49,0.4 Q 68.07,21.73 55.9,25.92 a 0.42,0.42 0 0 0 -0.15,0.71 l 1.92,1.74 A 0.47,0.47 0 0 1 57.1,29.11 L 37.58,16.09 a 0.53,0.53 0 0 0 -0.82,0.5 q 1.12,10.46 2.59,21.15 0.33,2.39 -1.01,4.31 -5.5,7.85 -6.91,17.37 a 0.8,0.79 24.1 0 0 0.29,0.74 l 1.36,1.08 a 0.35,0.34 64.9 0 1 -0.22,0.62 l -0.61,-0.02 a 0.81,0.8 -85.4 0 0 -0.83,0.71 q -0.24,2.09 0.74,3.93 0.24,0.45 0.29,0.96 0.38,3.92 2.96,7.41 c 6.85,9.3 17.98,16.43 29.71,15.92"
       id="path6" />
    <path
       stroke="#fcd290"
       vector-effect="non-scaling-stroke"
       d="m 107.4,50.71 -0.29,-0.69 q -0.17,-0.41 -0.61,-0.42 -0.77,-0.02 -0.91,0.43"
       id="path7" />
    <path
       stroke="#ad7727"
       vector-effect="non-scaling-stroke"
       d="M 105.59,50.03 Q 105.35,40.97 98.53,34.84 C 85.76,23.37 80.21,38.18 86.82,47.94 q 2.12,3.14 4.83,5.68"
       id="path8" />
    <path
       stroke="#fcd290"
       vector-effect="non-scaling-stroke"
       d="m 91.65,53.62 q -1.22,1.11 -0.62,1.88"
       id="path9" />
    <path
       stroke="#ad7727"
       vector-effect="non-scaling-stroke"
       d="m 91.03,55.5 q -4.88,0.24 -9.78,0.27 -3.47,0.03 -3.34,2.62"
       id="path10" />
    <path
       stroke="#fcd290"
       vector-effect="non-scaling-stroke"
       d="m 77.91,58.39 q -3.18,0.2 -6.13,-2.37"
       id="path11" />
    <path
       stroke="#ad7727"
       vector-effect="non-scaling-stroke"
       d="M 71.78,56.02 Q 73.33,43.16 62.61,37.19 c -3.8,-2.11 -7.92,-2.18 -11.07,0.82 -5.27,5.02 -2.75,13.75 1.69,18.55 q 2.02,2.18 4.51,4.16"
       id="path12" />
    <path
       stroke="#fcd290"
       vector-effect="non-scaling-stroke"
       d="m 57.74,60.72 c -4.2,1.85 -10.26,3.56 -10.02,9.43 0.5,11.8 8.41,15.5 17.4,20.62"
       id="path13" />
    <path
       stroke="#b0a496"
       vector-effect="non-scaling-stroke"
       d="m 71.78,56.02 q -4.71,8.67 -14.04,4.7"
       id="path14" />
    <path
       stroke="#b0a496"
       vector-effect="non-scaling-stroke"
       d="m 105.59,50.03 c -2.33,8.13 -8.05,6.81 -13.94,3.59"
       id="path15" />
    <path
       stroke="#b0a496"
       vector-effect="non-scaling-stroke"
       d="m 77.91,58.39 c 2.06,2.14 8.29,7.12 11.09,4.66 q 2.18,-1.9 3.1,-5.75 0.12,-0.49 -0.22,-0.87 L 91.03,55.5"
       id="path16" />
    <path
       stroke="#a29c91"
       vector-effect="non-scaling-stroke"
       d="m 65.07,115.95 1.07,0.35 a 0.93,0.92 27.9 0 0 1.03,-0.31 l 4.76,-6.19 a 1.32,1.32 0 0 0 -0.41,-1.96 q -6.23,-3.44 -9.56,-8.19"
       id="path17" />
    <path
       stroke="#9f6f22"
       vector-effect="non-scaling-stroke"
       d="m 61.96,99.65 q 0.31,-4.22 3.54,-6.49 0.41,-0.29 -0.1,-0.33 -3.78,-0.31 -7.53,-1.07 c -2.27,-0.45 -5.03,-0.51 -6.3,1.33 -3.43,4.97 -9.29,10.51 -8.57,17.1 0.38,3.51 -4.01,7.66 -6.02,10.07 a 5.76,5.75 10 0 1 -2.47,1.73 q -9.42,3.4 -18.45,6.63 c -10.99,3.92 -3.03,10.75 1.14,15.54 a 4.6,4.58 -20.5 0 0 3.46,1.57 q 4.55,-0.01 9.73,0 c 8.65,0.01 7.02,-11.29 -0.71,-9.61 a 0.66,0.65 -16.6 0 1 -0.75,-0.4 q -0.2,-0.52 0,-0.95 0.2,-0.43 0.93,-0.69 4.26,-1.52 8.62,-3 c 6.94,-2.36 7.84,-9.06 12.96,-12.43 3.45,-2.28 8.14,-1.79 12.16,-1.68 a 0.85,0.85 0 0 0 0.72,-0.37 q 0.35,-0.53 0.75,-0.65"
       id="path18" />
    <path
       stroke="#fcd290"
       vector-effect="non-scaling-stroke"
       d="m 61.96,99.65 q -3.59,1.16 -5.59,5.16 a 1.67,1.66 -52.9 0 0 0.25,1.86 l 8.45,9.28"
       id="path19" />
    <path
       stroke="#9f6f22"
       vector-effect="non-scaling-stroke"
       d="m 38.28,111.52 c 0.49,-3.36 0.03,-7.8 1.35,-10.21 a 0.85,0.84 -71.8 0 1 0.86,-0.44 c 2.61,0.35 4.17,-0.14 5.74,-2.39 q 1.99,-2.86 4.1,-5.53 A 0.66,0.65 16.3 0 0 49.75,91.9 l -15.57,1.45 a 3.25,3.24 -0.8 0 0 -2.94,3.02 l -1,15.07 a 0.79,0.79 0 0 0 0.54,0.8 q 3.37,1.11 6.78,0.11 a 1.04,1.03 -4.1 0 0 0.72,-0.83"
       id="path20" />
    <path
       stroke="#9f6f22"
       vector-effect="non-scaling-stroke"
       d="m 66.87,102.88 q 5.41,3.8 10.71,7.78 2.79,2.09 5.87,-0.25 5.88,-4.46 11.67,-8.99 c 3.93,-3.07 2.05,-8.48 -2.83,-8.16 q -0.44,0.03 -0.79,0.3 l -10.31,8.11 a 1.66,1.65 44.8 0 1 -2.05,0 Q 74.6,98.1 69.6,94.99 67.72,93.83 66.22,94.7 c -4.03,2.36 -2.41,6.04 0.65,8.18"
       id="path22" />
    <path
       stroke="#9f6f22"
       vector-effect="non-scaling-stroke"
       d="m 11.01,114.88 q 7.79,6.2 19.12,6.17 0.1,-0.01 1.8,0.06 c 3.72,0.13 6.97,-5.06 8.8,-7.74 a 0.63,0.63 0 0 0 -0.85,-0.89 q -3.49,2.16 -7.63,1.35 -7.77,-1.49 -12.44,-6.98"
       id="path23" />
    <path
       stroke="#a29b89"
       vector-effect="non-scaling-stroke"
       d="M 19.81,106.85 Q 15.34,100.79 11.71,95.29 10.89,94.05 8.9,93.34 a 1.05,1.04 37 0 0 -0.95,0.13 q -3.45,2.42 -3.39,7.3 0.1,8.07 6.45,14.11"
       id="path24" />
    <path
       stroke="#fcd287"
       vector-effect="non-scaling-stroke"
       d="m 19.81,106.85 q -3.15,0.05 -5.57,0.8 -2.37,0.73 -2.94,2.78 -0.51,1.83 -0.29,4.45"
       id="path25" />
    <path
       stroke="#9f6f22"
       vector-effect="non-scaling-stroke"
       d="m 71.28,94.14 4.07,2.7 a 0.15,0.15 0 0 0 0.21,-0.04 l 0.04,-0.06 a 2.43,1.27 33.6 0 0 -1.32,-2.41 l -0.27,-0.17 a 2.43,1.27 33.6 0 0 -2.73,-0.29 l -0.04,0.07 a 0.15,0.15 0 0 0 0.04,0.2"
       id="path26" />
    <path
       stroke="#9f6f22"
       vector-effect="non-scaling-stroke"
       d="m 81.31,131.57 c -1.88,-4.21 -3.34,-9 -6.32,-12.59 q -1.79,-2.17 -3.69,-4.35 a 0.57,0.57 0 0 0 -0.83,-0.04 l -3.13,2.95 q -0.31,0.29 -0.73,0.33 l -3.54,0.32 a 0.73,0.73 0 0 0 -0.48,1.22 q 2.49,2.77 4.59,5.66 c 2.73,3.74 4.32,8.47 6.19,12.88 1.82,4.29 3.02,5.85 7.88,4.72 q 7.2,-1.66 14.41,-3.3 c 7.22,-1.63 5.47,-11.34 -2.59,-9.4 q -5.18,1.25 -10.32,2.33 a 1.3,1.28 -17.8 0 1 -1.44,-0.73"
       id="path28" />
    <path
       stroke="#b0a496"
       vector-effect="non-scaling-stroke"
       d="m 101.7043,54.279 a 12.81,7.68 56.8 0 0 -0.588,-14.9243 12.81,7.68 56.8 0 0 -13.4406,-6.5137 12.81,7.68 56.8 0 0 0.588,14.9243 12.81,7.68 56.8 0 0 13.4406,6.5137"
       id="path29" />
    <path
       stroke="#8d8a89"
       vector-effect="non-scaling-stroke"
       d="m 98.2239,51.6395 a 2.81,2.51 88.9 0 0 2.4556,-2.8577 2.81,2.51 88.9 0 0 -2.5634,-2.7613 2.81,2.51 88.9 0 0 -2.4556,2.8577 2.81,2.51 88.9 0 0 2.5634,2.7613"
       id="path30" />
    <path
       stroke="#b0a496"
       vector-effect="non-scaling-stroke"
       d="M 67.2635,59.6339 A 12.82,9.26 57.1 0 0 68.0749,43.8402 12.82,9.26 57.1 0 0 53.3365,38.1061 12.82,9.26 57.1 0 0 52.5251,53.8998 12.82,9.26 57.1 0 0 67.2635,59.6339"
       id="path31" />
    <path
       stroke="#8d8a89"
       vector-effect="non-scaling-stroke"
       d="m 66.3,51.6 a 2.6,2.6 0 0 0 -2.6,-2.6 2.6,2.6 0 0 0 -2.6,2.6 2.6,2.6 0 0 0 2.6,2.6 2.6,2.6 0 0 0 2.6,-2.6"
       id="path32" />
    <path
       stroke="#aaa6a4"
       vector-effect="non-scaling-stroke"
       d="m 89.57,84.33 q 7.47,-3.4 12.41,-9.62 a 0.7,0.7 0 0 0 -0.46,-1.13 q -17.34,-2.32 -33.96,-7.83 -0.61,-0.2 -0.86,0.39 -3.09,7.39 0.53,12.69 c 4.59,6.71 14.88,8.9 22.34,5.5"
       id="path33" />
    <path
       stroke="#aaa6a4"
       vector-effect="non-scaling-stroke"
       d="m 72.41,81.82 c 9.83,6.11 20.39,1.31 27.52,-6.47 a 0.48,0.48 0 0 0 -0.3,-0.8 Q 83.58,72.87 68.38,67.38 a 0.58,0.58 0 0 0 -0.74,0.34 c -2.05,5.69 -0.44,10.87 4.77,14.1"
       id="path34" />
  </g>
  <g
     id="g38"
     transform="translate(-3.2036332,-10.95)">
    <path
       fill="#443823"
       d="m 93.87,91.75 q 0.81,0.45 1.6,0.83 c 4.26,2.01 4.22,6.61 0.87,9.53 q -2.62,2.28 -11.85,9.41 c -4.36,3.37 -6.97,1.1 -10.57,-1.57 a 0.56,0.55 -59.1 0 0 -0.83,0.21 l -1.17,2.46 q -0.25,0.53 0.18,0.92 7.17,6.62 9.7,16.05 a 1.45,1.44 -15.2 0 0 1.79,1.02 c 3.59,-1.01 10.62,-3.25 14.07,-2.11 4.19,1.39 5.25,7.84 2.09,10.58 q -1.37,1.18 -5.28,2.1 -10.91,2.59 -14.23,3.26 c -4.24,0.84 -6.32,-1.58 -7.95,-5.35 -2.15,-4.96 -3.78,-10.18 -7.26,-14.42 q -2.23,-2.72 -4.47,-5.41 a 2.53,2.53 0 0 0 -1.93,-0.92 l -5.28,-0.03 q -0.5,-0.01 -0.79,0.4 -3.43,4.65 -7.05,9.11 c -3.16,3.9 -6.91,5.25 -11.58,6.12 a 0.5,0.5 0 0 0 -0.2,0.89 c 1.38,1 2.92,1.93 3.45,3.65 3.38,11.01 -12.11,8.87 -17.5,8.67 -2.97,-0.11 -8.29,-7.49 -9.49,-9.39 -3.3,-5.25 -0.11,-8.45 4.8,-10.37 q 6.24,-2.44 12.75,-4.23 a 0.5,0.49 38.1 0 0 -0.12,-0.97 Q 22.53,122.02 17.5,120.23 C 7.98,116.85 -0.11,105.1 4.57,95.18 c 2.15,-4.56 6.05,-3.22 8.58,0.06 4.88,6.33 7.1,11.52 14.5,16.15 a 0.81,0.81 0 0 0 1.24,-0.65 Q 29.23,104.09 29.57,97 c 0.18,-3.81 3.14,-5.1 6.71,-5.45 q 8.1,-0.8 16.33,-1 a 0.31,0.3 -34.7 0 0 0.11,-0.59 Q 37.36,83.9 30.7,68.79 30.51,68.35 30.03,68.38 c -4.59,0.23 -7.07,0.97 -12.79,-0.17 q -0.57,-0.12 -0.21,-0.57 l 0.23,-0.29 q 0.18,-0.23 0.48,-0.19 6.06,0.97 12.09,-0.16 0.53,-0.1 0.46,-0.63 -0.19,-1.62 -0.17,-4.89 0,-1.2 -1.21,-1.7 C 24.58,57.99 20.77,55.97 16.23,54.62 a 0.55,0.55 0 0 1 0.09,-1.08 c 2.84,-0.35 10.45,3.73 13.23,5.07 q 0.6,0.29 0.7,-0.37 1.5,-9.7 7.36,-17.61 A 1.33,1.29 -30.6 0 0 37.86,39.7 L 34.9,13.98 a 0.64,0.64 0 0 1 0.98,-0.61 L 53.41,24.7 q 0.46,0.3 0.98,0.11 9.4,-3.32 19.36,-2.14 c 4.12,0.49 12.27,-8.87 15.18,-11.72 a 0.61,0.6 -29.4 0 1 1.01,0.28 q 1.44,5.73 2.77,11.78 c 0.58,2.69 1.39,4.68 3.81,6.41 q 11.34,8.05 13.46,22.15 a 1.08,1.08 0 0 0 0.69,0.84 q 4.92,1.79 8.3,5.77 0.36,0.42 0.9,0.34 5.72,-0.84 10.31,-4.28 a 0.52,0.52 0 0 1 0.64,0.02 q 0.71,0.6 -0.29,1.28 -4.45,3 -9.69,4.27 a 0.52,0.51 70.4 0 0 -0.34,0.72 q 1.66,3.6 1.01,7.54 a 1.36,1.36 0 0 0 1.31,1.59 l 6.65,0.19 a 0.56,0.55 2.1 0 1 0.54,0.57 q -0.03,0.85 -0.76,0.82 -3.83,-0.12 -7.67,-0.27 -0.52,-0.02 -0.71,0.46 c -4.45,11.09 -15.6,17.53 -26.9,19.75 q -0.82,0.16 -0.1,0.57 z M 65.12,90.77 c 15.47,4.34 48.6,-1.41 54.24,-20.08 q 0.15,-0.49 -0.35,-0.65 l -3.09,-0.98 a 0.49,0.49 0 0 1 0.06,-0.95 l 0.72,-0.14 a 0.17,0.16 -32.8 0 1 0.11,0.02 q 1.25,0.72 2.67,0.82 a 0.64,0.63 5 0 0 0.69,-0.57 q 0.4,-3.7 -0.99,-7.12 a 1.43,1.42 -17.7 0 0 -1.65,-0.84 l -2.21,0.52 a 0.37,0.37 0 0 1 -0.24,-0.7 l 1.45,-0.7 a 1.18,1.17 48.6 0 0 0.12,-2.04 q -4.25,-2.73 -7.47,-3.98 -1.15,-0.45 -1.78,-2.67 c 1.06,-5.33 -2.55,-11.37 -5.82,-15.3 Q 99.91,33.4 92.87,28.36 a 1.26,1.23 -79.8 0 1 -0.5,-0.74 L 89.04,13.8 a 0.42,0.41 -28.7 0 0 -0.69,-0.2 l -10.28,9.58 q -0.42,0.4 0.06,0.72 0.89,0.6 1.9,0.97 0.28,0.1 0.41,0.28 0.15,0.21 0.18,0.43 0.09,0.6 -0.49,0.4 Q 68.07,21.73 55.9,25.92 a 0.42,0.42 0 0 0 -0.15,0.71 l 1.92,1.74 A 0.47,0.47 0 0 1 57.1,29.11 L 37.58,16.09 a 0.53,0.53 0 0 0 -0.82,0.5 q 1.12,10.46 2.59,21.15 0.33,2.39 -1.01,4.31 -5.5,7.85 -6.91,17.37 a 0.8,0.79 24.1 0 0 0.29,0.74 l 1.36,1.08 a 0.35,0.34 64.9 0 1 -0.22,0.62 l -0.61,-0.02 a 0.81,0.8 -85.4 0 0 -0.83,0.71 q -0.24,2.09 0.74,3.93 0.24,0.45 0.29,0.96 0.38,3.92 2.96,7.41 c 6.85,9.3 17.98,16.43 29.71,15.92 z m -0.05,25.18 1.07,0.35 a 0.93,0.92 27.9 0 0 1.03,-0.31 l 4.76,-6.19 a 1.32,1.32 0 0 0 -0.41,-1.96 q -6.23,-3.44 -9.56,-8.19 0.31,-4.22 3.54,-6.49 0.41,-0.29 -0.1,-0.33 -3.78,-0.31 -7.53,-1.07 c -2.27,-0.45 -5.03,-0.51 -6.3,1.33 -3.43,4.97 -9.29,10.51 -8.57,17.1 0.38,3.51 -4.01,7.66 -6.02,10.07 a 5.76,5.75 10 0 1 -2.47,1.73 q -9.42,3.4 -18.45,6.63 c -10.99,3.92 -3.03,10.75 1.14,15.54 a 4.6,4.58 -20.5 0 0 3.46,1.57 q 4.55,-0.01 9.73,0 c 8.65,0.01 7.02,-11.29 -0.71,-9.61 a 0.66,0.65 -16.6 0 1 -0.75,-0.4 q -0.2,-0.52 0,-0.95 0.2,-0.43 0.93,-0.69 4.26,-1.52 8.62,-3 c 6.94,-2.36 7.84,-9.06 12.96,-12.43 3.45,-2.28 8.14,-1.79 12.16,-1.68 a 0.85,0.85 0 0 0 0.72,-0.37 q 0.35,-0.53 0.75,-0.65 z m -26.79,-4.43 c 0.49,-3.36 0.03,-7.8 1.35,-10.21 a 0.85,0.84 -71.8 0 1 0.86,-0.44 c 2.61,0.35 4.17,-0.14 5.74,-2.39 q 1.99,-2.86 4.1,-5.53 A 0.66,0.65 16.3 0 0 49.75,91.9 l -15.57,1.45 a 3.25,3.24 -0.8 0 0 -2.94,3.02 l -1,15.07 a 0.79,0.79 0 0 0 0.54,0.8 q 3.37,1.11 6.78,0.11 a 1.04,1.03 -4.1 0 0 0.72,-0.83 z M 76.76,94.34 c 0.37,1.69 0.72,4.42 2.16,5.28 q 1.26,0.75 2.95,-0.5 4.16,-3.06 8.27,-6.35 a 0.34,0.33 -62.8 0 0 -0.19,-0.6 q -1.69,-0.09 -3.22,0.67 -0.34,0.17 -0.73,0.2 l -8.75,0.64 a 0.54,0.54 0 0 0 -0.49,0.66 z m -9.89,8.54 q 5.41,3.8 10.71,7.78 2.79,2.09 5.87,-0.25 5.88,-4.46 11.67,-8.99 c 3.93,-3.07 2.05,-8.48 -2.83,-8.16 q -0.44,0.03 -0.79,0.3 l -10.31,8.11 a 1.66,1.65 44.8 0 1 -2.05,0 Q 74.6,98.1 69.6,94.99 67.72,93.83 66.22,94.7 c -4.03,2.36 -2.41,6.04 0.65,8.18 z m -55.86,12 q 7.79,6.2 19.12,6.17 0.1,-0.01 1.8,0.06 c 3.72,0.13 6.97,-5.06 8.8,-7.74 a 0.63,0.63 0 0 0 -0.85,-0.89 q -3.49,2.16 -7.63,1.35 -7.77,-1.49 -12.44,-6.98 -4.47,-6.06 -8.1,-11.56 -0.82,-1.24 -2.81,-1.95 a 1.05,1.04 37 0 0 -0.95,0.13 q -3.45,2.42 -3.39,7.3 0.1,8.07 6.45,14.11 z m 60.27,-20.74 4.07,2.7 a 0.15,0.15 0 0 0 0.21,-0.04 l 0.04,-0.06 a 2.43,1.27 33.6 0 0 -1.32,-2.41 l -0.27,-0.17 a 2.43,1.27 33.6 0 0 -2.73,-0.29 l -0.04,0.07 a 0.15,0.15 0 0 0 0.04,0.2 z m -28.83,8.12 -1.69,-0.16 a 0.23,0.23 0 0 0 -0.25,0.21 l -0.01,0.11 a 8.92,0.47 -84.5 0 0 -0.39,8.92 l 1.21,0.12 a 8.92,0.47 -84.5 0 0 1.33,-8.84 l 0.01,-0.11 a 0.23,0.23 0 0 0 -0.21,-0.25 z m 38.86,29.31 c -1.88,-4.21 -3.34,-9 -6.32,-12.59 q -1.79,-2.17 -3.69,-4.35 a 0.57,0.57 0 0 0 -0.83,-0.04 l -3.13,2.95 q -0.31,0.29 -0.73,0.33 l -3.54,0.32 a 0.73,0.73 0 0 0 -0.48,1.22 q 2.49,2.77 4.59,5.66 c 2.73,3.74 4.32,8.47 6.19,12.88 1.82,4.29 3.02,5.85 7.88,4.72 q 7.2,-1.66 14.41,-3.3 c 7.22,-1.63 5.47,-11.34 -2.59,-9.4 q -5.18,1.25 -10.32,2.33 a 1.3,1.28 -17.8 0 1 -1.44,-0.73 z"
       id="path37" />
  </g>
  <g
     id="g52"
     transform="translate(-3.2036332,-10.95)">
    <path
       fill="#f9a520"
       d="m 107.4,50.71 -0.29,-0.69 q -0.17,-0.41 -0.61,-0.42 -0.77,-0.02 -0.91,0.43 -0.24,-9.06 -7.06,-15.19 C 85.76,23.37 80.21,38.18 86.82,47.94 q 2.12,3.14 4.83,5.68 -1.22,1.11 -0.62,1.88 -4.88,0.24 -9.78,0.27 -3.47,0.03 -3.34,2.62 -3.18,0.2 -6.13,-2.37 1.55,-12.86 -9.17,-18.83 c -3.8,-2.11 -7.92,-2.18 -11.07,0.82 -5.27,5.02 -2.75,13.75 1.69,18.55 q 2.02,2.18 4.51,4.16 c -4.2,1.85 -10.26,3.56 -10.02,9.43 0.5,11.8 8.41,15.5 17.4,20.62 C 53.39,91.28 42.26,84.15 35.41,74.85 Q 32.83,71.36 32.45,67.44 32.4,66.93 32.16,66.48 31.18,64.64 31.42,62.55 a 0.81,0.8 -85.4 0 1 0.83,-0.71 l 0.61,0.02 a 0.35,0.34 64.9 0 0 0.22,-0.62 l -1.36,-1.08 a 0.8,0.79 24.1 0 1 -0.29,-0.74 q 1.41,-9.52 6.91,-17.37 1.34,-1.92 1.01,-4.31 -1.47,-10.69 -2.59,-21.15 a 0.53,0.53 0 0 1 0.82,-0.5 L 57.1,29.11 a 0.47,0.47 0 0 0 0.57,-0.74 l -1.92,-1.74 a 0.42,0.42 0 0 1 0.15,-0.71 q 12.17,-4.19 24.23,0.06 0.58,0.2 0.49,-0.4 -0.03,-0.22 -0.18,-0.43 -0.13,-0.18 -0.41,-0.28 -1.01,-0.37 -1.9,-0.97 -0.48,-0.32 -0.06,-0.72 L 88.35,13.6 a 0.42,0.41 -28.7 0 1 0.69,0.2 l 3.33,13.82 a 1.26,1.23 -79.8 0 0 0.5,0.74 q 7.04,5.04 8.71,7.05 c 3.27,3.93 6.88,9.97 5.82,15.3 z"
       id="path38" />
    <path
       fill="#60492d"
       d="m 105.59,50.03 c -2.33,8.13 -8.05,6.81 -13.94,3.59 Q 88.94,51.08 86.82,47.94 C 80.21,38.18 85.76,23.37 98.53,34.84 q 6.82,6.13 7.06,15.19 z m -3.8857,4.249 a 12.81,7.68 56.8 0 0 -0.588,-14.9243 12.81,7.68 56.8 0 0 -13.4406,-6.5137 12.81,7.68 56.8 0 0 0.588,14.9243 12.81,7.68 56.8 0 0 13.4406,6.5137 z"
       id="path39" />
    <path
       fill="#60492d"
       d="m 71.78,56.02 q -4.71,8.67 -14.04,4.7 -2.49,-1.98 -4.51,-4.16 c -4.44,-4.8 -6.96,-13.53 -1.69,-18.55 3.15,-3 7.27,-2.93 11.07,-0.82 q 10.72,5.97 9.17,18.83 z m -4.5165,3.6139 a 12.82,9.26 57.1 0 0 0.8114,-15.7937 12.82,9.26 57.1 0 0 -14.7384,-5.7341 12.82,9.26 57.1 0 0 -0.8114,15.7937 12.82,9.26 57.1 0 0 14.7384,5.7341 z"
       id="path40" />
    <path
       fill="#ffffff"
       d="m 107.4,50.71 q 0.63,2.22 1.78,2.67 3.22,1.25 7.47,3.98 a 1.18,1.17 48.6 0 1 -0.12,2.04 l -1.45,0.7 a 0.37,0.37 0 0 0 0.24,0.7 l 2.21,-0.52 a 1.43,1.42 -17.7 0 1 1.65,0.84 q 1.39,3.42 0.99,7.12 a 0.64,0.63 5 0 1 -0.69,0.57 q -1.42,-0.1 -2.67,-0.82 a 0.17,0.16 -32.8 0 0 -0.11,-0.02 l -0.72,0.14 a 0.49,0.49 0 0 0 -0.06,0.95 l 3.09,0.98 q 0.5,0.16 0.35,0.65 C 113.72,89.36 80.59,95.11 65.12,90.77 56.13,85.65 48.22,81.95 47.72,70.15 47.48,64.28 53.54,62.57 57.74,60.72 q 9.33,3.97 14.04,-4.7 2.95,2.57 6.13,2.37 c 2.06,2.14 8.29,7.12 11.09,4.66 q 2.18,-1.9 3.1,-5.75 0.12,-0.49 -0.22,-0.87 L 91.03,55.5 q -0.6,-0.77 0.62,-1.88 c 5.89,3.22 11.61,4.54 13.94,-3.59 q 0.14,-0.45 0.91,-0.43 0.44,0.01 0.61,0.42 z M 89.57,84.33 q 7.47,-3.4 12.41,-9.62 a 0.7,0.7 0 0 0 -0.46,-1.13 q -17.34,-2.32 -33.96,-7.83 -0.61,-0.2 -0.86,0.39 -3.09,7.39 0.53,12.69 c 4.59,6.71 14.88,8.9 22.34,5.5 z"
       id="path41" />
    <path
       fill="#60492d"
       d="m 91.03,55.5 0.85,0.93 q 0.34,0.38 0.22,0.87 -0.92,3.85 -3.1,5.75 c -2.8,2.46 -9.03,-2.52 -11.09,-4.66 q -0.13,-2.59 3.34,-2.62 4.9,-0.03 9.78,-0.27 z"
       id="path42" />
    <path
       fill="#f9a520"
       d="m 61.96,99.65 q -3.59,1.16 -5.59,5.16 a 1.67,1.66 -52.9 0 0 0.25,1.86 l 8.45,9.28 q -0.4,0.12 -0.75,0.65 a 0.85,0.85 0 0 1 -0.72,0.37 c -4.02,-0.11 -8.71,-0.6 -12.16,1.68 -5.12,3.37 -6.02,10.07 -12.96,12.43 q -4.36,1.48 -8.62,3 -0.73,0.26 -0.93,0.69 -0.2,0.43 0,0.95 a 0.66,0.65 -16.6 0 0 0.75,0.4 c 7.73,-1.68 9.36,9.62 0.71,9.61 q -5.18,-0.01 -9.73,0 A 4.6,4.58 -20.5 0 1 17.2,144.16 C 13.03,139.37 5.07,132.54 16.06,128.62 q 9.03,-3.23 18.45,-6.63 a 5.76,5.75 10 0 0 2.47,-1.73 c 2.01,-2.41 6.4,-6.56 6.02,-10.07 -0.72,-6.59 5.14,-12.13 8.57,-17.1 1.27,-1.84 4.03,-1.78 6.3,-1.33 q 3.75,0.76 7.53,1.07 0.51,0.04 0.1,0.33 -3.23,2.27 -3.54,6.49 z"
       id="path43" />
    <path
       fill="#f9a520"
       d="m 39.63,101.31 c -1.32,2.41 -0.86,6.85 -1.35,10.21 a 1.04,1.03 -4.1 0 1 -0.72,0.83 q -3.41,1 -6.78,-0.11 a 0.79,0.79 0 0 1 -0.54,-0.8 l 1,-15.07 a 3.25,3.24 -0.8 0 1 2.94,-3.02 L 49.75,91.9 a 0.66,0.65 16.3 0 1 0.58,1.05 q -2.11,2.67 -4.1,5.53 c -1.57,2.25 -3.13,2.74 -5.74,2.39 a 0.85,0.84 -71.8 0 0 -0.86,0.44 z"
       id="path44" />
    <path
       fill="#f9a520"
       d="m 66.87,102.88 c -3.06,-2.14 -4.68,-5.82 -0.65,-8.18 q 1.5,-0.87 3.38,0.29 5,3.11 9.54,6.68 a 1.66,1.65 44.8 0 0 2.05,0 L 91.5,93.56 q 0.35,-0.27 0.79,-0.3 c 4.88,-0.32 6.76,5.09 2.83,8.16 q -5.79,4.53 -11.67,8.99 -3.08,2.34 -5.87,0.25 -5.3,-3.98 -10.71,-7.78 z"
       id="path46" />
    <path
       fill="#fffeee"
       d="m 19.81,106.85 q -3.15,0.05 -5.57,0.8 -2.37,0.73 -2.94,2.78 -0.51,1.83 -0.29,4.45 Q 4.66,108.84 4.56,100.77 4.5,95.89 7.95,93.47 A 1.05,1.04 37 0 1 8.9,93.34 q 1.99,0.71 2.81,1.95 3.63,5.5 8.1,11.56 z"
       id="path47" />
    <path
       fill="#f9a520"
       d="m 71.28,94.14 a 0.15,0.15 0 0 1 -0.04,-0.2 l 0.04,-0.07 a 2.43,1.27 33.6 0 1 2.73,0.29 l 0.27,0.17 a 2.43,1.27 33.6 0 1 1.32,2.41 l -0.04,0.06 a 0.15,0.15 0 0 1 -0.21,0.04 z"
       id="path48" />
    <path
       fill="#ffffff"
       d="m 61.96,99.65 q 3.33,4.75 9.56,8.19 a 1.32,1.32 0 0 1 0.41,1.96 l -4.76,6.19 a 0.93,0.92 27.9 0 1 -1.03,0.31 l -1.07,-0.35 -8.45,-9.28 a 1.67,1.66 -52.9 0 1 -0.25,-1.86 q 2,-4 5.59,-5.16 z"
       id="path49" />
    <path
       fill="#f9a520"
       d="m 19.81,106.85 q 4.67,5.49 12.44,6.98 4.14,0.81 7.63,-1.35 a 0.63,0.63 0 0 1 0.85,0.89 c -1.83,2.68 -5.08,7.87 -8.8,7.74 q -1.7,-0.07 -1.8,-0.06 -11.33,0.03 -19.12,-6.17 -0.22,-2.62 0.29,-4.45 0.57,-2.05 2.94,-2.78 2.42,-0.75 5.57,-0.8 z"
       id="path51" />
    <path
       fill="#f9a520"
       d="m 81.31,131.57 a 1.3,1.28 -17.8 0 0 1.44,0.73 q 5.14,-1.08 10.32,-2.33 c 8.06,-1.94 9.81,7.77 2.59,9.4 q -7.21,1.64 -14.41,3.3 c -4.86,1.13 -6.06,-0.43 -7.88,-4.72 -1.87,-4.41 -3.46,-9.14 -6.19,-12.88 q -2.1,-2.89 -4.59,-5.66 a 0.73,0.73 0 0 1 0.48,-1.22 l 3.54,-0.32 q 0.42,-0.04 0.73,-0.33 l 3.13,-2.95 a 0.57,0.57 0 0 1 0.83,0.04 q 1.9,2.18 3.69,4.35 c 2.98,3.59 4.44,8.38 6.32,12.59 z"
       id="path52" />
  </g>
  <g
     id="g55"
     transform="translate(-3.2036332,-10.95)">
    <path
       fill="#ffffff"
       d="m 101.7043,54.279 a 12.81,7.68 56.8 0 1 -13.4406,-6.5137 12.81,7.68 56.8 0 1 -0.588,-14.9243 12.81,7.68 56.8 0 1 13.4406,6.5137 12.81,7.68 56.8 0 1 0.588,14.9243 z m -3.4804,-2.6395 a 2.81,2.51 88.9 0 0 2.4556,-2.8577 2.81,2.51 88.9 0 0 -2.5634,-2.7613 2.81,2.51 88.9 0 0 -2.4556,2.8577 2.81,2.51 88.9 0 0 2.5634,2.7613 z"
       id="path53" />
    <path
       fill="#ffffff"
       d="M 67.2635,59.6339 A 12.82,9.26 57.1 0 1 52.5251,53.8998 12.82,9.26 57.1 0 1 53.3365,38.1061 12.82,9.26 57.1 0 1 68.0749,43.8402 12.82,9.26 57.1 0 1 67.2635,59.6339 Z M 66.3,51.6 a 2.6,2.6 0 0 0 -2.6,-2.6 2.6,2.6 0 0 0 -2.6,2.6 2.6,2.6 0 0 0 2.6,2.6 2.6,2.6 0 0 0 2.6,-2.6 z"
       id="path54" />
    <path
       fill="#544d49"
       d="m 89.57,84.33 c -7.46,3.4 -17.75,1.21 -22.34,-5.5 q -3.62,-5.3 -0.53,-12.69 0.25,-0.59 0.86,-0.39 16.62,5.51 33.96,7.83 a 0.7,0.7 0 0 1 0.46,1.13 q -4.94,6.22 -12.41,9.62 z M 72.41,81.82 c 9.83,6.11 20.39,1.31 27.52,-6.47 a 0.48,0.48 0 0 0 -0.3,-0.8 Q 83.58,72.87 68.38,67.38 a 0.58,0.58 0 0 0 -0.74,0.34 c -2.05,5.69 -0.44,10.87 4.77,14.1 z"
       id="path55" />
  </g>
  <g
     id="g56"
     transform="translate(-3.2036332,-10.95)">
    <ellipse
       fill="#1b1512"
       cx="0"
       cy="0"
       transform="rotate(88.9,24.196708,74.451528)"
       rx="2.8099999"
       ry="2.51"
       id="ellipse55" />
    <circle
       fill="#1b1512"
       cx="63.700001"
       cy="51.599998"
       r="2.5999999"
       id="circle55" />
    <path
       fill="#ffffff"
       d="M 99.93,75.35 C 92.8,83.13 82.24,87.93 72.41,81.82 67.2,78.59 65.59,73.41 67.64,67.72 a 0.58,0.58 0 0 1 0.74,-0.34 q 15.2,5.49 31.25,7.17 a 0.48,0.48 0 0 1 0.3,0.8 z"
       id="path56" />
  </g>
</svg>
