<?xml version="1.0" encoding="UTF-8" standalone="no"?>
<svg
   version="1.1"
   viewBox="0 0 125.99061 130.42174"
   id="svg58"
   sodipodi:docname="6.svg"
   width="125.99062"
   height="130.42174"
   inkscape:version="1.3 (0e150ed6c4, 2023-07-21)"
   xmlns:inkscape="http://www.inkscape.org/namespaces/inkscape"
   xmlns:sodipodi="http://sodipodi.sourceforge.net/DTD/sodipodi-0.dtd"
   xmlns="http://www.w3.org/2000/svg"
   xmlns:svg="http://www.w3.org/2000/svg">
  <defs
     id="defs58" />
  <sodipodi:namedview
     id="namedview58"
     pagecolor="#38755e"
     bordercolor="#000000"
     borderopacity="0.25"
     inkscape:showpageshadow="2"
     inkscape:pageopacity="0.0"
     inkscape:pagecheckerboard="true"
     inkscape:deskcolor="#d1d1d1"
     inkscape:zoom="5.4335664"
     inkscape:cx="72.420206"
     inkscape:cy="71.5"
     inkscape:window-width="1920"
     inkscape:window-height="991"
     inkscape:window-x="-9"
     inkscape:window-y="-9"
     inkscape:window-maximized="1"
     inkscape:current-layer="svg58" />
  <g
     stroke-width="2"
     fill="none"
     stroke-linecap="butt"
     id="g36"
     transform="translate(-8.2072389,-2.7592524)">
    <path
       stroke="#a29a8f"
       vector-effect="non-scaling-stroke"
       d="m 72.59,83.75 c 17.02,1.73 40.69,-2.56 49.43,-20.14 a 1.1,1.1 0 0 0 -0.61,-1.52 l -2.78,-0.98 a 0.52060061,0.52060061 0 0 1 0.29,-1 l 3.07,0.7 a 0.64,0.63 -80 0 0 0.76,-0.54 q 0.53,-4.11 -1.22,-7.87 a 0.67,0.67 0 0 0 -0.87,-0.32 l -2.04,0.9 a 0.46,0.46 0 0 1 -0.43,-0.05 l -0.29,-0.22 q -0.42,-0.3 0.03,-0.55 l 2.06,-1.2 a 0.47,0.46 -38.9 0 0 0.08,-0.75 q -3.31,-3 -7.42,-4.45 c -1.2,-0.42 -2.02,-1.36 -2.11,-2.56"
       id="path4" />
    <path
       stroke="#9f6d1f"
       vector-effect="non-scaling-stroke"
       d="M 110.54,43.2 C 110.19,31.72 104,26.3 95.74,20.12 A 1.28,1.26 -78.9 0 1 95.27,19.41 L 91.94,5.84 A 0.44,0.44 0 0 0 91.22,5.62 l -10.29,9.6 q -0.45,0.42 0.09,0.72 l 2.46,1.34 a 0.38,0.38 0 0 1 -0.19,0.71 q -1.36,-0.03 -2.38,-0.91 a 1.74,1.69 -18.1 0 0 -0.76,-0.37 q -10.76,-2.2 -21.27,0.9 a 0.57,0.56 58.1 0 0 -0.22,0.96 l 2.31,2.11 A 0.4,0.4 0 0 1 60.48,21.3 L 40.36,7.75 a 0.47,0.46 13.5 0 0 -0.72,0.44 l 2.77,23.53 a 1.21,1.21 0 0 1 -0.15,0.75 c -3.54,6.34 -6.53,10.52 -7.55,18.7 q -0.07,0.5 0.29,0.85 l 0.65,0.62 q 0.48,0.46 0.02,0.94 -2.19,2.28 -0.26,4.94 0.27,0.38 0.27,0.84 0.06,4.08 2.33,7.14 12.44,16.83 34.58,17.25"
       id="path5" />
    <path
       stroke="#fcd290"
       vector-effect="non-scaling-stroke"
       d="m 110.54,43.2 -0.35,-1.77 q -0.12,-0.6 -0.73,-0.56 -0.5,0.04 -0.99,0.72"
       id="path6" />
    <path
       stroke="#9f6d1f"
       vector-effect="non-scaling-stroke"
       d="M 108.47,41.59 Q 107.41,29.46 97.5,23.87 c -4.6,-2.59 -9.36,-0.5 -10.43,4.52 -1.31,6.15 3.17,13.34 7.9,17.31"
       id="path7" />
    <path
       stroke="#fcd290"
       vector-effect="non-scaling-stroke"
       d="m 94.97,45.7 q -1.15,0.11 -1.02,1.99"
       id="path8" />
    <path
       stroke="#9f6d1f"
       vector-effect="non-scaling-stroke"
       d="m 93.95,47.69 q -4.77,0.25 -9.7,0.08 -3.07,-0.11 -3.31,2.65"
       id="path9" />
    <path
       stroke="#fcd290"
       vector-effect="non-scaling-stroke"
       d="M 80.94,50.42 74.61,48.07"
       id="path10" />
    <path
       stroke="#9f6d1f"
       vector-effect="non-scaling-stroke"
       d="M 74.61,48.07 Q 76.18,36.95 67.12,30.16 c -7.4,-5.55 -16.61,-0.49 -15.44,8.65 q 1.09,8.45 9.26,13.99"
       id="path11" />
    <path
       stroke="#fcd290"
       vector-effect="non-scaling-stroke"
       d="m 60.94,52.8 c -3.41,1.36 -9.14,3.09 -9.86,7.02 -2.31,12.69 10.45,21.36 21.51,23.93"
       id="path12" />
    <path
       stroke="#a29a8f"
       vector-effect="non-scaling-stroke"
       d="m 74.61,48.07 q -4.1,8.3 -13.67,4.73"
       id="path13" />
    <path
       stroke="#a29a8f"
       vector-effect="non-scaling-stroke"
       d="m 80.94,50.42 q 3.74,4.14 8.99,5.42 a 1.15,1.14 34.2 0 0 0.92,-0.17 c 1.84,-1.25 5.74,-5.98 3.1,-7.98"
       id="path14" />
    <path
       stroke="#a29a8f"
       vector-effect="non-scaling-stroke"
       d="m 108.47,41.59 c -2.14,7.82 -7.8,7.73 -13.5,4.11"
       id="path15" />
    <path
       stroke="#9f6d1f"
       vector-effect="non-scaling-stroke"
       d="m 13.02,96.62 q 1.23,2.69 3.95,4.72 c 6.83,5.07 18.87,9.47 27.57,6.49 1.05,-0.36 1.27,-0.87 1.69,-1.83 a 0.41,0.41 0 0 1 0.78,0.11 l 0.56,4.5 a 1.66,1.66 0 0 1 -1.76,1.86 q -7.24,-0.46 -14.16,-0.9 -3.39,-0.22 -4.73,0.3 c -1.88,0.73 -3.78,3.51 -2.66,5.77 2.39,4.82 7.93,9.46 12.17,12.67 5.76,4.36 10.75,-2.48 6.37,-7.57 a 0.47,0.47 0 0 1 0.36,-0.78 q 4.35,0.01 8.66,0.51 c 7.12,0.81 5.63,-8.09 5.15,-12.13 a 1.39,1.39 0 0 1 1.57,-1.54 q 4.84,0.67 9.98,-0.59"
       id="path16" />
    <path
       stroke="#a29a8f"
       vector-effect="non-scaling-stroke"
       d="m 68.52,108.21 q 0.72,0.77 2.11,-0.87 2.47,-2.91 4.71,-6.3 0.31,-0.48 -0.14,-0.83 c -3.28,-2.56 -8.46,-4.57 -10.23,-9.1"
       id="path17" />
    <path
       stroke="#9f6d1f"
       vector-effect="non-scaling-stroke"
       d="m 64.97,91.11 q 0.24,-3.25 3.11,-5.58 0.5,-0.4 -0.13,-0.49 -4.26,-0.57 -8.49,-1.36 -3.17,-0.6 -5.08,1.94 c -3.06,4.08 -7.59,8.81 -8.3,13.98 -0.16,1.12 0.26,2.33 0.14,3.56 a 0.32,0.32 0 0 1 -0.61,0.1 l -0.45,-1.02 q -0.25,-0.54 -0.83,-0.46 -13.95,2 -20.92,-10.29"
       id="path18" />
    <path
       stroke="#a29a8f"
       vector-effect="non-scaling-stroke"
       d="M 23.41,91.49 Q 20.4,84.3 18.03,77.47 c -0.94,-2.71 -5.09,-1.91 -6.16,-0.01 q -5.29,9.35 1.15,19.16"
       id="path19" />
    <path
       stroke="#fcd290"
       vector-effect="non-scaling-stroke"
       d="M 23.41,91.49 Q 13.54,87.83 13.02,96.62"
       id="path20" />
    <path
       stroke="#fcd290"
       vector-effect="non-scaling-stroke"
       d="m 64.97,91.11 c -2.86,1.73 -7.78,5.49 -4.44,8.89 q 3.93,4 7.99,8.21"
       id="path21" />
    <path
       stroke="#9f6d1f"
       vector-effect="non-scaling-stroke"
       d="m 42.63,92.96 4.49,-0.2 a 0.89,0.88 -73.1 0 0 0.67,-0.36 l 5.46,-7.55 a 0.49,0.49 0 0 0 -0.44,-0.77 l -14.68,1.21 a 4.3,4.29 -87.6 0 0 -3.89,3.58 l -1.59,9.43 a 0.94,0.93 -69.2 0 0 0.42,0.94 q 2.76,1.78 6.09,1.5 a 1.56,1.56 0 0 0 1.41,-1.24 l 1.22,-5.82 a 0.91,0.9 4.1 0 1 0.84,-0.72"
       id="path22" />
    <path
       stroke="#9f6d1f"
       vector-effect="non-scaling-stroke"
       d="m 75.31,85.55 q -1.43,-0.07 -0.43,0.94 1.13,1.15 2.74,1.93 a 0.61,0.61 0 0 0 0.83,-0.77 q -0.79,-1.97 -3.14,-2.1"
       id="path23" />
    <path
       stroke="#9f6d1f"
       vector-effect="non-scaling-stroke"
       d="m 72.61,86.97 c -2.47,-1.46 -4.93,-0.01 -5.75,2.33 -0.95,2.7 1.16,4.33 3.17,5.68 q 5.8,3.92 11.3,7.52 a 3.37,3.35 -39.1 0 0 3.09,0.31 q 7.02,-2.79 14.07,-6.27 c 6.07,-3 2.08,-9.89 -2.89,-7.73 q -5.08,2.21 -10.14,4.63 a 3.13,3.12 49.5 0 1 -3.14,-0.25 q -4.64,-3.22 -9.71,-6.22"
       id="path24" />
    <path
       stroke="#9f6d1f"
       vector-effect="non-scaling-stroke"
       d="m 81.82,120.78 a 0.75,0.75 0 0 1 -0.6,-1.07 c 0.89,-1.84 2.39,-4.5 2.38,-6.51 -0.01,-2.95 -6.23,-6.46 -8.54,-7.95 a 0.99,0.98 -61 0 0 -1.42,0.41 q -2.3,4.82 -7.61,4.35 a 0.44,0.44 0 0 0 -0.28,0.8 l 5.11,3.44 a 2.32,2.31 -59.1 0 1 0.75,3 c -1.47,2.78 -3.69,6.07 -3.58,8.97 q 0.17,4.44 5.4,4.4 6.98,-0.06 13.97,-0.08 c 4.34,-0.02 8.08,-3.87 4.84,-7.88 -2.22,-2.76 -7.3,-1.56 -10.42,-1.88"
       id="path26" />
    <path
       stroke="#9f6d1f"
       vector-effect="non-scaling-stroke"
       d="m 45.68,108.39 -3.59,1.55 a 0.19,0.19 0 0 0 -0.1,0.24 l 0.03,0.07 a 2.04,2.04 0 0 0 2.68,1.07 l 0.19,-0.08 a 2.04,2.04 0 0 0 1.06,-2.68 l -0.02,-0.07 a 0.19,0.19 0 0 0 -0.25,-0.1"
       id="path27" />
    <path
       stroke="#a29a8f"
       vector-effect="non-scaling-stroke"
       d="M 104.3628,46.482 A 12.86,7.73 57.8 0 0 104.0511,31.4809 12.86,7.73 57.8 0 0 90.6572,24.718 12.86,7.73 57.8 0 0 90.9689,39.7191 12.86,7.73 57.8 0 0 104.3628,46.482"
       id="path28" />
    <path
       stroke="#8f8b8a"
       vector-effect="non-scaling-stroke"
       d="m 103.55,40.82 a 2.58,2.58 0 0 0 -2.58,-2.58 2.58,2.58 0 0 0 -2.58,2.58 2.58,2.58 0 0 0 2.58,2.58 2.58,2.58 0 0 0 2.58,-2.58"
       id="path29" />
    <path
       stroke="#a29a8f"
       vector-effect="non-scaling-stroke"
       d="m 70.2948,51.7592 a 12.89,9.24 57.4 0 0 0.8395,-15.8374 12.89,9.24 57.4 0 0 -14.7291,-5.881 12.89,9.24 57.4 0 0 -0.8395,15.8374 12.89,9.24 57.4 0 0 14.7291,5.881"
       id="path30" />
    <path
       stroke="#8f8b8a"
       vector-effect="non-scaling-stroke"
       d="m 69.27,43.64 a 2.63,2.63 0 0 0 -2.63,-2.63 2.63,2.63 0 0 0 -2.63,2.63 2.63,2.63 0 0 0 2.63,2.63 2.63,2.63 0 0 0 2.63,-2.63"
       id="path31" />
    <path
       stroke="#a29a8f"
       vector-effect="non-scaling-stroke"
       d="m 70.49,57.77 a 0.7,0.7 0 0 0 -0.9,0.45 q -3.96,12.09 6.69,17.48 c 11.19,5.68 21.74,-0.62 28.84,-9.22 a 0.62,0.62 0 0 0 -0.41,-1.01 Q 87.15,63.62 70.49,57.77"
       id="path32" />
    <path
       stroke="#a29a8f"
       vector-effect="non-scaling-stroke"
       d="M 102.35,66.4 C 91.91,65.66 81.67,62.63 71.81,59.57 A 1.42,1.42 0 0 0 70,60.68 q -1.68,9.51 5.62,13.39 c 10.59,5.64 19.98,1.18 27.09,-6.77 a 0.54,0.54 0 0 0 -0.36,-0.9"
       id="path33" />
  </g>
  <path
     fill="#44341e"
     d="m 71.592761,83.500748 q -0.1,4.23 3.67,5.99 a 1.12,1.14 45.6 0 0 0.97,0 q 5.1,-2.4 10.15,-4.65 c 7.19,-3.19 12.25,6.39 4.86,10.1 q -6.5,3.26 -15.4,6.760002 a 1.68,1.71 42.9 0 1 -1.09,0.05 q -3.16,-0.92 -5.61,-3.140002 a 0.59,0.59 0 0 0 -0.88,0.1 l -1.02,1.500002 q -0.38,0.55 0.16,0.95 c 4.76,3.46 13.39,7 7.62,14.47 a 0.63,0.63 0 0 0 0.56,1.01 c 4.83,-0.46 11.37,0.2 10.97,6.61 -0.53,8.36 -12.9,6.19 -18.51,6.21 -4.66,0.01 -9.19,-0.65 -9.71,-5.88 -0.33,-3.35 2.24,-6.89 3.91,-9.9 q 0.27,-0.49 -0.19,-0.8 c -3.61,-2.51 -7.72,-6.27 -11.11,-5.22 a 0.64,0.64 0 0 0 -0.45,0.65 c 0.26,4.16 1.6,9.75 -3.15,12.16 -2.55,1.29 -6.61,0.61 -9.61,0.25 a 0.65,0.64 79.8 0 0 -0.65,0.94 q 1.91,3.69 -1.27,6.84 -3.54,3.52 -7.62,0.59 -6.09,-4.36 -11.08,-9.91 c -3.91,-4.34 -3.77,-11.96 3.65,-11.71 q 1.99,0.06 2.83,-0.4 0.91,-0.49 -0.11,-0.69 C 9.5227611,103.77075 -3.6672389,93.090748 0.93276117,77.370748 c 0.69999993,-2.42 2.70999993,-5.11 5.12999993,-5.85 4.7199999,-1.45 6.7199999,7.07 8.0699999,11.25 q 2.16,6.63 7.5,11.86 a 0.88,0.89 25.6 0 0 1.49,-0.53 c 0.81,-6.45 0.26,-12.73 8.72,-13.42 q 7.74,-0.63 15.49,-0.93 a 0.35,0.35 0 0 0 0.11,-0.68 q -15.3,-5.86 -21.71,-20.94 -0.21,-0.48 -0.73,-0.43 -6.23,0.66 -12.44,-0.1 -1.17,-0.14 -0.36,-1.02 a 0.74,0.74 0 0 1 0.64,-0.23 q 5.97,0.76 11.91,-0.18 a 0.59,0.58 84.5 0 0 0.49,-0.6 l -0.23,-5.27 a 0.75,0.73 14.7 0 0 -0.37,-0.62 q -6.18,-3.73 -13.07,-5.78 -0.88,-0.26 -0.68,-1.04 a 0.6,0.61 18.2 0 1 0.82,-0.42 l 12.9,5.24 q 0.45,0.18 0.52,-0.3 1.44,-9.37 7.04,-16.98 a 3.25,3.28 59.5 0 0 0.61,-2.31 l -3.08,-25.4900004 a 0.26,0.26 0 0 1 0.4,-0.25 l 18.11,11.6200004 q 0.47,0.31 1,0.11 9.4,-3.47 19.33,-2 c 3.84,0.56 12.37,-9.2000004 15.16,-11.93000038 a 0.51,0.52 61.8 0 1 0.87,0.26 c 0.84,4.08999998 2.4,15.52000038 5.88,17.86000038 q 11.839999,7.96 14.019999,22.27 a 1.18,1.21 11.7 0 0 0.53,0.83 c 3.13,2.08 5.5,2.83 8.65,6.21 a 0.84,0.83 62.4 0 0 0.77,0.25 q 5.75,-1.11 10.64,-4.31 a 0.55,0.55 0 0 1 0.79,0.22 l 0.12,0.23 q 0.05,0.1 -0.04,0.18 -4.69,3.6 -10.47,4.88 a 0.59,0.58 72.1 0 0 -0.41,0.81 q 1.65,3.86 0.89,8.01 -0.1,0.55 0.44,0.69 c 2.13,0.57 7.3,0.14 8.09,0.92 a 0.61,0.61 0 0 1 -0.45,1.05 l -7.93,-0.36 q -0.47,-0.02 -0.66,0.42 c -7.11,16.7 -26.789999,21.86 -43.359999,22.44 q -0.47,0.02 -0.48,0.49 z m -7.21,-2.51 c 17.02,1.73 40.689999,-2.56 49.429999,-20.14 a 1.1,1.1 0 0 0 -0.61,-1.52 l -2.78,-0.98 a 0.52060061,0.52060061 0 0 1 0.29,-1 l 3.07,0.7 a 0.63,0.64 10 0 0 0.76,-0.54 q 0.53,-4.11 -1.22,-7.87 a 0.67,0.67 0 0 0 -0.87,-0.32 l -2.04,0.9 a 0.46,0.46 0 0 1 -0.43,-0.05 l -0.29,-0.22 q -0.42,-0.3 0.03,-0.55 l 2.06,-1.2 a 0.46,0.47 51.1 0 0 0.08,-0.75 q -3.31,-3 -7.42,-4.45 c -1.2,-0.42 -2.02,-1.36 -2.11,-2.56 -0.35,-11.48 -6.539999,-16.9 -14.799999,-23.08 a 1.26,1.28 11.1 0 1 -0.47,-0.71 l -3.33,-13.5700004 a 0.44,0.44 0 0 0 -0.72,-0.22 l -10.29,9.6000004 q -0.45,0.42 0.09,0.72 l 2.46,1.34 a 0.38,0.38 0 0 1 -0.19,0.71 q -1.36,-0.03 -2.38,-0.91 a 1.69,1.74 71.9 0 0 -0.76,-0.37 q -10.76,-2.2 -21.27,0.9 a 0.57,0.56 58.1 0 0 -0.22,0.96 l 2.31,2.11 a 0.4,0.4 0 0 1 -0.49,0.62 l -20.12,-13.5500004 a 0.47,0.46 13.5 0 0 -0.72,0.44 l 2.77,23.5300004 a 1.21,1.21 0 0 1 -0.15,0.75 c -3.54,6.34 -6.53,10.52 -7.55,18.7 q -0.07,0.5 0.29,0.85 l 0.65,0.62 q 0.48,0.46 0.02,0.94 -2.19,2.28 -0.26,4.94 0.27,0.38 0.27,0.84 0.06,4.08 2.33,7.14 12.44,16.83 34.58,17.25 z m -59.5699999,12.87 q 1.23,2.69 3.95,4.72 c 6.8299999,5.070002 18.8699999,9.470002 27.5699999,6.490002 1.05,-0.36 1.27,-0.87 1.69,-1.83 a 0.41,0.41 0 0 1 0.78,0.11 l 0.56,4.5 a 1.66,1.66 0 0 1 -1.76,1.86 q -7.24,-0.46 -14.16,-0.9 -3.39,-0.22 -4.73,0.3 c -1.88,0.73 -3.78,3.51 -2.66,5.77 2.39,4.82 7.93,9.46 12.17,12.67 5.76,4.36 10.75,-2.48 6.37,-7.57 a 0.47,0.47 0 0 1 0.36,-0.78 q 4.35,0.01 8.66,0.51 c 7.12,0.81 5.63,-8.09 5.15,-12.13 a 1.39,1.39 0 0 1 1.57,-1.54 q 4.84,0.67 9.98,-0.59 0.72,0.77 2.11,-0.87 2.47,-2.91 4.71,-6.300002 0.31,-0.48 -0.14,-0.83 c -3.28,-2.56 -8.46,-4.57 -10.23,-9.1 q 0.24,-3.25 3.11,-5.58 0.5,-0.4 -0.13,-0.49 -4.26,-0.57 -8.49,-1.36 -3.17,-0.6 -5.08,1.94 c -3.06,4.08 -7.59,8.81 -8.3,13.98 -0.16,1.12 0.26,2.33 0.14,3.560002 a 0.32,0.32 0 0 1 -0.61,0.1 l -0.45,-1.020002 q -0.25,-0.54 -0.83,-0.46 -13.95,2.000002 -20.92,-10.29 -3.01,-7.19 -5.3799999,-14.02 c -0.94,-2.71 -5.09,-1.91 -6.16,-0.01 q -5.29,9.35 1.15,19.16 z m 29.6099999,-3.66 4.49,-0.2 a 0.88,0.89 16.9 0 0 0.67,-0.36 l 5.46,-7.55 a 0.49,0.49 0 0 0 -0.44,-0.77 l -14.68,1.21 a 4.29,4.3 2.4 0 0 -3.89,3.58 l -1.59,9.43 a 0.93,0.94 20.8 0 0 0.42,0.94 q 2.76,1.78 6.09,1.5 a 1.56,1.56 0 0 0 1.41,-1.24 l 1.22,-5.82 a 0.91,0.9 4.1 0 1 0.84,-0.72 z m 32.68,-7.41 q -1.43,-0.07 -0.43,0.94 1.13,1.15 2.74,1.93 a 0.61,0.61 0 0 0 0.83,-0.77 q -0.79,-1.97 -3.14,-2.1 z m -2.7,1.42 c -2.47,-1.46 -4.93,-0.01 -5.75,2.33 -0.95,2.7 1.16,4.33 3.17,5.68 q 5.8,3.92 11.3,7.52 a 3.35,3.37 50.9 0 0 3.09,0.310002 q 7.02,-2.790002 14.07,-6.270002 c 6.07,-3 2.08,-9.89 -2.89,-7.73 q -5.08,2.21 -10.14,4.63 a 3.13,3.12 49.5 0 1 -3.14,-0.25 q -4.64,-3.22 -9.71,-6.22 z m -26.8675,8.4233 a 0.89,0.89 0 0 0 -0.6236,-1.0933 l -0.6173,-0.1689 a 0.89,0.89 0 0 0 -1.0933,0.6236 l -1.2508,4.572 a 0.89,0.89 0 0 0 0.6236,1.0933 l 0.6173,0.1689 a 0.89,0.89 0 0 0 1.0933,-0.6236 z m 36.0775,25.386702 a 0.75,0.75 0 0 1 -0.6,-1.07 c 0.89,-1.84 2.39,-4.5 2.38,-6.51 -0.01,-2.95 -6.23,-6.46 -8.54,-7.95 a 0.98,0.99 29 0 0 -1.42,0.41 q -2.3,4.82 -7.61,4.35 a 0.44,0.44 0 0 0 -0.28,0.8 l 5.11,3.44 a 2.31,2.32 30.9 0 1 0.75,3 c -1.47,2.78 -3.69,6.07 -3.58,8.97 q 0.17,4.44 5.4,4.4 6.98,-0.06 13.97,-0.08 c 4.34,-0.02 8.08,-3.87 4.84,-7.88 -2.22,-2.76 -7.3,-1.56 -10.42,-1.88 z m -36.14,-12.39 -3.59,1.55 a 0.19,0.19 0 0 0 -0.1,0.24 l 0.03,0.07 a 2.04,2.04 0 0 0 2.68,1.07 l 0.19,-0.08 a 2.04,2.04 0 0 0 1.06,-2.68 l -0.02,-0.07 a 0.19,0.19 0 0 0 -0.25,-0.1 z"
     id="path41" />
  <g
     id="g54"
     transform="translate(-8.2072389,-2.7592524)">
    <path
       fill="#f9a520"
       d="m 110.54,43.2 -0.35,-1.77 q -0.12,-0.6 -0.73,-0.56 -0.5,0.04 -0.99,0.72 Q 107.41,29.46 97.5,23.87 c -4.6,-2.59 -9.36,-0.5 -10.43,4.52 -1.31,6.15 3.17,13.34 7.9,17.31 q -1.15,0.11 -1.02,1.99 -4.77,0.25 -9.7,0.08 -3.07,-0.11 -3.31,2.65 L 74.61,48.07 Q 76.18,36.95 67.12,30.16 c -7.4,-5.55 -16.61,-0.49 -15.44,8.65 q 1.09,8.45 9.26,13.99 c -3.41,1.36 -9.14,3.09 -9.86,7.02 -2.31,12.69 10.45,21.36 21.51,23.93 Q 50.45,83.33 38.01,66.5 q -2.27,-3.06 -2.33,-7.14 0,-0.46 -0.27,-0.84 -1.93,-2.66 0.26,-4.94 0.46,-0.48 -0.02,-0.94 L 35,52.02 q -0.36,-0.35 -0.29,-0.85 c 1.02,-8.18 4.01,-12.36 7.55,-18.7 a 1.21,1.21 0 0 0 0.15,-0.75 L 39.64,8.19 A 0.47,0.46 13.5 0 1 40.36,7.75 L 60.48,21.3 a 0.4,0.4 0 0 0 0.49,-0.62 l -2.31,-2.11 a 0.57,0.56 58.1 0 1 0.22,-0.96 q 10.51,-3.1 21.27,-0.9 a 1.74,1.69 -18.1 0 1 0.76,0.37 q 1.02,0.88 2.38,0.91 a 0.38,0.38 0 0 0 0.19,-0.71 l -2.46,-1.34 q -0.54,-0.3 -0.09,-0.72 l 10.29,-9.6 a 0.44,0.44 0 0 1 0.72,0.22 l 3.33,13.57 a 1.28,1.26 -78.9 0 0 0.47,0.71 c 8.26,6.18 14.45,11.6 14.8,23.08 z"
       id="path42" />
    <path
       fill="#44341e"
       d="m 108.47,41.59 c -2.14,7.82 -7.8,7.73 -13.5,4.11 -4.73,-3.97 -9.21,-11.16 -7.9,-17.31 1.07,-5.02 5.83,-7.11 10.43,-4.52 q 9.91,5.59 10.97,17.72 z m -4.1072,4.892 a 12.86,7.73 57.8 0 0 -0.3117,-15.0011 12.86,7.73 57.8 0 0 -13.3939,-6.7629 12.86,7.73 57.8 0 0 0.3117,15.0011 12.86,7.73 57.8 0 0 13.3939,6.7629 z"
       id="path43" />
    <path
       fill="#44341e"
       d="m 74.61,48.07 q -4.1,8.3 -13.67,4.73 -8.17,-5.54 -9.26,-13.99 c -1.17,-9.14 8.04,-14.2 15.44,-8.65 q 9.06,6.79 7.49,17.91 z m -4.3152,3.6892 a 12.89,9.24 57.4 0 0 0.8395,-15.8374 12.89,9.24 57.4 0 0 -14.7291,-5.881 12.89,9.24 57.4 0 0 -0.8395,15.8374 12.89,9.24 57.4 0 0 14.7291,5.881 z"
       id="path44" />
    <path
       fill="#ffffff"
       d="m 110.54,43.2 c 0.09,1.2 0.91,2.14 2.11,2.56 q 4.11,1.45 7.42,4.45 a 0.47,0.46 -38.9 0 1 -0.08,0.75 l -2.06,1.2 q -0.45,0.25 -0.03,0.55 l 0.29,0.22 a 0.46,0.46 0 0 0 0.43,0.05 l 2.04,-0.9 a 0.67,0.67 0 0 1 0.87,0.32 q 1.75,3.76 1.22,7.87 a 0.64,0.63 -80 0 1 -0.76,0.54 l -3.07,-0.7 a 0.52060061,0.52060061 0 0 0 -0.29,1 l 2.78,0.98 a 1.1,1.1 0 0 1 0.61,1.52 C 113.28,81.19 89.61,85.48 72.59,83.75 61.53,81.18 48.77,72.51 51.08,59.82 51.8,55.89 57.53,54.16 60.94,52.8 q 9.57,3.57 13.67,-4.73 l 6.33,2.35 q 3.74,4.14 8.99,5.42 a 1.15,1.14 34.2 0 0 0.92,-0.17 c 1.84,-1.25 5.74,-5.98 3.1,-7.98 q -0.13,-1.88 1.02,-1.99 c 5.7,3.62 11.36,3.71 13.5,-4.11 q 0.49,-0.68 0.99,-0.72 0.61,-0.04 0.73,0.56 z M 70.49,57.77 a 0.7,0.7 0 0 0 -0.9,0.45 q -3.96,12.09 6.69,17.48 c 11.19,5.68 21.74,-0.62 28.84,-9.22 a 0.62,0.62 0 0 0 -0.41,-1.01 Q 87.15,63.62 70.49,57.77 Z"
       id="path45" />
    <path
       fill="#44341e"
       d="m 93.95,47.69 c 2.64,2 -1.26,6.73 -3.1,7.98 a 1.15,1.14 34.2 0 1 -0.92,0.17 q -5.25,-1.28 -8.99,-5.42 0.24,-2.76 3.31,-2.65 4.93,0.17 9.7,-0.08 z"
       id="path46" />
    <path
       fill="#ffffff"
       d="M 23.41,91.49 Q 13.54,87.83 13.02,96.62 6.58,86.81 11.87,77.46 c 1.07,-1.9 5.22,-2.7 6.16,0.01 q 2.37,6.83 5.38,14.02 z"
       id="path47" />
    <path
       fill="#f9a520"
       d="m 64.97,91.11 c -2.86,1.73 -7.78,5.49 -4.44,8.89 q 3.93,4 7.99,8.21 -5.14,1.26 -9.98,0.59 a 1.39,1.39 0 0 0 -1.57,1.54 c 0.48,4.04 1.97,12.94 -5.15,12.13 q -4.31,-0.5 -8.66,-0.51 a 0.47,0.47 0 0 0 -0.36,0.78 c 4.38,5.09 -0.61,11.93 -6.37,7.57 -4.24,-3.21 -9.78,-7.85 -12.17,-12.67 -1.12,-2.26 0.78,-5.04 2.66,-5.77 q 1.34,-0.52 4.73,-0.3 6.92,0.44 14.16,0.9 a 1.66,1.66 0 0 0 1.76,-1.86 l -0.56,-4.5 A 0.41,0.41 0 0 0 46.23,106 c -0.42,0.96 -0.64,1.47 -1.69,1.83 -8.7,2.98 -20.74,-1.42 -27.57,-6.49 q -2.72,-2.03 -3.95,-4.72 0.52,-8.79 10.39,-5.13 6.97,12.29 20.92,10.29 0.58,-0.08 0.83,0.46 l 0.45,1.02 a 0.32,0.32 0 0 0 0.61,-0.1 c 0.12,-1.23 -0.3,-2.44 -0.14,-3.56 0.71,-5.17 5.24,-9.9 8.3,-13.98 q 1.91,-2.54 5.08,-1.94 4.23,0.79 8.49,1.36 0.63,0.09 0.13,0.49 -2.87,2.33 -3.11,5.58 z"
       id="path48" />
    <path
       fill="#f9a520"
       d="m 41.79,93.68 -1.22,5.82 a 1.56,1.56 0 0 1 -1.41,1.24 q -3.33,0.28 -6.09,-1.5 A 0.94,0.93 -69.2 0 1 32.65,98.3 l 1.59,-9.43 a 4.3,4.29 -87.6 0 1 3.89,-3.58 l 14.68,-1.21 a 0.49,0.49 0 0 1 0.44,0.77 l -5.46,7.55 a 0.89,0.88 -73.1 0 1 -0.67,0.36 l -4.49,0.2 a 0.91,0.9 4.1 0 0 -0.84,0.72 z"
       id="path49" />
    <path
       fill="#f9a520"
       d="m 75.31,85.55 q 2.35,0.13 3.14,2.1 a 0.61,0.61 0 0 1 -0.83,0.77 q -1.61,-0.78 -2.74,-1.93 -1,-1.01 0.43,-0.94 z"
       id="path50" />
    <path
       fill="#f9a520"
       d="m 66.86,89.3 c 0.82,-2.34 3.28,-3.79 5.75,-2.33 q 5.07,3 9.71,6.22 a 3.13,3.12 49.5 0 0 3.14,0.25 q 5.06,-2.42 10.14,-4.63 c 4.97,-2.16 8.96,4.73 2.89,7.73 q -7.05,3.48 -14.07,6.27 a 3.37,3.35 -39.1 0 1 -3.09,-0.31 q -5.5,-3.6 -11.3,-7.52 C 68.02,93.63 65.91,92 66.86,89.3 Z"
       id="path51" />
    <path
       fill="#ffffff"
       d="m 64.97,91.11 c 1.77,4.53 6.95,6.54 10.23,9.1 q 0.45,0.35 0.14,0.83 -2.24,3.39 -4.71,6.3 -1.39,1.64 -2.11,0.87 Q 64.46,104 60.53,100 c -3.34,-3.4 1.58,-7.16 4.44,-8.89 z"
       id="path52" />
    <path
       fill="#f9a520"
       d="m 81.82,120.78 c 3.12,0.32 8.2,-0.88 10.42,1.88 3.24,4.01 -0.5,7.86 -4.84,7.88 q -6.99,0.02 -13.97,0.08 -5.23,0.04 -5.4,-4.4 c -0.11,-2.9 2.11,-6.19 3.58,-8.97 a 2.32,2.31 -59.1 0 0 -0.75,-3 l -5.11,-3.44 a 0.44,0.44 0 0 1 0.28,-0.8 q 5.31,0.47 7.61,-4.35 a 0.99,0.98 -61 0 1 1.42,-0.41 c 2.31,1.49 8.53,5 8.54,7.95 0.01,2.01 -1.49,4.67 -2.38,6.51 a 0.75,0.75 0 0 0 0.6,1.07 z"
       id="path53" />
    <path
       fill="#f9a520"
       d="m 45.68,108.39 a 0.19,0.19 0 0 1 0.25,0.1 l 0.02,0.07 a 2.04,2.04 0 0 1 -1.06,2.68 l -0.19,0.08 a 2.04,2.04 0 0 1 -2.68,-1.07 l -0.03,-0.07 a 0.19,0.19 0 0 1 0.1,-0.24 z"
       id="path54" />
  </g>
  <g
     id="g57"
     transform="translate(-8.2072389,-2.7592524)">
    <path
       fill="#ffffff"
       d="M 104.3628,46.482 A 12.86,7.73 57.8 0 1 90.9689,39.7191 12.86,7.73 57.8 0 1 90.6572,24.718 a 12.86,7.73 57.8 0 1 13.3939,6.7629 12.86,7.73 57.8 0 1 0.3117,15.0011 z M 103.55,40.82 a 2.58,2.58 0 0 0 -2.58,-2.58 2.58,2.58 0 0 0 -2.58,2.58 2.58,2.58 0 0 0 2.58,2.58 2.58,2.58 0 0 0 2.58,-2.58 z"
       id="path55" />
    <path
       fill="#ffffff"
       d="m 70.2948,51.7592 a 12.89,9.24 57.4 0 1 -14.7291,-5.881 12.89,9.24 57.4 0 1 0.8395,-15.8374 12.89,9.24 57.4 0 1 14.7291,5.881 12.89,9.24 57.4 0 1 -0.8395,15.8374 z M 69.27,43.64 a 2.63,2.63 0 0 0 -2.63,-2.63 2.63,2.63 0 0 0 -2.63,2.63 2.63,2.63 0 0 0 2.63,2.63 2.63,2.63 0 0 0 2.63,-2.63 z"
       id="path56" />
    <path
       fill="#44341e"
       d="m 70.49,57.77 q 16.66,5.85 34.22,7.7 a 0.62,0.62 0 0 1 0.41,1.01 c -7.1,8.6 -17.65,14.9 -28.84,9.22 Q 65.63,70.31 69.59,58.22 a 0.7,0.7 0 0 1 0.9,-0.45 z m 31.86,8.63 C 91.91,65.66 81.67,62.63 71.81,59.57 A 1.42,1.42 0 0 0 70,60.68 q -1.68,9.51 5.62,13.39 c 10.59,5.64 19.98,1.18 27.09,-6.77 a 0.54,0.54 0 0 0 -0.36,-0.9 z"
       id="path57" />
  </g>
  <g
     id="g58"
     transform="translate(-8.2072389,-2.7592524)">
    <circle
       fill="#1e1614"
       cx="100.97"
       cy="40.82"
       r="2.5799999"
       id="circle57" />
    <circle
       fill="#1e1614"
       cx="66.639999"
       cy="43.639999"
       r="2.6300001"
       id="circle58" />
    <path
       fill="#ffffff"
       d="m 71.81,59.57 c 9.86,3.06 20.1,6.09 30.54,6.83 a 0.54,0.54 0 0 1 0.36,0.9 C 95.6,75.25 86.21,79.71 75.62,74.07 Q 68.32,70.19 70,60.68 a 1.42,1.42 0 0 1 1.81,-1.11 z"
       id="path58" />
  </g>
</svg>
