<?xml version="1.0" encoding="UTF-8" standalone="no"?>
<svg
   version="1.1"
   viewBox="0 0 127.81543 134.35403"
   id="svg46"
   sodipodi:docname="7.svg"
   width="127.81543"
   height="134.35403"
   inkscape:version="1.3 (0e150ed6c4, 2023-07-21)"
   xmlns:inkscape="http://www.inkscape.org/namespaces/inkscape"
   xmlns:sodipodi="http://sodipodi.sourceforge.net/DTD/sodipodi-0.dtd"
   xmlns="http://www.w3.org/2000/svg"
   xmlns:svg="http://www.w3.org/2000/svg">
  <defs
     id="defs46" />
  <sodipodi:namedview
     id="namedview46"
     pagecolor="#28634a"
     bordercolor="#000000"
     borderopacity="0.25"
     inkscape:showpageshadow="2"
     inkscape:pageopacity="0.0"
     inkscape:pagecheckerboard="0"
     inkscape:deskcolor="#d1d1d1"
     inkscape:zoom="5.4335664"
     inkscape:cx="65.426641"
     inkscape:cy="71.5"
     inkscape:window-width="1920"
     inkscape:window-height="991"
     inkscape:window-x="-9"
     inkscape:window-y="-9"
     inkscape:window-maximized="1"
     inkscape:current-layer="svg46" />
  <g
     stroke-width="2"
     fill="none"
     stroke-linecap="butt"
     id="g29"
     transform="translate(-2.5585339,-3.6247088)">
    <path
       stroke="#a39b8f"
       vector-effect="non-scaling-stroke"
       d="m 65.66,84.22 q 19.27,3.01 37.47,-4.84 9.55,-4.12 15.49,-14.49 a 1.33,1.32 -67.7 0 0 -0.81,-1.94 q -0.71,-0.19 -2.12,-0.69 -0.38,-0.14 -0.5,-0.4 -0.13,-0.28 -0.05,-0.55 0.17,-0.53 0.7,-0.38 l 2.77,0.74 a 0.62,0.62 0 0 0 0.77,-0.49 q 0.5,-2.84 -0.35,-5.5 -0.63,-1.96 -1.2,-2.25 -0.94,-0.47 -2.96,0.31 a 0.22,0.22 0 0 1 -0.3,-0.22 q 0.07,-0.97 1.16,-1.14 a 1.18,1.18 0 0 0 0.4,-2.19 l -9.14,-5.22"
       id="path4" />
    <path
       stroke="#a06f1f"
       vector-effect="non-scaling-stroke"
       d="m 106.99,44.97 q 0.33,-6.1 -2.35,-10.93 -4.16,-7.49 -11.38,-12.02 C 92.44,21.5 91.61,19.83 91.38,18.89 Q 89.91,12.82 88.44,6.74 A 0.52,0.52 0 0 0 87.58,6.48 l -10.29,9.55 q -0.35,0.32 0.06,0.58 0.92,0.59 2.33,1.21 0.38,0.16 0.24,0.58 -0.14,0.43 -0.57,0.28 -11.82,-4.22 -23.82,-0.21 a 0.58,0.58 0 0 0 -0.23,0.96 l 1.72,1.75 a 0.43,0.43 0 0 1 -0.54,0.66 L 36.91,8.8 a 0.64,0.63 -76.3 0 0 -0.98,0.6 q 1.26,10.77 2.57,21.9 0.09,0.77 0.01,1.41 -0.12,1.05 -0.35,1.36 -5.84,8.05 -7.33,17.9 -0.07,0.46 0.27,0.78 l 1.11,1.04 q 0.43,0.41 -0.1,0.68 c -2.71,1.36 -0.38,5.14 -0.07,7.41 q 0.32,2.3 1.11,3.58 10.9,17.66 32.51,18.76"
       id="path5" />
    <path
       stroke="#fcd390"
       vector-effect="non-scaling-stroke"
       d="m 106.99,44.97 q -0.71,-3.08 -1.9,-2.25"
       id="path6" />
    <path
       stroke="#a06f1f"
       vector-effect="non-scaling-stroke"
       d="M 105.09,42.72 Q 104.5,31.55 95.15,25.41 c -3.52,-2.31 -8.14,-2.98 -10.58,0.95 -4,6.44 1.54,15.75 6.77,20.21"
       id="path7" />
    <path
       stroke="#fcd390"
       vector-effect="non-scaling-stroke"
       d="m 91.34,46.57 q -1.81,0.68 -0.42,2.06"
       id="path8" />
    <path
       stroke="#a5752d"
       vector-effect="non-scaling-stroke"
       d="M 90.92,48.63 Q 85.26,48.51 80.75,48.47 77.39,48.44 77.54,51.39"
       id="path9" />
    <path
       stroke="#fcd390"
       vector-effect="non-scaling-stroke"
       d="M 77.54,51.39 Q 74.17,51.21 70.95,48.83"
       id="path10" />
    <path
       stroke="#a06f1f"
       vector-effect="non-scaling-stroke"
       d="M 70.95,48.83 Q 72.44,36.81 63.06,30.71 c -4.14,-2.7 -9.42,-3.31 -12.72,0.75 -4.02,4.96 -2.22,12.38 1.59,17.13 q 2.54,3.16 5.47,5.24"
       id="path11" />
    <path
       stroke="#fcd390"
       vector-effect="non-scaling-stroke"
       d="m 57.4,53.83 q -3.5,1.01 -6.86,3.02 c -6.92,4.14 -2.71,14.51 1.85,19.04 q 4.29,4.25 13.27,8.33"
       id="path12" />
    <path
       stroke="#a8a29d"
       vector-effect="non-scaling-stroke"
       d="m 77.54,51.39 q 3.65,4.44 9.07,5.28 a 1.13,1.12 29.2 0 0 0.87,-0.24 q 4.63,-3.68 3.44,-7.8"
       id="path13" />
    <path
       stroke="#a39b8f"
       vector-effect="non-scaling-stroke"
       d="m 105.09,42.72 c -2.53,7.75 -8.05,7.46 -13.75,3.85"
       id="path14" />
    <path
       stroke="#a39b8f"
       vector-effect="non-scaling-stroke"
       d="m 70.95,48.83 q -4.04,8.38 -13.55,5"
       id="path15" />
    <path
       stroke="#a06f1f"
       vector-effect="non-scaling-stroke"
       d="M 56.61,98.35 C 57.98,94.83 64.18,87.17 56.46,85.6 q -2.21,-0.45 -3.42,1.67 -3.66,6.46 -6.53,12.65 a 4.07,4.07 0 0 0 2.29,5.53 q 6.51,2.4 13.46,5.08 c 2.46,0.94 4.75,1.15 6.15,-1.5 3.06,-5.8 -7.66,-8.11 -11.17,-9.33 a 1.04,1.03 20.5 0 1 -0.63,-1.35"
       id="path16" />
    <path
       stroke="#a39b8f"
       vector-effect="non-scaling-stroke"
       d="m 61.66,92.1 -3.17,5.43 a 1.04,1.04 0 0 0 0.7,1.55 q 5.85,1.17 10.48,4.85 0.44,0.35 0.8,-0.09 2.07,-2.64 2.87,-6.06"
       id="path17" />
    <path
       stroke="#a06f1f"
       vector-effect="non-scaling-stroke"
       d="M 73.34,97.78 C 75.11,94.79 77.4,87.23 71.85,86.66 q -5.38,-0.56 -10.6,-1.1 a 0.46,0.45 78.1 0 0 -0.44,0.68 q 1.47,2.53 0.85,5.86"
       id="path18" />
    <path
       stroke="#fcd390"
       vector-effect="non-scaling-stroke"
       d="M 73.34,97.78 Q 68.69,92.56 61.66,92.1"
       id="path19" />
    <path
       stroke="#a39b8f"
       vector-effect="non-scaling-stroke"
       d="M 18.98,99.64 Q 16.3,96.06 10.88,88.16 9.86,86.67 8.01,86.45 a 1.2,1.18 29.7 0 0 -0.83,0.22 c -6.69,4.97 -2.09,16.06 2.89,20.94"
       id="path20" />
    <path
       stroke="#a06f1f"
       vector-effect="non-scaling-stroke"
       d="m 10.07,107.61 q 4.28,4.01 11.95,5.6 12.23,2.54 22.89,-2.33 0.43,-0.2 0.86,0 3.94,1.81 7.89,0 0.61,-0.28 0.87,0.34 l 0.26,0.6 q 0.24,0.57 -0.38,0.61 l -9.5,0.62 a 1.18,1.15 -68.9 0 0 -0.74,0.34 c -3.06,3.11 -2.47,6.22 0.59,9.19 2.35,2.27 9.12,8.47 12.24,8.42 4.62,-0.06 5.75,-4.72 3.78,-8.29 a 0.54,0.53 74.1 0 1 0.44,-0.8 c 3.04,-0.17 7.62,0.11 9.9,-1.57 3.26,-2.4 1.49,-7.19 -1.85,-9.01 q -0.41,-0.22 -0.78,0.05 -2.78,1.98 -6.47,0.53 c -4.04,-1.58 -8.04,-3.19 -12.16,-4.55 -3.75,-1.24 -6.31,-4.58 -4.57,-8.37 q 1.65,-3.58 6.53,-12.25 A 0.39,0.39 0 0 0 51.4,86.16 q -0.84,0.18 -1.43,1.09 c -2.89,4.48 -8.62,9.46 -7.58,16.7 A 0.77,0.75 -19.1 0 1 42,104.73 c -8.14,4.43 -17.35,1.6 -23.02,-5.09"
       id="path21" />
    <path
       stroke="#fcd390"
       vector-effect="non-scaling-stroke"
       d="m 10.07,107.61 q -0.49,-6.1 3.65,-7.31 0.69,-0.2 2.61,-0.08 1.82,0.11 2.65,-0.58"
       id="path22" />
    <path
       stroke="#a06f1f"
       vector-effect="non-scaling-stroke"
       d="m 41.57,122.22 c -3.61,2.62 -13.73,8.06 -6.33,13.45 q 0.39,0.29 0.88,0.31 8.81,0.42 17.63,0.32 3.29,-0.04 4.96,-3.27 a 0.69,0.69 0 0 0 -0.8,-0.98 c -4.12,1.2 -12.62,-6.94 -15.14,-9.71 q -0.54,-0.6 -1.2,-0.12"
       id="path23" />
    <path
       stroke="#a39b8f"
       vector-effect="non-scaling-stroke"
       d="m 100.9864,47.2397 a 12.86,7.71 57.2 0 0 -0.4856,-14.9863 12.86,7.71 57.2 0 0 -13.4472,-6.6331 12.86,7.71 57.2 0 0 0.4856,14.9863 12.86,7.71 57.2 0 0 13.4472,6.6331"
       id="path24" />
    <path
       stroke="#8c8a88"
       vector-effect="non-scaling-stroke"
       d="m 100.09,41.76 a 2.62,2.62 0 0 0 -2.62,-2.62 2.62,2.62 0 0 0 -2.62,2.62 2.62,2.62 0 0 0 2.62,2.62 2.62,2.62 0 0 0 2.62,-2.62"
       id="path25" />
    <path
       stroke="#a39b8f"
       vector-effect="non-scaling-stroke"
       d="m 66.6804,52.5405 a 12.89,9.3 57 0 0 0.7792,-15.8756 12.89,9.3 57 0 0 -14.82,-5.7454 12.89,9.3 57 0 0 -0.7792,15.8756 12.89,9.3 57 0 0 14.82,5.7454"
       id="path26" />
    <path
       stroke="#8c8a88"
       vector-effect="non-scaling-stroke"
       d="M 62.9452,47.18 A 2.73,2.51 90.1 0 0 65.46,44.4544 2.73,2.51 90.1 0 0 62.9548,41.72 2.73,2.51 90.1 0 0 60.44,44.4456 2.73,2.51 90.1 0 0 62.9452,47.18"
       id="path27" />
    <path
       stroke="#a8a29d"
       vector-effect="non-scaling-stroke"
       d="M 96.41,65.63 Q 81.26,63.61 66.93,58.75 a 0.78,0.78 0 0 0 -0.98,0.46 Q 61.66,70.33 71.7,76.2 c 11.2,6.53 22.93,0.13 29.75,-8.83 a 0.54,0.54 0 0 0 -0.3,-0.85 q -2.31,-0.56 -4.74,-0.89"
       id="path28" />
    <path
       stroke="#a8a29d"
       vector-effect="non-scaling-stroke"
       d="M 98.79,67.46 Q 82.99,65.55 67.93,60.39 a 0.99,0.98 -74.6 0 0 -1.28,0.73 c -1.48,7.07 0.5,11.67 7.11,14.72 q 5.59,2.59 11.47,1.29 8.22,-1.8 13.82,-9.05 0.42,-0.54 -0.26,-0.62"
       id="path29" />
  </g>
  <g
     id="g32"
     transform="translate(-2.5585339,-3.6247088)">
    <path
       fill="#47371e"
       d="m 51.83,84.11 a 0.66,0.66 0 0 0 0.05,-1.25 Q 36.64,76.81 30.07,61.73 29.86,61.25 29.34,61.3 23.18,61.87 17,61.32 16.2,61.25 16.27,60.51 a 0.66,0.66 0 0 1 0.76,-0.6 q 6.11,0.89 12.2,-0.13 0.5,-0.08 0.48,-0.59 l -0.27,-5.3 A 0.74,0.71 14 0 0 29.07,53.3 Q 22.76,49.67 15.78,47.52 a 0.67,0.66 5.6 0 1 -0.46,-0.55 q -0.14,-1.26 1.23,-0.76 6.35,2.29 12.39,5.36 0.55,0.28 0.63,-0.34 1.36,-9.55 7.1,-17.3 a 2.72,2.7 -30.1 0 0 0.52,-1.92 L 34.22,6.68 a 0.55,0.55 0 0 1 0.84,-0.53 l 17.68,11.39 q 0.42,0.27 0.9,0.11 9.12,-3.11 18.57,-2.2 C 77.62,15.97 84.67,7.43 88.17,3.8 a 0.58,0.57 -30.2 0 1 0.97,0.25 L 93,19.27 a 1.81,1.8 13.3 0 0 0.59,0.95 c 6.65,5.76 12.69,10.51 14.77,19.41 q 0.74,3.2 1.1,4.82 a 1.04,1.02 -84.7 0 0 0.61,0.75 q 4.81,2.05 8.35,5.9 a 0.81,0.8 64.5 0 0 0.71,0.26 q 5.86,-0.79 10.55,-4.34 a 0.39,0.39 0 0 1 0.62,0.25 l 0.06,0.45 q 0.09,0.57 -0.4,0.88 -4.6,2.88 -9.91,4.08 a 0.53,0.53 0 0 0 -0.34,0.77 q 2.07,3.8 1.17,8.08 a 0.75,0.74 7.9 0 0 0.69,0.9 l 7.31,0.4 a 0.53,0.52 -4.2 0 1 0.49,0.42 q 0.19,0.99 -0.62,0.97 -3.74,-0.11 -7.51,-0.4 -0.52,-0.05 -0.74,0.43 C 112.81,80.93 93.47,86.28 76.43,86.59 A 0.48,0.48 0 0 0 76,87.27 c 2.55,5.76 -1.93,13.82 -5.46,19.23 q -0.6,0.94 -0.35,3.32 a 1,1 0 0 0 0.46,0.74 c 6.07,3.75 4.21,12.33 -3.15,12.48 q -2.75,0.06 -4.12,0.11 a 0.51,0.51 0 0 0 -0.47,0.65 q 1.26,4.38 -2.06,7.3 a 1.28,1.23 75.2 0 0 -0.39,0.7 c -0.8,4.57 -3.58,5.92 -8.12,5.95 -4.19,0.02 -15.38,1.03 -18.5,-1.36 -3.97,-3.05 -3.29,-8 0.74,-10.8 q 3.09,-2.15 6.07,-4.5 0.43,-0.34 0.29,-0.88 -0.83,-3.17 0.71,-6.04 0.33,-0.62 -0.34,-0.41 C 30.03,117.19 14.92,115.8 7.09,106.5 2.99,101.63 -0.86,88.41 7.62,85.09 q 0.46,-0.18 0.92,0 c 3.82,1.43 6.89,7.27 9.06,10.59 5.09,7.79 13.61,12.41 22.85,8.43 a 0.94,0.92 -14.6 0 0 0.56,-0.93 c -0.23,-2.52 -0.24,-4.7 1.19,-6.96 1.75,-2.77 6.7,-11.2 9.63,-12.11 z m 13.83,0.11 q 19.27,3.01 37.47,-4.84 9.55,-4.12 15.49,-14.49 a 1.33,1.32 -67.7 0 0 -0.81,-1.94 q -0.71,-0.19 -2.12,-0.69 -0.38,-0.14 -0.5,-0.4 -0.13,-0.28 -0.05,-0.55 0.17,-0.53 0.7,-0.38 l 2.77,0.74 a 0.62,0.62 0 0 0 0.77,-0.49 q 0.5,-2.84 -0.35,-5.5 -0.63,-1.96 -1.2,-2.25 -0.94,-0.47 -2.96,0.31 a 0.22,0.22 0 0 1 -0.3,-0.22 q 0.07,-0.97 1.16,-1.14 a 1.18,1.18 0 0 0 0.4,-2.19 l -9.14,-5.22 q 0.33,-6.1 -2.35,-10.93 -4.16,-7.49 -11.38,-12.02 C 92.44,21.5 91.61,19.83 91.38,18.89 Q 89.91,12.82 88.44,6.74 A 0.52,0.52 0 0 0 87.58,6.48 l -10.29,9.55 q -0.35,0.32 0.06,0.58 0.92,0.59 2.33,1.21 0.38,0.16 0.24,0.58 -0.14,0.43 -0.57,0.28 -11.82,-4.22 -23.82,-0.21 a 0.58,0.58 0 0 0 -0.23,0.96 l 1.72,1.75 a 0.43,0.43 0 0 1 -0.54,0.66 L 36.91,8.8 a 0.64,0.63 -76.3 0 0 -0.98,0.6 q 1.26,10.77 2.57,21.9 0.09,0.77 0.01,1.41 -0.12,1.05 -0.35,1.36 -5.84,8.05 -7.33,17.9 -0.07,0.46 0.27,0.78 l 1.11,1.04 q 0.43,0.41 -0.1,0.68 c -2.71,1.36 -0.38,5.14 -0.07,7.41 q 0.32,2.3 1.11,3.58 10.9,17.66 32.51,18.76 z M 56.61,98.35 C 57.98,94.83 64.18,87.17 56.46,85.6 q -2.21,-0.45 -3.42,1.67 -3.66,6.46 -6.53,12.65 a 4.07,4.07 0 0 0 2.29,5.53 q 6.51,2.4 13.46,5.08 c 2.46,0.94 4.75,1.15 6.15,-1.5 3.06,-5.8 -7.66,-8.11 -11.17,-9.33 a 1.04,1.03 20.5 0 1 -0.63,-1.35 z m 5.05,-6.25 -3.17,5.43 a 1.04,1.04 0 0 0 0.7,1.55 q 5.85,1.17 10.48,4.85 0.44,0.35 0.8,-0.09 2.07,-2.64 2.87,-6.06 C 75.11,94.79 77.4,87.23 71.85,86.66 q -5.38,-0.56 -10.6,-1.1 a 0.46,0.45 78.1 0 0 -0.44,0.68 q 1.47,2.53 0.85,5.86 z M 18.98,99.64 Q 16.3,96.06 10.88,88.16 9.86,86.67 8.01,86.45 a 1.2,1.18 29.7 0 0 -0.83,0.22 c -6.69,4.97 -2.09,16.06 2.89,20.94 q 4.28,4.01 11.95,5.6 12.23,2.54 22.89,-2.33 0.43,-0.2 0.86,0 3.94,1.81 7.89,0 0.61,-0.28 0.87,0.34 l 0.26,0.6 q 0.24,0.57 -0.38,0.61 l -9.5,0.62 a 1.18,1.15 -68.9 0 0 -0.74,0.34 c -3.06,3.11 -2.47,6.22 0.59,9.19 2.35,2.27 9.12,8.47 12.24,8.42 4.62,-0.06 5.75,-4.72 3.78,-8.29 a 0.54,0.53 74.1 0 1 0.44,-0.8 c 3.04,-0.17 7.62,0.11 9.9,-1.57 3.26,-2.4 1.49,-7.19 -1.85,-9.01 q -0.41,-0.22 -0.78,0.05 -2.78,1.98 -6.47,0.53 c -4.04,-1.58 -8.04,-3.19 -12.16,-4.55 -3.75,-1.24 -6.31,-4.58 -4.57,-8.37 q 1.65,-3.58 6.53,-12.25 A 0.39,0.39 0 0 0 51.4,86.16 q -0.84,0.18 -1.43,1.09 c -2.89,4.48 -8.62,9.46 -7.58,16.7 A 0.77,0.75 -19.1 0 1 42,104.73 c -8.14,4.43 -17.35,1.6 -23.02,-5.09 z m 22.59,22.58 c -3.61,2.62 -13.73,8.06 -6.33,13.45 q 0.39,0.29 0.88,0.31 8.81,0.42 17.63,0.32 3.29,-0.04 4.96,-3.27 a 0.69,0.69 0 0 0 -0.8,-0.98 c -4.12,1.2 -12.62,-6.94 -15.14,-9.71 q -0.54,-0.6 -1.2,-0.12 z"
       id="path31" />
  </g>
  <g
     id="g42"
     transform="translate(-2.5585339,-3.6247088)">
    <path
       fill="#f9a620"
       d="m 106.99,44.97 q -0.71,-3.08 -1.9,-2.25 -0.59,-11.17 -9.94,-17.31 c -3.52,-2.31 -8.14,-2.98 -10.58,0.95 -4,6.44 1.54,15.75 6.77,20.21 q -1.81,0.68 -0.42,2.06 -5.66,-0.12 -10.17,-0.16 -3.36,-0.03 -3.21,2.92 -3.37,-0.18 -6.59,-2.56 1.49,-12.02 -7.89,-18.12 c -4.14,-2.7 -9.42,-3.31 -12.72,0.75 -4.02,4.96 -2.22,12.38 1.59,17.13 q 2.54,3.16 5.47,5.24 -3.5,1.01 -6.86,3.02 c -6.92,4.14 -2.71,14.51 1.85,19.04 q 4.29,4.25 13.27,8.33 -21.61,-1.1 -32.51,-18.76 -0.79,-1.28 -1.11,-3.58 c -0.31,-2.27 -2.64,-6.05 0.07,-7.41 q 0.53,-0.27 0.1,-0.68 L 31.1,52.75 q -0.34,-0.32 -0.27,-0.78 1.49,-9.85 7.33,-17.9 0.23,-0.31 0.35,-1.36 Q 38.59,32.07 38.5,31.3 37.19,20.17 35.93,9.4 a 0.64,0.63 -76.3 0 1 0.98,-0.6 l 19.57,13.04 a 0.43,0.43 0 0 0 0.54,-0.66 L 55.3,19.43 a 0.58,0.58 0 0 1 0.23,-0.96 q 12,-4.01 23.82,0.21 0.43,0.15 0.57,-0.28 0.14,-0.42 -0.24,-0.58 -1.41,-0.62 -2.33,-1.21 -0.41,-0.26 -0.06,-0.58 L 87.58,6.48 a 0.52,0.52 0 0 1 0.86,0.26 q 1.47,6.08 2.94,12.15 c 0.23,0.94 1.06,2.61 1.88,3.13 q 7.22,4.53 11.38,12.02 2.68,4.83 2.35,10.93 z"
       id="path32" />
    <path
       fill="#47371e"
       d="m 105.09,42.72 c -2.53,7.75 -8.05,7.46 -13.75,3.85 C 86.11,42.11 80.57,32.8 84.57,26.36 87.01,22.43 91.63,23.1 95.15,25.41 q 9.35,6.14 9.94,17.31 z m -4.1036,4.5197 a 12.86,7.71 57.2 0 0 -0.4856,-14.9863 12.86,7.71 57.2 0 0 -13.4472,-6.6331 12.86,7.71 57.2 0 0 0.4856,14.9863 12.86,7.71 57.2 0 0 13.4472,6.6331 z"
       id="path33" />
    <path
       fill="#47371e"
       d="m 70.95,48.83 q -4.04,8.38 -13.55,5 -2.93,-2.08 -5.47,-5.24 c -3.81,-4.75 -5.61,-12.17 -1.59,-17.13 3.3,-4.06 8.58,-3.45 12.72,-0.75 q 9.38,6.1 7.89,18.12 z m -4.2696,3.7105 a 12.89,9.3 57 0 0 0.7792,-15.8756 12.89,9.3 57 0 0 -14.82,-5.7454 12.89,9.3 57 0 0 -0.7792,15.8756 12.89,9.3 57 0 0 14.82,5.7454 z"
       id="path34" />
    <path
       fill="#ffffff"
       d="m 106.99,44.97 9.14,5.22 a 1.18,1.18 0 0 1 -0.4,2.19 q -1.09,0.17 -1.16,1.14 a 0.22,0.22 0 0 0 0.3,0.22 q 2.02,-0.78 2.96,-0.31 0.57,0.29 1.2,2.25 0.85,2.66 0.35,5.5 a 0.62,0.62 0 0 1 -0.77,0.49 l -2.77,-0.74 q -0.53,-0.15 -0.7,0.38 -0.08,0.27 0.05,0.55 0.12,0.26 0.5,0.4 1.41,0.5 2.12,0.69 a 1.33,1.32 -67.7 0 1 0.81,1.94 q -5.94,10.37 -15.49,14.49 -18.2,7.85 -37.47,4.84 -8.98,-4.08 -13.27,-8.33 C 47.83,71.36 43.62,60.99 50.54,56.85 q 3.36,-2.01 6.86,-3.02 9.51,3.38 13.55,-5 3.22,2.38 6.59,2.56 3.65,4.44 9.07,5.28 a 1.13,1.12 29.2 0 0 0.87,-0.24 q 4.63,-3.68 3.44,-7.8 -1.39,-1.38 0.42,-2.06 c 5.7,3.61 11.22,3.9 13.75,-3.85 q 1.19,-0.83 1.9,2.25 z M 96.41,65.63 Q 81.26,63.61 66.93,58.75 a 0.78,0.78 0 0 0 -0.98,0.46 Q 61.66,70.33 71.7,76.2 c 11.2,6.53 22.93,0.13 29.75,-8.83 a 0.54,0.54 0 0 0 -0.3,-0.85 q -2.31,-0.56 -4.74,-0.89 z"
       id="path35" />
    <path
       fill="#51443a"
       d="m 90.92,48.63 q 1.19,4.12 -3.44,7.8 a 1.13,1.12 29.2 0 1 -0.87,0.24 q -5.42,-0.84 -9.07,-5.28 -0.15,-2.95 3.21,-2.92 4.51,0.04 10.17,0.16 z"
       id="path36" />
    <path
       fill="#f9a620"
       d="m 56.61,98.35 a 1.04,1.03 20.5 0 0 0.63,1.35 c 3.51,1.22 14.23,3.53 11.17,9.33 -1.4,2.65 -3.69,2.44 -6.15,1.5 q -6.95,-2.68 -13.46,-5.08 a 4.07,4.07 0 0 1 -2.29,-5.53 q 2.87,-6.19 6.53,-12.65 1.21,-2.12 3.42,-1.67 c 7.72,1.57 1.52,9.23 0.15,12.75 z"
       id="path37" />
    <path
       fill="#f9a620"
       d="M 73.34,97.78 Q 68.69,92.56 61.66,92.1 62.28,88.77 60.81,86.24 a 0.46,0.45 78.1 0 1 0.44,-0.68 q 5.22,0.54 10.6,1.1 c 5.55,0.57 3.26,8.13 1.49,11.12 z"
       id="path38" />
    <path
       fill="#f9a620"
       d="m 10.07,107.61 q -0.49,-6.1 3.65,-7.31 0.69,-0.2 2.61,-0.08 1.82,0.11 2.65,-0.58 c 5.67,6.69 14.88,9.52 23.02,5.09 a 0.77,0.75 -19.1 0 0 0.39,-0.78 c -1.04,-7.24 4.69,-12.22 7.58,-16.7 q 0.59,-0.91 1.43,-1.09 a 0.39,0.39 0 0 1 0.42,0.58 q -4.88,8.67 -6.53,12.25 c -1.74,3.79 0.82,7.13 4.57,8.37 4.12,1.36 8.12,2.97 12.16,4.55 q 3.69,1.45 6.47,-0.53 0.37,-0.27 0.78,-0.05 c 3.34,1.82 5.11,6.61 1.85,9.01 -2.28,1.68 -6.86,1.4 -9.9,1.57 a 0.54,0.53 74.1 0 0 -0.44,0.8 c 1.97,3.57 0.84,8.23 -3.78,8.29 -3.12,0.05 -9.89,-6.15 -12.24,-8.42 -3.06,-2.97 -3.65,-6.08 -0.59,-9.19 a 1.18,1.15 -68.9 0 1 0.74,-0.34 l 9.5,-0.62 q 0.62,-0.04 0.38,-0.61 l -0.26,-0.6 q -0.26,-0.62 -0.87,-0.34 -3.95,1.81 -7.89,0 -0.43,-0.2 -0.86,0 -10.66,4.87 -22.89,2.33 -7.67,-1.59 -11.95,-5.6 z"
       id="path39" />
    <path
       fill="#ffffff"
       d="m 18.98,99.64 q -0.83,0.69 -2.65,0.58 -1.92,-0.12 -2.61,0.08 -4.14,1.21 -3.65,7.31 C 5.09,102.73 0.49,91.64 7.18,86.67 a 1.2,1.18 29.7 0 1 0.83,-0.22 q 1.85,0.22 2.87,1.71 5.42,7.9 8.1,11.48 z"
       id="path40" />
    <path
       fill="#ffffff"
       d="m 61.66,92.1 q 7.03,0.46 11.68,5.68 -0.8,3.42 -2.87,6.06 -0.36,0.44 -0.8,0.09 -4.63,-3.68 -10.48,-4.85 a 1.04,1.04 0 0 1 -0.7,-1.55 z"
       id="path41" />
    <path
       fill="#f9a620"
       d="m 41.57,122.22 q 0.66,-0.48 1.2,0.12 c 2.52,2.77 11.02,10.91 15.14,9.71 a 0.69,0.69 0 0 1 0.8,0.98 q -1.67,3.23 -4.96,3.27 -8.82,0.1 -17.63,-0.32 -0.49,-0.02 -0.88,-0.31 c -7.4,-5.39 2.72,-10.83 6.33,-13.45 z"
       id="path42" />
  </g>
  <g
     id="g45"
     transform="translate(-2.5585339,-3.6247088)">
    <path
       fill="#ffffff"
       d="m 100.9864,47.2397 a 12.86,7.71 57.2 0 1 -13.4472,-6.6331 12.86,7.71 57.2 0 1 -0.4856,-14.9863 12.86,7.71 57.2 0 1 13.4472,6.6331 12.86,7.71 57.2 0 1 0.4856,14.9863 z M 100.09,41.76 a 2.62,2.62 0 0 0 -2.62,-2.62 2.62,2.62 0 0 0 -2.62,2.62 2.62,2.62 0 0 0 2.62,2.62 2.62,2.62 0 0 0 2.62,-2.62 z"
       id="path43" />
    <path
       fill="#ffffff"
       d="m 66.6804,52.5405 a 12.89,9.3 57 0 1 -14.82,-5.7454 12.89,9.3 57 0 1 0.7792,-15.8756 12.89,9.3 57 0 1 14.82,5.7454 12.89,9.3 57 0 1 -0.7792,15.8756 z M 62.9452,47.18 A 2.73,2.51 90.1 0 0 65.46,44.4544 2.73,2.51 90.1 0 0 62.9548,41.72 2.73,2.51 90.1 0 0 60.44,44.4456 2.73,2.51 90.1 0 0 62.9452,47.18 Z"
       id="path44" />
    <path
       fill="#51443a"
       d="m 96.41,65.63 q 2.43,0.33 4.74,0.89 a 0.54,0.54 0 0 1 0.3,0.85 C 94.63,76.33 82.9,82.73 71.7,76.2 Q 61.66,70.33 65.95,59.21 a 0.78,0.78 0 0 1 0.98,-0.46 q 14.33,4.86 29.48,6.88 z m 2.38,1.83 Q 82.99,65.55 67.93,60.39 a 0.99,0.98 -74.6 0 0 -1.28,0.73 c -1.48,7.07 0.5,11.67 7.11,14.72 q 5.59,2.59 11.47,1.29 8.22,-1.8 13.82,-9.05 0.42,-0.54 -0.26,-0.62 z"
       id="path45" />
  </g>
  <g
     id="g46"
     transform="translate(-2.5585339,-3.6247088)">
    <circle
       fill="#191511"
       cx="97.470001"
       cy="41.759998"
       r="2.6199999"
       id="circle45" />
    <ellipse
       fill="#191511"
       cx="0"
       cy="0"
       transform="rotate(90.1,9.2887561,53.645114)"
       rx="2.73"
       ry="2.51"
       id="ellipse45" />
    <path
       fill="#ffffff"
       d="m 99.05,68.08 q -5.6,7.25 -13.82,9.05 -5.88,1.3 -11.47,-1.29 C 67.15,72.79 65.17,68.19 66.65,61.12 a 0.99,0.98 -74.6 0 1 1.28,-0.73 q 15.06,5.16 30.86,7.07 0.68,0.08 0.26,0.62 z"
       id="path46" />
  </g>
</svg>
