<?xml version="1.0" encoding="UTF-8" standalone="no"?>
<svg
   version="1.1"
   viewBox="0 0 130.88948 139.31"
   id="svg59"
   sodipodi:docname="8.svg"
   inkscape:export-filename="8.svg"
   inkscape:export-xdpi="96"
   inkscape:export-ydpi="96"
   width="130.88948"
   height="139.31"
   inkscape:version="1.3 (0e150ed6c4, 2023-07-21)"
   xmlns:inkscape="http://www.inkscape.org/namespaces/inkscape"
   xmlns:sodipodi="http://sodipodi.sourceforge.net/DTD/sodipodi-0.dtd"
   xmlns="http://www.w3.org/2000/svg"
   xmlns:svg="http://www.w3.org/2000/svg">
  <defs
     id="defs59" />
  <sodipodi:namedview
     id="namedview59"
     pagecolor="#411717"
     bordercolor="#000000"
     borderopacity="0.25"
     inkscape:showpageshadow="2"
     inkscape:pageopacity="0.0"
     inkscape:pagecheckerboard="true"
     inkscape:deskcolor="#d1d1d1"
     inkscape:zoom="5.0784314"
     inkscape:cx="73.546332"
     inkscape:cy="76.303089"
     inkscape:window-width="1920"
     inkscape:window-height="991"
     inkscape:window-x="-9"
     inkscape:window-y="-9"
     inkscape:window-maximized="1"
     inkscape:current-layer="svg59" />
  <g
     stroke-width="2"
     fill="none"
     stroke-linecap="butt"
     id="g39"
     transform="translate(-7.8541618,-5.59)">
    <path
       stroke="#9f6f20"
       vector-effect="non-scaling-stroke"
       d="m 59.96,113.2 8.16,3.13 a 0.5,0.49 -50.9 0 1 0.09,0.88 c -4.79,3.06 -3.38,7.48 1.18,9.65 q 8.52,4.04 12.71,5.87 c 7.56,3.3 10.67,-7.22 3.29,-9.27 a 0.72,0.72 0 0 1 0.06,-1.4 c 2.25,-0.4 4.48,-1.63 5.15,-3.93 0.98,-3.39 -1.15,-5.08 -4.17,-6.17 q -5.03,-1.81 -10.05,-3.65"
       id="path10" />
    <path
       stroke="#a29c90"
       vector-effect="non-scaling-stroke"
       d="m 76.38,108.31 q 3.45,-3.43 5.07,-8.01"
       id="path11" />
    <path
       stroke="#9f6f20"
       vector-effect="non-scaling-stroke"
       d="m 81.45,100.3 c 1.56,-2.71 3.53,-8.47 0.81,-11.51 A 1.3,1.29 69.6 0 0 81.31,88.35 Q 73.01,88.2 64.98,86.23 a 0.45,0.45 0 0 0 -0.47,0.71 q 1.79,2.35 1.1,4.88 c -1.3,4.82 -8.65,5.49 -12.68,6.89 q -0.5,0.18 -0.56,0.72 c -0.54,4.9 -1,9.68 3.62,12.74 q 0.42,0.28 0.92,0.19 1.38,-0.25 1.78,0.48"
       id="path12" />
    <path
       stroke="#a29c90"
       vector-effect="non-scaling-stroke"
       d="m 73.59,85.84 c 18.12,2.99 45.05,-1.1 53.7,-20.31 a 0.49,0.48 -68.5 0 0 -0.28,-0.66 l -3.49,-1.18 a 0.58345951,0.58345951 0 0 1 0.36,-1.11 q 3.71,1.18 3.86,0.17 0.57,-3.8 -1.19,-7.61 a 0.89,0.89 0 0 0 -1.42,-0.28 q -0.86,0.82 -2.04,0.57 a 0.54,0.54 0 0 1 -0.12,-1.01 l 1.4,-0.69 a 0.93,0.93 0 0 0 0.09,-1.62 q -3.84,-2.48 -7,-3.82 c -1.59,-0.67 -2.23,-1.8 -2.66,-3.31"
       id="path14" />
    <path
       stroke="#9f6f20"
       vector-effect="non-scaling-stroke"
       d="m 114.8,44.98 q 0.75,-1.21 0.17,-3.51 -1.99,-7.9 -7,-12.97 c -3.74,-3.78 -7.37,-3.76 -8.84,-9.83 Q 97.92,13.64 97,8.74 A 0.8,0.79 -26.9 0 0 95.68,8.31 L 85.4,17.78 a 0.42,0.42 0 0 0 0.15,0.7 q 1.3,0.45 2.43,1.2 a 0.53164838,0.53164838 0 0 1 -0.55,0.91 C 81.01,17.08 71.4,18.15 64.47,19.94 a 1.03,1.03 0 0 0 -0.44,1.76 l 1.37,1.26 a 0.51026976,0.50026447 -6.6 0 1 -0.63,0.79 L 44.6,10.18 a 0.44,0.43 -76.8 0 0 -0.67,0.42 q 1.37,11.14 2.69,22.39 c 0.16,1.4 -0.23,2.82 -0.98,3.87 C 43.45,39.97 37,51.9 39.88,55.25 q 0.35,0.41 -0.02,0.8 c -1.94,2.04 -0.22,4.79 0.18,7.02 1.23,6.79 7.35,12.64 13.18,16.45 q 9.67,6.3 20.37,6.32"
       id="path15" />
    <path
       stroke="#fcd290"
       vector-effect="non-scaling-stroke"
       d="m 114.8,44.98 q -0.61,-0.46 -1.44,-0.4"
       id="path16" />
    <path
       stroke="#ac7728"
       vector-effect="non-scaling-stroke"
       d="M 113.36,44.58 Q 112.6,34.04 104.31,27.74 c -3.25,-2.47 -7.48,-3.94 -10.58,-0.69 -5.71,5.97 0.54,16.78 5.58,21.11"
       id="path17" />
    <path
       stroke="#fcd290"
       vector-effect="non-scaling-stroke"
       d="m 99.31,48.16 q -0.74,0.65 -0.37,2.08"
       id="path18" />
    <path
       stroke="#ac7728"
       vector-effect="non-scaling-stroke"
       d="m 98.94,50.24 q -5.2,0.01 -10.44,0.03 -2.92,0.01 -3.05,2.68"
       id="path19" />
    <path
       stroke="#fcd290"
       vector-effect="non-scaling-stroke"
       d="m 85.45,52.95 q -2.89,0.27 -6.26,-2.23"
       id="path20" />
    <path
       stroke="#ac7728"
       vector-effect="non-scaling-stroke"
       d="M 79.19,50.72 Q 80.81,39.06 71.62,32.75 C 61.6,25.87 53.16,34.89 57.09,44.97 q 2.72,6.99 8.71,10.58"
       id="path21" />
    <path
       stroke="#fcd290"
       vector-effect="non-scaling-stroke"
       d="m 65.8,55.55 c -3.22,0.72 -7.64,2.39 -9.57,5.14 q -1.15,1.63 -1.15,2.6 c -0.02,13.13 8.48,17.27 18.51,22.55"
       id="path22" />
    <path
       stroke="#afa497"
       vector-effect="non-scaling-stroke"
       d="m 113.36,44.58 q -1.81,5.97 -7.11,6.4 -1.93,0.15 -6.94,-2.82"
       id="path23" />
    <path
       stroke="#afa497"
       vector-effect="non-scaling-stroke"
       d="m 79.19,50.72 q -4.14,8.1 -13.39,4.83"
       id="path24" />
    <path
       stroke="#afa497"
       vector-effect="non-scaling-stroke"
       d="m 85.45,52.95 q 3.92,4.15 9.31,5.62 0.52,0.14 0.93,-0.21 c 1.82,-1.6 5.43,-5.45 3.25,-8.12"
       id="path25" />
    <path
       stroke="#9f6f20"
       vector-effect="non-scaling-stroke"
       d="m 51.3,97.71 q 3,-0.94 9.46,-2.85 c 5.52,-1.63 3.59,-9.18 -0.28,-8.48 q -5.04,0.91 -14.98,4.6 c -2.06,0.76 -3.2,1.81 -3.19,4.01 q 0,7.02 0.49,14 c 0.45,6.37 8.57,4.93 8.29,-0.22 q -0.4,-7.12 -0.45,-10.14 a 0.95,0.94 81 0 1 0.66,-0.92"
       id="path26" />
    <path
       stroke="#9f6f20"
       vector-effect="non-scaling-stroke"
       d="m 97.49,106.62 c 3.1,-1.67 2.92,-7.43 -1,-7.63 q -3.39,-0.17 -12.6,0.47 -0.42,0.03 -0.62,0.41 l -3.9,7.54 a 0.48,0.48 0 0 0 0.46,0.7 q 6.85,-0.53 13.54,-0.74 2.9,-0.09 4.12,-0.75"
       id="path27" />
    <path
       stroke="#9f6f20"
       vector-effect="non-scaling-stroke"
       d="m 21.78,122.35 c 10.75,3.53 23.55,-2.61 31.2,-9.89 a 0.61,0.61 0 0 0 0.09,-0.77 l -0.41,-0.65 q -0.37,-0.57 -0.67,0.03 c -2.01,4.09 -6.38,4.82 -9.65,1.25 a 0.88,0.87 59.9 0 0 -0.88,-0.24 q -7.73,2.2 -14.3,-0.29"
       id="path28" />
    <path
       stroke="#a29c90"
       vector-effect="non-scaling-stroke"
       d="m 27.16,111.79 q -6.97,-3.38 -12.62,-6.62 c -4.29,-2.46 -5.69,2.44 -4.71,5.58 q 2.72,8.77 11.95,11.6"
       id="path29" />
    <path
       stroke="#fcd290"
       vector-effect="non-scaling-stroke"
       d="m 27.16,111.79 q -4.86,1.92 -6.24,5.26 c -0.68,1.67 0.38,3.21 1.55,4.29 a 0.61,0.61 0 0 1 -0.12,0.99 q -0.18,0.11 -0.57,0.02"
       id="path30" />
    <path
       stroke="#9f6f20"
       vector-effect="non-scaling-stroke"
       d="m 35.09,133.28 a 0.79,0.79 0 0 1 -0.32,-1.49 c 4.28,-2.17 8.56,-3.99 11.86,-7.61 2.92,-3.2 6.11,-6.58 8.68,-10.05 A 0.86123458,0.86123458 0 0 0 54.01,113 q -10.14,10.06 -24.16,11.77 -2.98,0.36 -5.02,1.33 c -4.48,2.13 -13.92,6.27 -5.74,12.3 3.96,2.93 5.78,4.81 10.93,4.84 4.12,0.02 14.08,1.63 14.49,-4.32 0.41,-6.01 -5.55,-5.44 -9.42,-5.64"
       id="path31" />
    <path
       stroke="#afa497"
       vector-effect="non-scaling-stroke"
       d="M 109.264,49.0124 A 12.87,7.71 57.4 0 0 108.8253,34.0161 12.87,7.71 57.4 0 0 95.396,27.3276 12.87,7.71 57.4 0 0 95.8347,42.3239 12.87,7.71 57.4 0 0 109.264,49.0124"
       id="path32" />
    <path
       stroke="#908b8a"
       vector-effect="non-scaling-stroke"
       d="m 108.47,43.45 a 2.65,2.65 0 0 0 -2.65,-2.65 2.65,2.65 0 0 0 -2.65,2.65 2.65,2.65 0 0 0 2.65,2.65 2.65,2.65 0 0 0 2.65,-2.65"
       id="path33" />
    <path
       stroke="#afa497"
       vector-effect="non-scaling-stroke"
       d="M 74.8072,54.2665 A 12.88,9.32 57.2 0 0 75.6641,38.3913 12.88,9.32 57.2 0 0 60.8528,32.6135 12.88,9.32 57.2 0 0 59.9959,48.4887 12.88,9.32 57.2 0 0 74.8072,54.2665"
       id="path34" />
    <path
       stroke="#908b8a"
       vector-effect="non-scaling-stroke"
       d="m 73.82,46.23 a 2.62,2.62 0 0 0 -2.62,-2.62 2.62,2.62 0 0 0 -2.62,2.62 2.62,2.62 0 0 0 2.62,2.62 2.62,2.62 0 0 0 2.62,-2.62"
       id="path35" />
    <path
       stroke="#a29c90"
       vector-effect="non-scaling-stroke"
       d="m 81.75,78.74 c 11.23,4.81 21.28,-1.17 28.11,-9.6 a 0.57,0.57 0 0 0 -0.38,-0.93 Q 92.18,66.31 75.73,60.6 a 1.33,1.33 0 0 0 -1.69,0.82 q -4.26,12.18 7.71,17.32"
       id="path36" />
    <path
       stroke="#fcd290"
       vector-effect="non-scaling-stroke"
       d="m 58.69,112.84 q 0.9,0.53 1.27,0.36"
       id="path37" />
    <path
       stroke="#a29c90"
       vector-effect="non-scaling-stroke"
       d="m 76.19,62.06 a 0.95,0.94 -71.4 0 0 -1.21,0.61 c -3.94,12.3 8.97,18.39 18.9,16.1 5.2,-1.2 9.79,-4.85 13.69,-8.65 a 0.5,0.5 0 0 0 -0.29,-0.85 Q 91.36,67.29 76.19,62.06"
       id="path38" />
    <path
       stroke="#fcd290"
       vector-effect="non-scaling-stroke"
       d="m 81.45,100.3 q -1.59,-3.41 -5.68,-5.16 -6.35,-2.73 -10.62,2.52 c -1.14,1.39 -1.84,1.94 -0.6,3.7 q 1.97,2.77 4.32,5.24 a 1.59,1.56 72.9 0 0 0.87,0.47 l 6.64,1.24"
       id="path39" />
  </g>
  <g
     id="g45"
     transform="translate(-7.8541618,-5.59)">
    <path
       fill="#453820"
       d="m 138.74,48.57 q 0.04,0.96 -0.36,1.67 -4.51,2.98 -9.9,4.23 -0.51,0.12 -0.29,0.6 1.82,4.01 1.19,8.41 a 0.65,0.65 0 0 0 0.62,0.75 l 7.35,0.39 q 0.47,0.02 0.42,0.49 l -0.04,0.39 a 0.68,0.68 0 0 1 -0.74,0.62 l -7.37,-0.62 q -0.53,-0.04 -0.75,0.44 c -7.78,16.89 -27.19,21.99 -44.14,22.52 q -0.66,0.02 -0.43,0.64 1.44,3.74 0.14,7.6 a 0.83,0.83 0 0 0 0.83,1.09 c 3.17,-0.17 10.34,-1.15 13.03,0.32 2.93,1.6 3.76,5.38 1.77,8.03 -2.69,3.58 -10.94,3.06 -14.98,3.03 A 0.44,0.44 0 0 0 85,110.04 c 2.49,0.5 5.25,1.19 6.47,3.67 q 2.71,5.49 -3.01,8.92 -0.48,0.29 -0.08,0.68 c 3.14,3.08 4.16,7.82 -0.02,10.37 -2.88,1.77 -5.01,1.14 -7.94,-0.14 -5.96,-2.6 -21.71,-7.09 -15,-15.97 q 0.38,-0.49 -0.19,-0.75 c -2.01,-0.92 -4.54,-0.87 -5.27,-3.62 l 8.16,3.13 a 0.5,0.49 -50.9 0 1 0.09,0.88 c -4.79,3.06 -3.38,7.48 1.18,9.65 q 8.52,4.04 12.71,5.87 c 7.56,3.3 10.67,-7.22 3.29,-9.27 a 0.72,0.72 0 0 1 0.06,-1.4 c 2.25,-0.4 4.48,-1.63 5.15,-3.93 0.98,-3.39 -1.15,-5.08 -4.17,-6.17 q -5.03,-1.81 -10.05,-3.65 3.45,-3.43 5.07,-8.01 c 1.56,-2.71 3.53,-8.47 0.81,-11.51 A 1.3,1.29 69.6 0 0 81.31,88.35 Q 73.01,88.2 64.98,86.23 a 0.45,0.45 0 0 0 -0.47,0.71 q 1.79,2.35 1.1,4.88 c -1.3,4.82 -8.65,5.49 -12.68,6.89 q -0.5,0.18 -0.56,0.72 c -0.54,4.9 -1,9.68 3.62,12.74 q 0.42,0.28 0.92,0.19 1.38,-0.25 1.78,0.48 -5.43,5.8 -10.51,11.88 c -2.84,3.4 -5.89,4.97 -9.73,6.77 q -0.92,0.43 0.09,0.51 c 1.65,0.11 3.32,0.25 4.68,1.08 5,3.07 3.19,10.36 -2.58,11.53 l -11.89,0.29 q -7.12,-1.13 -12.42,-6.71 c -5.84,-6.14 2.03,-11.06 7.03,-12.85 a 0.5,0.5 0 0 0 -0.05,-0.96 Q 12.36,121.83 8.41,111.16 c -2.25,-6.08 2.7,-9.95 8.22,-6.55 7.67,4.72 14.95,8.96 24.34,6.13 a 0.69,0.68 79.5 0 0 0.48,-0.71 q -0.98,-12.2 -0.7,-16.26 0.19,-2.67 3.52,-3.9 7.45,-2.74 15.09,-4.77 0.73,-0.2 0.1,-0.61 Q 58.37,83.77 56.42,82.85 43.8,76.89 38.28,63.49 38.08,63 37.55,63.04 q -6,0.55 -12.04,-0.07 -0.97,-0.1 -1.14,-0.76 -0.17,-0.64 0.48,-0.56 6.28,0.76 12.57,-0.03 a 0.45,0.44 84.6 0 0 0.39,-0.48 L 37.38,55.69 Q 37.35,55.25 37,54.99 C 33.54,52.32 27.33,50.36 24.01,49.25 q -0.37,-0.12 -0.58,-0.36 -0.31,-0.34 -0.31,-0.68 0,-0.86 0.8,-0.53 l 13.44,5.5 q 0.33,0.13 0.38,-0.22 1.24,-9.14 6.46,-16.49 c 0.73,-1.03 1.18,-2.33 1.01,-3.71 Q 43.68,20.46 42.26,8.39 a 0.55,0.55 0 0 1 0.85,-0.53 l 17.93,11.47 q 0.41,0.26 0.86,0.09 c 7.39,-2.88 13.46,-2.45 20.35,-2.39 a 5.97,5.94 -66.9 0 0 4.22,-1.71 L 96.4,5.59 a 0.66,0.66 0 0 1 1.1,0.31 q 1.86,7.22 3.63,14.5 c 0.21,0.87 1.13,2.31 1.89,2.8 q 12.47,8.02 14.53,22.88 a 1,1 0 0 0 0.64,0.8 q 5.03,1.87 8.5,5.94 0.35,0.42 0.89,0.32 5.84,-1.06 11.16,-4.57 z M 73.59,85.84 c 18.12,2.99 45.05,-1.1 53.7,-20.31 a 0.49,0.48 -68.5 0 0 -0.28,-0.66 l -3.49,-1.18 a 0.58345951,0.58345951 0 0 1 0.36,-1.11 q 3.71,1.18 3.86,0.17 0.57,-3.8 -1.19,-7.61 a 0.89,0.89 0 0 0 -1.42,-0.28 q -0.86,0.82 -2.04,0.57 a 0.54,0.54 0 0 1 -0.12,-1.01 l 1.4,-0.69 a 0.93,0.93 0 0 0 0.09,-1.62 q -3.84,-2.48 -7,-3.82 c -1.59,-0.67 -2.23,-1.8 -2.66,-3.31 q 0.75,-1.21 0.17,-3.51 -1.99,-7.9 -7,-12.97 c -3.74,-3.78 -7.37,-3.76 -8.84,-9.83 Q 97.92,13.64 97,8.74 A 0.8,0.79 -26.9 0 0 95.68,8.31 L 85.4,17.78 a 0.42,0.42 0 0 0 0.15,0.7 q 1.3,0.45 2.43,1.2 a 0.53164838,0.53164838 0 0 1 -0.55,0.91 C 81.01,17.08 71.4,18.15 64.47,19.94 a 1.03,1.03 0 0 0 -0.44,1.76 l 1.37,1.26 a 0.51026976,0.50026447 -6.6 0 1 -0.63,0.79 L 44.6,10.18 a 0.44,0.43 -76.8 0 0 -0.67,0.42 q 1.37,11.14 2.69,22.39 c 0.16,1.4 -0.23,2.82 -0.98,3.87 C 43.45,39.97 37,51.9 39.88,55.25 q 0.35,0.41 -0.02,0.8 c -1.94,2.04 -0.22,4.79 0.18,7.02 1.23,6.79 7.35,12.64 13.18,16.45 q 9.67,6.3 20.37,6.32 z M 51.3,97.71 q 3,-0.94 9.46,-2.85 c 5.52,-1.63 3.59,-9.18 -0.28,-8.48 q -5.04,0.91 -14.98,4.6 c -2.06,0.76 -3.2,1.81 -3.19,4.01 q 0,7.02 0.49,14 c 0.45,6.37 8.57,4.93 8.29,-0.22 q -0.4,-7.12 -0.45,-10.14 a 0.95,0.94 81 0 1 0.66,-0.92 z m 46.19,8.91 c 3.1,-1.67 2.92,-7.43 -1,-7.63 q -3.39,-0.17 -12.6,0.47 -0.42,0.03 -0.62,0.41 l -3.9,7.54 a 0.48,0.48 0 0 0 0.46,0.7 q 6.85,-0.53 13.54,-0.74 2.9,-0.09 4.12,-0.75 z m -75.71,15.73 c 10.75,3.53 23.55,-2.61 31.2,-9.89 a 0.61,0.61 0 0 0 0.09,-0.77 l -0.41,-0.65 q -0.37,-0.57 -0.67,0.03 c -2.01,4.09 -6.38,4.82 -9.65,1.25 a 0.88,0.87 59.9 0 0 -0.88,-0.24 q -7.73,2.2 -14.3,-0.29 -6.97,-3.38 -12.62,-6.62 c -4.29,-2.46 -5.69,2.44 -4.71,5.58 q 2.72,8.77 11.95,11.6 z m 13.31,10.93 a 0.79,0.79 0 0 1 -0.32,-1.49 c 4.28,-2.17 8.56,-3.99 11.86,-7.61 2.92,-3.2 6.11,-6.58 8.68,-10.05 A 0.86123458,0.86123458 0 0 0 54.01,113 q -10.14,10.06 -24.16,11.77 -2.98,0.36 -5.02,1.33 c -4.48,2.13 -13.92,6.27 -5.74,12.3 3.96,2.93 5.78,4.81 10.93,4.84 4.12,0.02 14.08,1.63 14.49,-4.32 0.41,-6.01 -5.55,-5.44 -9.42,-5.64 z"
       id="path42" />
    <path
       fill="#f9a520"
       d="m 81.45,100.3 q -1.59,-3.41 -5.68,-5.16 -6.35,-2.73 -10.62,2.52 c -1.14,1.39 -1.84,1.94 -0.6,3.7 q 1.97,2.77 4.32,5.24 a 1.59,1.56 72.9 0 0 0.87,0.47 l 6.64,1.24 q 5.02,1.84 10.05,3.65 c 3.02,1.09 5.15,2.78 4.17,6.17 -0.67,2.3 -2.9,3.53 -5.15,3.93 a 0.72,0.72 0 0 0 -0.06,1.4 c 7.38,2.05 4.27,12.57 -3.29,9.27 q -4.19,-1.83 -12.71,-5.87 c -4.56,-2.17 -5.97,-6.59 -1.18,-9.65 a 0.5,0.49 -50.9 0 0 -0.09,-0.88 l -8.16,-3.13 q -0.37,0.17 -1.27,-0.36 -0.4,-0.73 -1.78,-0.48 -0.5,0.09 -0.92,-0.19 c -4.62,-3.06 -4.16,-7.84 -3.62,-12.74 q 0.06,-0.54 0.56,-0.72 c 4.03,-1.4 11.38,-2.07 12.68,-6.89 q 0.69,-2.53 -1.1,-4.88 a 0.45,0.45 0 0 1 0.47,-0.71 q 8.03,1.97 16.33,2.12 a 1.3,1.29 69.6 0 1 0.95,0.44 c 2.72,3.04 0.75,8.8 -0.81,11.51 z"
       id="path44" />
    <path
       fill="#ffffff"
       d="m 81.45,100.3 q -1.62,4.58 -5.07,8.01 l -6.64,-1.24 a 1.59,1.56 72.9 0 1 -0.87,-0.47 q -2.35,-2.47 -4.32,-5.24 c -1.24,-1.76 -0.54,-2.31 0.6,-3.7 q 4.27,-5.25 10.62,-2.52 4.09,1.75 5.68,5.16 z"
       id="path45" />
  </g>
  <g
     id="g55"
     transform="translate(-7.8541618,-5.59)">
    <path
       fill="#f9a520"
       d="m 114.8,44.98 q -0.61,-0.46 -1.44,-0.4 -0.76,-10.54 -9.05,-16.84 c -3.25,-2.47 -7.48,-3.94 -10.58,-0.69 -5.71,5.97 0.54,16.78 5.58,21.11 q -0.74,0.65 -0.37,2.08 -5.2,0.01 -10.44,0.03 -2.92,0.01 -3.05,2.68 -2.89,0.27 -6.26,-2.23 1.62,-11.66 -7.57,-17.97 C 61.6,25.87 53.16,34.89 57.09,44.97 q 2.72,6.99 8.71,10.58 c -3.22,0.72 -7.64,2.39 -9.57,5.14 q -1.15,1.63 -1.15,2.6 c -0.02,13.13 8.48,17.27 18.51,22.55 Q 62.89,85.82 53.22,79.52 C 47.39,75.71 41.27,69.86 40.04,63.07 39.64,60.84 37.92,58.09 39.86,56.05 q 0.37,-0.39 0.02,-0.8 C 37,51.9 43.45,39.97 45.64,36.86 c 0.75,-1.05 1.14,-2.47 0.98,-3.87 Q 45.3,21.74 43.93,10.6 A 0.44,0.43 -76.8 0 1 44.6,10.18 L 64.77,23.75 A 0.51026976,0.50026447 -6.6 0 0 65.4,22.96 L 64.03,21.7 a 1.03,1.03 0 0 1 0.44,-1.76 c 6.93,-1.79 16.54,-2.86 22.96,0.65 a 0.53164838,0.53164838 0 0 0 0.55,-0.91 q -1.13,-0.75 -2.43,-1.2 A 0.42,0.42 0 0 1 85.4,17.78 L 95.68,8.31 A 0.8,0.79 -26.9 0 1 97,8.74 q 0.92,4.9 2.13,9.93 c 1.47,6.07 5.1,6.05 8.84,9.83 q 5.01,5.07 7,12.97 0.58,2.3 -0.17,3.51 z"
       id="path46" />
    <path
       fill="#5f482f"
       d="m 113.36,44.58 q -1.81,5.97 -7.11,6.4 -1.93,0.15 -6.94,-2.82 C 94.27,43.83 88.02,33.02 93.73,27.05 c 3.1,-3.25 7.33,-1.78 10.58,0.69 q 8.29,6.3 9.05,16.84 z m -4.096,4.4324 a 12.87,7.71 57.4 0 0 -0.4387,-14.9963 12.87,7.71 57.4 0 0 -13.4293,-6.6885 12.87,7.71 57.4 0 0 0.4387,14.9963 12.87,7.71 57.4 0 0 13.4293,6.6885 z"
       id="path47" />
    <path
       fill="#5f482f"
       d="M 79.19,50.72 Q 75.05,58.82 65.8,55.55 59.81,51.96 57.09,44.97 C 53.16,34.89 61.6,25.87 71.62,32.75 q 9.19,6.31 7.57,17.97 z m -4.3828,3.5465 a 12.88,9.32 57.2 0 0 0.8569,-15.8752 12.88,9.32 57.2 0 0 -14.8113,-5.7778 12.88,9.32 57.2 0 0 -0.8569,15.8752 12.88,9.32 57.2 0 0 14.8113,5.7778 z"
       id="path48" />
    <path
       fill="#ffffff"
       d="m 113.36,44.58 q 0.83,-0.06 1.44,0.4 c 0.43,1.51 1.07,2.64 2.66,3.31 q 3.16,1.34 7,3.82 a 0.93,0.93 0 0 1 -0.09,1.62 l -1.4,0.69 a 0.54,0.54 0 0 0 0.12,1.01 q 1.18,0.25 2.04,-0.57 a 0.89,0.89 0 0 1 1.42,0.28 q 1.76,3.81 1.19,7.61 -0.15,1.01 -3.86,-0.17 a 0.58345951,0.58345951 0 0 0 -0.36,1.11 l 3.49,1.18 a 0.49,0.48 -68.5 0 1 0.28,0.66 C 118.64,84.74 91.71,88.83 73.59,85.84 63.56,80.56 55.06,76.42 55.08,63.29 q 0,-0.97 1.15,-2.6 c 1.93,-2.75 6.35,-4.42 9.57,-5.14 q 9.25,3.27 13.39,-4.83 3.37,2.5 6.26,2.23 3.92,4.15 9.31,5.62 0.52,0.14 0.93,-0.21 c 1.82,-1.6 5.43,-5.45 3.25,-8.12 q -0.37,-1.43 0.37,-2.08 5.01,2.97 6.94,2.82 5.3,-0.43 7.11,-6.4 z M 81.75,78.74 c 11.23,4.81 21.28,-1.17 28.11,-9.6 a 0.57,0.57 0 0 0 -0.38,-0.93 Q 92.18,66.31 75.73,60.6 a 1.33,1.33 0 0 0 -1.69,0.82 q -4.26,12.18 7.71,17.32 z"
       id="path49" />
    <path
       fill="#5f482f"
       d="m 98.94,50.24 c 2.18,2.67 -1.43,6.52 -3.25,8.12 q -0.41,0.35 -0.93,0.21 -5.39,-1.47 -9.31,-5.62 0.13,-2.67 3.05,-2.68 5.24,-0.02 10.44,-0.03 z"
       id="path50" />
    <path
       fill="#f9a520"
       d="m 50.64,98.63 q 0.05,3.02 0.45,10.14 c 0.28,5.15 -7.84,6.59 -8.29,0.22 q -0.49,-6.98 -0.49,-14 c -0.01,-2.2 1.13,-3.25 3.19,-4.01 q 9.94,-3.69 14.98,-4.6 c 3.87,-0.7 5.8,6.85 0.28,8.48 q -6.46,1.91 -9.46,2.85 a 0.95,0.94 81 0 0 -0.66,0.92 z"
       id="path51" />
    <path
       fill="#f9a520"
       d="m 96.49,98.99 c 3.92,0.2 4.1,5.96 1,7.63 q -1.22,0.66 -4.12,0.75 -6.69,0.21 -13.54,0.74 a 0.48,0.48 0 0 1 -0.46,-0.7 l 3.9,-7.54 q 0.2,-0.38 0.62,-0.41 9.21,-0.64 12.6,-0.47 z"
       id="path52" />
    <path
       fill="#ffffff"
       d="m 27.16,111.79 q -4.86,1.92 -6.24,5.26 c -0.68,1.67 0.38,3.21 1.55,4.29 a 0.61,0.61 0 0 1 -0.12,0.99 q -0.18,0.11 -0.57,0.02 -9.23,-2.83 -11.95,-11.6 c -0.98,-3.14 0.42,-8.04 4.71,-5.58 q 5.65,3.24 12.62,6.62 z"
       id="path53" />
    <path
       fill="#f9a520"
       d="m 21.78,122.35 q 0.39,0.09 0.57,-0.02 a 0.61,0.61 0 0 0 0.12,-0.99 c -1.17,-1.08 -2.23,-2.62 -1.55,-4.29 q 1.38,-3.34 6.24,-5.26 6.57,2.49 14.3,0.29 a 0.88,0.87 59.9 0 1 0.88,0.24 c 3.27,3.57 7.64,2.84 9.65,-1.25 q 0.3,-0.6 0.67,-0.03 l 0.41,0.65 a 0.61,0.61 0 0 1 -0.09,0.77 c -7.65,7.28 -20.45,13.42 -31.2,9.89 z"
       id="path54" />
    <path
       fill="#f9a520"
       d="m 35.09,133.28 c 3.87,0.2 9.83,-0.37 9.42,5.64 -0.41,5.95 -10.37,4.34 -14.49,4.32 -5.15,-0.03 -6.97,-1.91 -10.93,-4.84 -8.18,-6.03 1.26,-10.17 5.74,-12.3 q 2.04,-0.97 5.02,-1.33 14.02,-1.71 24.16,-11.77 a 0.86123458,0.86123458 0 0 1 1.3,1.13 c -2.57,3.47 -5.76,6.85 -8.68,10.05 -3.3,3.62 -7.58,5.44 -11.86,7.61 a 0.79,0.79 0 0 0 0.32,1.49 z"
       id="path55" />
  </g>
  <g
     id="g58"
     transform="translate(-7.8541618,-5.59)">
    <path
       fill="#ffffff"
       d="M 109.264,49.0124 A 12.87,7.71 57.4 0 1 95.8347,42.3239 12.87,7.71 57.4 0 1 95.396,27.3276 a 12.87,7.71 57.4 0 1 13.4293,6.6885 12.87,7.71 57.4 0 1 0.4387,14.9963 z M 108.47,43.45 a 2.65,2.65 0 0 0 -2.65,-2.65 2.65,2.65 0 0 0 -2.65,2.65 2.65,2.65 0 0 0 2.65,2.65 2.65,2.65 0 0 0 2.65,-2.65 z"
       id="path56" />
    <path
       fill="#ffffff"
       d="M 74.8072,54.2665 A 12.88,9.32 57.2 0 1 59.9959,48.4887 12.88,9.32 57.2 0 1 60.8528,32.6135 12.88,9.32 57.2 0 1 75.6641,38.3913 12.88,9.32 57.2 0 1 74.8072,54.2665 Z M 73.82,46.23 a 2.62,2.62 0 0 0 -2.62,-2.62 2.62,2.62 0 0 0 -2.62,2.62 2.62,2.62 0 0 0 2.62,2.62 2.62,2.62 0 0 0 2.62,-2.62 z"
       id="path57" />
    <path
       fill="#453820"
       d="M 81.75,78.74 Q 69.78,73.6 74.04,61.42 a 1.33,1.33 0 0 1 1.69,-0.82 q 16.45,5.71 33.75,7.61 a 0.57,0.57 0 0 1 0.38,0.93 c -6.83,8.43 -16.88,14.41 -28.11,9.6 z M 76.19,62.06 a 0.95,0.94 -71.4 0 0 -1.21,0.61 c -3.94,12.3 8.97,18.39 18.9,16.1 5.2,-1.2 9.79,-4.85 13.69,-8.65 a 0.5,0.5 0 0 0 -0.29,-0.85 Q 91.36,67.29 76.19,62.06 Z"
       id="path58" />
  </g>
  <g
     id="g59"
     transform="translate(-7.8541618,-5.59)">
    <circle
       fill="#201615"
       cx="105.82"
       cy="43.450001"
       r="2.6500001"
       id="circle58" />
    <circle
       fill="#201615"
       cx="71.199997"
       cy="46.23"
       r="2.6199999"
       id="circle59" />
    <path
       fill="#ffffff"
       d="m 76.19,62.06 q 15.17,5.23 31.09,7.21 a 0.5,0.5 0 0 1 0.29,0.85 c -3.9,3.8 -8.49,7.45 -13.69,8.65 -9.93,2.29 -22.84,-3.8 -18.9,-16.1 a 0.95,0.94 -71.4 0 1 1.21,-0.61 z"
       id="path59" />
  </g>
</svg>
