<?xml version="1.0" encoding="UTF-8" standalone="no"?>
<!-- Created with Inkscape (http://www.inkscape.org/) -->

<svg
  width="3840"
  height="1080"
  viewBox="0 0 1015.9997 285.75"
  version="1.1"
  id="svg1"
  xmlns="http://www.w3.org/2000/svg"
  xmlns:svg="http://www.w3.org/2000/svg">
  <defs
    id="defs1" />
  <g
    id="layer1"
    transform="scale(0.3)">
    <path
      id="path2"
      transform="translate(500 0)"
      style="fill:#fffeb6;fill-opacity:1;fill-rule:evenodd;stroke:#000000;stroke-width:0.0949773;stroke-linecap:square;stroke-miterlimit:7.8;paint-order:stroke fill markers"
      d="m 588.0998,1.8257543 a 28.373555,28.373555 0 0 1 0.62556,5.89238 28.373555,28.373555 0 0 1 -28.37365,28.3736467 28.373555,28.373555 0 0 1 -3.90147,-0.278868 23.597634,23.597634 0 0 0 18.74486,9.361505 A 23.597634,23.597634 0 0 0 598.79274,21.576785 23.597634,23.597634 0 0 0 588.0998,1.8257543 Z">
    </path>
    <path
      id="path26"
      style="fill:#dcf5ff;fill-opacity:1;fill-rule:evenodd;stroke:#006186;stroke-width:0.39714;stroke-linecap:square;stroke-miterlimit:7.8;stroke-dasharray:none;stroke-opacity:1;paint-order:stroke fill markers"
      d="m 193.14797,92.354875 a 15.346658,12.511143 0 0 0 12.96367,-5.82676 11.582384,9.4423716 0 0 0 8.31894,2.87609 11.582384,9.4423716 0 0 0 10.66117,-5.79382 9.555467,7.7899571 0 0 0 6.56769,2.13489 9.555467,7.7899571 0 0 0 9.55544,-7.78993 9.555467,7.7899571 0 0 0 -7.39356,-7.56844 12.451061,10.15055 0 0 0 -12.29654,-8.601662 12.451061,10.15055 0 0 0 -5.35971,1.000718 12.595842,10.268579 0 0 0 -11.86901,-6.902178 12.595842,10.268579 0 0 0 -9.6799,3.718841 10.858483,8.8522233 0 0 0 -8.70721,-3.600826 10.858483,8.8522233 0 0 0 -10.85858,8.852257 10.858483,8.8522233 0 0 0 0.0396,0.727314 10.568924,8.6161636 0 0 0 -0.32912,-0.01918 10.568924,8.6161636 0 0 0 -10.56903,8.616219 10.568924,8.6161636 0 0 0 10.56903,8.616097 10.568924,8.6161636 0 0 0 3.34859,-0.46183 15.346658,12.511143 0 0 0 15.03855,10.02222 z">
    </path>
    <path
      id="path5"
      style="fill:#dcf5ff;fill-opacity:1;fill-rule:evenodd;stroke:#006186;stroke-width:0.337079;stroke-linecap:square;stroke-miterlimit:7.8;stroke-dasharray:none;stroke-opacity:1;paint-order:stroke fill markers"
      d="m 494.33302,91.705132 a 15.042363,12.26307 0 0 0 12.70661,-5.711239 11.352726,9.2551474 0 0 0 8.15398,2.819059 11.352726,9.2551474 0 0 0 10.44978,-5.678924 9.3660003,7.6354971 0 0 0 6.43747,2.092553 9.3660003,7.6354971 0 0 0 9.36598,-7.635461 9.3660003,7.6354971 0 0 0 -7.24697,-7.418375 12.20418,9.9492838 0 0 0 -12.05272,-8.431103 12.20418,9.9492838 0 0 0 -5.25345,0.980864 12.34609,10.064972 0 0 0 -11.63366,-6.76532 12.34609,10.064972 0 0 0 -9.48795,3.645104 10.64318,8.6767001 0 0 0 -8.53451,-3.529421 10.64318,8.6767001 0 0 0 -10.64321,8.676731 10.64318,8.6767001 0 0 0 0.0389,0.712896 10.359362,8.4453211 0 0 0 -0.32259,-0.01879 10.359362,8.4453211 0 0 0 -10.35942,8.445373 10.359362,8.4453211 0 0 0 10.35942,8.445245 10.359362,8.4453211 0 0 0 3.28216,-0.452664 15.042363,12.26307 0 0 0 14.74028,9.823492 z">
    </path>
    <path
      id="path5-7"
      style="fill:#dcf5ff;fill-opacity:1;fill-rule:evenodd;stroke:#006186;stroke-width:0.337079;stroke-linecap:square;stroke-miterlimit:7.8;stroke-dasharray:none;stroke-opacity:1;paint-order:stroke fill markers"
      d="m 742.1327,54.221761 a 12.606068,10.276915 0 0 0 10.64862,-4.786234 9.5140127,7.7561627 0 0 0 6.83335,2.362478 9.5140127,7.7561627 0 0 0 8.75731,-4.759152 7.8490616,6.3988347 0 0 0 5.39484,1.753638 7.8490616,6.3988347 0 0 0 7.84904,-6.398805 7.8490616,6.3988347 0 0 0 -6.07323,-6.216878 10.227563,8.3378752 0 0 0 -10.10064,-7.065582 10.227563,8.3378752 0 0 0 -4.40258,0.822001 10.346489,8.4348263 0 0 0 -9.74945,-5.669593 10.346489,8.4348263 0 0 0 -7.95126,3.054734 8.9193864,7.2714021 0 0 0 -7.15224,-2.957788 8.9193864,7.2714021 0 0 0 -8.91941,7.271428 8.9193864,7.2714021 0 0 0 0.0326,0.597434 8.6815362,7.0774977 0 0 0 -0.27035,-0.01575 8.6815362,7.0774977 0 0 0 -8.68158,7.077541 8.6815362,7.0774977 0 0 0 8.68158,7.077434 8.6815362,7.0774977 0 0 0 2.75058,-0.379349 12.606068,10.276915 0 0 0 12.35291,8.232457 z">
    </path>
    <path
      id="path5-4"
      style="fill:#dcf5ff;fill-opacity:1;fill-rule:evenodd;stroke:#006186;stroke-width:0.337079;stroke-linecap:square;stroke-miterlimit:7.8;stroke-dasharray:none;stroke-opacity:1;paint-order:stroke fill markers"
      d="m 949.40925,88.148476 a 15.042363,12.26307 0 0 0 12.70661,-5.711239 11.352726,9.2551474 0 0 0 8.15398,2.819059 11.352726,9.2551474 0 0 0 10.44978,-5.678924 9.3660003,7.6354971 0 0 0 6.43747,2.092553 9.3660003,7.6354971 0 0 0 9.36598,-7.635461 9.3660003,7.6354971 0 0 0 -7.24697,-7.418375 12.20418,9.9492838 0 0 0 -12.05272,-8.431103 12.20418,9.9492838 0 0 0 -5.25345,0.980864 12.34609,10.064972 0 0 0 -11.63366,-6.76532 12.34609,10.064972 0 0 0 -9.48795,3.645104 10.64318,8.6767001 0 0 0 -8.53451,-3.529421 10.64318,8.6767001 0 0 0 -10.64321,8.676731 10.64318,8.6767001 0 0 0 0.0389,0.712896 10.359362,8.4453211 0 0 0 -0.32259,-0.01879 10.359362,8.4453211 0 0 0 -10.35942,8.445373 10.359362,8.4453211 0 0 0 10.35942,8.445245 10.359362,8.4453211 0 0 0 3.28216,-0.452664 15.042363,12.26307 0 0 0 14.74028,9.823492 z">
    </path>
    <path
      id="path25-8"
      style="fill:#dcf5ff;fill-opacity:1;fill-rule:evenodd;stroke:#006186;stroke-width:0.337079;stroke-linecap:square;stroke-miterlimit:7.8;stroke-dasharray:none;stroke-opacity:1;paint-order:stroke fill markers"
      d="m 441.61601,81.210024 c -3.02908,-0.0212 -6.01738,1.5921 -7.62225,4.168065 -3.59445,-1.758761 -8.59445,-0.248978 -10.1609,3.551578 -3.77079,-0.941899 -8.2487,1.77952 -8.42028,5.827045 -0.22194,2.936227 2.0399,5.458228 4.69381,6.407948 2.48007,1.06316 5.21998,1.21358 7.83335,1.79696 4.97945,1.08538 10.11253,0.8383 15.17462,1.03868 7.21344,0.0884 14.6145,0.0992 21.53686,-2.18224 3.19455,-1.12721 5.34445,-4.704177 4.41037,-8.039345 -0.76228,-3.494819 -4.77121,-5.831892 -8.16415,-4.592532 -1.86271,-4.508128 -7.59599,-6.772006 -12.0313,-4.750766 -1.1317,-0.576405 -2.29418,-2.146641 -3.80951,-2.550999 -1.08885,-0.44479 -2.26448,-0.67469 -3.44062,-0.674394 z">
    </path>
    <path
      id="path25"
      style="fill:#dcf5ff;fill-opacity:1;fill-rule:evenodd;stroke:#006186;stroke-width:0.353483;stroke-linecap:square;stroke-miterlimit:7.8;stroke-dasharray:none;stroke-opacity:1;paint-order:stroke fill markers"
      d="m 384.07084,65.402389 c -5.55674,-0.03889 -11.03867,2.920649 -13.98275,7.646164 -6.59389,-3.226383 -15.76621,-0.45674 -18.63981,6.515243 -6.91737,-1.72788 -15.13194,3.264465 -15.44669,10.689504 -0.40714,5.386402 3.74213,10.01292 8.61062,11.75516 4.5496,1.95032 9.57586,2.22627 14.37,3.29646 9.13462,1.99108 18.55107,1.53782 27.83729,1.9054 13.2328,0.1621 26.80977,0.18201 39.5086,-4.00324 5.86028,-2.06782 9.8042,-8.629635 8.09066,-14.74788 -1.39836,-6.41112 -8.75261,-10.698396 -14.97684,-8.424835 -3.41707,-8.27 -13.93457,-12.423001 -22.07098,-8.715109 -2.07606,-1.057394 -4.2086,-3.937936 -6.98841,-4.679717 -1.99746,-0.815951 -4.15412,-1.237694 -6.31169,-1.23715 z">
    </path>
    <path
      id="path25-7"
      style="fill:#dcf5ff;fill-opacity:1;fill-rule:evenodd;stroke:#006186;stroke-width:0.337079;stroke-linecap:square;stroke-miterlimit:7.8;stroke-dasharray:none;stroke-opacity:1;paint-order:stroke fill markers"
      d="m 856.2466,60.023238 c -6.16513,-0.04315 -12.24725,3.240421 -15.51367,8.483316 -7.31583,-3.579628 -17.4924,-0.506747 -20.68061,7.228573 -7.67473,-1.917059 -16.78869,3.62188 -17.1379,11.85986 -0.45171,5.97614 4.15184,11.109196 9.55337,13.042183 5.04772,2.16386 10.62429,2.47002 15.94332,3.65738 10.13474,2.20908 20.58216,1.70619 30.88509,2.11402 14.68162,0.17985 29.74508,0.20193 43.83426,-4.44154 6.5019,-2.294217 10.87763,-9.574463 8.97648,-16.362573 -1.55147,-7.11305 -9.71091,-11.869725 -16.6166,-9.34724 -3.7912,-9.175452 -15.46022,-13.783151 -24.48746,-9.669295 -2.30336,-1.173164 -4.66938,-4.369086 -7.75354,-5.192082 -2.21616,-0.905287 -4.60894,-1.373205 -7.00274,-1.372602 z">
    </path>
    <path
      id="path18"
      style="fill:#dcf5ff;fill-opacity:1;fill-rule:evenodd;stroke:#006186;stroke-width:0.337079;stroke-linecap:square;stroke-miterlimit:7.8;stroke-dasharray:none;stroke-opacity:1;paint-order:stroke fill markers"
      d="m 307.53354,44.678403 c -1.65066,-0.01155 -3.2791,0.867598 -4.15366,2.271343 -1.95876,-0.958418 -4.68345,-0.135677 -5.53707,1.935396 -2.05485,-0.51328 -4.49504,0.969729 -4.58854,3.175385 -0.12094,1.600065 1.11162,2.974398 2.55784,3.491948 1.35149,0.57935 2.84457,0.66133 4.2687,0.97923 2.7135,0.59147 5.51071,0.45682 8.26924,0.56602 3.93089,0.0481 7.96402,0.0541 11.73629,-1.18919 1.74083,-0.61426 2.9124,-2.563495 2.40338,-4.380957 -0.4154,-1.904466 -2.60002,-3.178027 -4.44897,-2.50265 -1.01506,-2.456659 -4.13935,-3.690335 -6.55633,-2.588882 -0.6167,-0.314105 -1.25019,-1.16979 -2.07595,-1.39014 -0.59336,-0.242383 -1.234,-0.367665 -1.87493,-0.367503 z">
    </path>
  </g>
</svg>