<?xml version="1.0" encoding="UTF-8" standalone="no"?>
<!-- Created with Inkscape (http://www.inkscape.org/) -->

<svg
   width="42.898083mm"
   height="41.558632mm"
   viewBox="0 0 42.898083 41.558632"
   version="1.1"
   id="svg1"
   xmlns="http://www.w3.org/2000/svg"
   xmlns:svg="http://www.w3.org/2000/svg">
  <defs
     id="defs1" />
  <g
     id="layer1"
     transform="translate(-53.251899,-77.935643)">
    <path
       d="m 84.244544,106.08195 h -5.711279 q -0.483691,0 -0.818554,-0.33486 -0.334864,-0.33487 -0.334864,-0.81856 v -5.72988 q 0,-0.483691 0.334864,-0.818555 0.334863,-0.334863 0.818554,-0.334863 h 5.711279 q 0.483692,0 0.818555,0.334863 0.334863,0.334864 0.334863,0.818555 v 5.72988 q 0,0.48369 -0.334863,0.81856 -0.334863,0.33486 -0.818555,0.33486 z M 77.751918,79.218475 v 0.0186 l 17.059423,16.798974 q 0.613916,0.595312 0.948779,1.395263 0.334863,0.781348 0.334863,1.655713 0,0.855762 -0.316259,1.599905 -0.31626,0.74414 -0.855762,1.32085 -0.539502,0.57671 -1.283643,0.93018 -0.725537,0.35346 -1.562695,0.40927 v 8.22276 q 0.892969,0.20464 1.618506,0.68833 0.74414,0.48369 1.265039,1.15342 0.539502,0.66972 0.837158,1.48828 0.297656,0.83715 0.297656,1.74873 v 2.79052 H 53.306899 v -2.79052 q 0,-0.91158 0.297656,-1.74873 0.297657,-0.81856 0.818555,-1.48828 0.539502,-0.66973 1.265039,-1.15342 0.744141,-0.48369 1.637109,-0.68833 v -8.18555 q -0.837158,-0.0558 -1.581298,-0.40928 -0.725538,-0.35346 -1.283643,-0.93017 -0.539502,-0.57671 -0.855762,-1.32085 -0.297656,-0.76275 -0.297656,-1.599908 0,-0.874365 0.334863,-1.655713 0.334864,-0.799951 0.94878,-1.395263 L 58.646108,92.0735 v -9.376172 q 0,-0.706933 0.260449,-1.320849 0.279053,-0.613916 0.744141,-1.0604 0.465088,-0.465088 1.079004,-0.725538 0.613915,-0.260449 1.320849,-0.260449 h 3.906738 q 0.558106,0 1.060401,0.167432 0.520898,0.167432 0.948779,0.483691 0.427881,0.31626 0.74414,0.762744 0.31626,0.427881 0.483692,0.94878 l 2.492871,-2.455664 q 0.613916,-0.595313 1.395263,-0.911573 0.781348,-0.334863 1.63711,-0.334863 0.837158,0 1.637109,0.31626 0.799951,0.31626 1.395264,0.911572 z M 66.682826,87.92492 v -5.227588 q 0,-0.297656 -0.223242,-0.483691 -0.204639,-0.204639 -0.502295,-0.204639 h -3.906738 q -0.297656,0 -0.520898,0.204639 -0.204639,0.186035 -0.204639,0.483691 v 10.492383 z m -6.697265,11.124902 v 15.050248 h 2.678906 q 0,-0.55811 0.390674,-0.94878 0.390674,-0.39068 0.948779,-0.39068 V 99.905584 q 0,-0.762744 0.520899,-1.283643 0.539501,-0.520898 1.302246,-0.520898 H 72.8964 q 0.762744,0 1.283643,0.520898 0.539502,0.520899 0.539502,1.283643 v 12.855026 q 0.539502,0.0372 0.892968,0.40928 0.372071,0.39067 0.372071,0.93018 H 89.416321 V 98.994011 L 74.719545,84.53908 Z m 13.375927,6.362398 q 0,-0.27905 -0.204639,-0.46508 -0.186035,-0.20464 -0.465087,-0.20464 -0.279053,0 -0.483692,0.20464 -0.186035,0.18603 -0.186035,0.46508 0,0.27906 0.186035,0.4837 0.204639,0.18603 0.483692,0.18603 0.279052,0 0.465087,-0.18603 0.204639,-0.20464 0.204639,-0.4837 z"
       fill = "black" />
  </g>
</svg>
